SplineFontDB: 3.0
FontName: FiraSlav-Bold
FullName: Fira Slav Bold
FamilyName: Fira Slav
Weight: Bold
Copyright: Copyright 2019 Aleksandr Andreev. Slavonic Computing Initiative. Digitized data copyright \\(c\\) 2012-2015, The Mozilla Foundation and Telefonica S.A.
Version: 003.5
ItalicAngle: 0
UnderlinePosition: -100
UnderlineWidth: 50
Ascent: 800
Descent: 200
InvalidEm: 0
sfntRevision: 0x00037fbe
LayerCount: 2
Layer: 0 0 "Back" 1
Layer: 1 0 "Fore" 0
XUID: [1021 16 -658691101 14280974]
StyleMap: 0x0020
FSType: 0
OS2Version: 3
OS2_WeightWidthSlopeOnly: 0
OS2_UseTypoMetrics: 0
CreationTime: 1441835616
ModificationTime: 1567276569
PfmFamily: 17
TTFWeight: 700
TTFWidth: 5
LineGap: 0
VLineGap: 0
Panose: 2 11 8 9 5 0 0 2 0 4
OS2TypoAscent: 935
OS2TypoAOffset: 0
OS2TypoDescent: -265
OS2TypoDOffset: 0
OS2TypoLinegap: 0
OS2WinAscent: 935
OS2WinAOffset: 0
OS2WinDescent: 265
OS2WinDOffset: 0
HheadAscent: 935
HheadAOffset: 0
HheadDescent: -265
HheadDOffset: 0
OS2SubXSize: 650
OS2SubYSize: 600
OS2SubXOff: 0
OS2SubYOff: 75
OS2SupXSize: 650
OS2SupYSize: 600
OS2SupXOff: 0
OS2SupYOff: 350
OS2StrikeYSize: 50
OS2StrikeYPos: 318
OS2CapHeight: 693
OS2XHeight: 531
OS2Vendor: 'CTDB'
OS2CodePages: 6000009f.00000000
OS2UnicodeRanges: 40000287.02003801.00000000.00000000
Lookup: 1 0 0 "ccmpMapCombiningGlyphs" { "ccmpMapCombiningGlyphs subtable"  } ['ccmp' ('DFLT' <'dflt' > 'cyrl' <'ABK ' 'BEL ' 'BGR ' 'BOS ' 'CHE ' 'CHK ' 'CHU ' 'CSL ' 'KAZ ' 'RUS ' 'SRB ' 'UKR ' 'dflt' > 'grek' <'ELL ' 'dflt' > 'latn' <'AFK ' 'AZE ' 'CAT ' 'CRT ' 'KAZ ' 'MOL ' 'PLK ' 'ROM ' 'TAT ' 'TRK ' 'dflt' > ) ]
MarkAttachClasses: 3
"MarkClass-1" 125 acutecomb uni0306 uni030C uni0302 uni0313 uni0314 uni030F uni0308 uni0307 gravecomb uni030B uni0304 uni030A tildecomb uni0342
"MarkClass-2" 36 uni0327 uni0326 uni0326.case uni0345
DEI: 91125

StartChar: .notdef
Encoding: 1114112 -1 0
Width: 600
Flags: W
HStem: -350 52<145 456> 48 72<249.988 314.012> 149 108<257.078 305.929> 403 48<214.617 336.616> 998 52<145 456>
VStem: 90 55<-298 998> 247 70<50.4951 117.657> 257 50<149.235 222.291> 348 54<274.958 392.016> 456 54<-298 998>
LayerCount: 2
Fore
SplineSet
90 1050 m 1xfcc0
 510 1050 l 1
 510 -350 l 1
 90 -350 l 1
 90 1050 l 1xfcc0
456 -298 m 1
 456 998 l 1
 145 998 l 1
 145 -298 l 1
 456 -298 l 1
307 173 m 2xfdc0
 307 158 294 149 282 149 c 0
 269 149 257 158 257 173 c 2
 257 257 l 1
 329 261 348 281 348 334 c 0
 348 373 337 403 287 403 c 0
 266 403 252 400 235 392 c 0
 230 390 226 389 222 389 c 0
 207 389 198 399 198 412 c 0
 198 439 252 451 291 451 c 0
 377 451 402 396 402 336 c 0
 402 266 374 228 307 218 c 1
 307 173 l 2xfdc0
247 85 m 0xfec0
 247 105 262 120 282 120 c 0
 302 120 317 105 317 85 c 0
 317 64 302 48 282 48 c 0
 262 48 247 64 247 85 c 0xfec0
EndSplineSet
Validated: 1
EndChar

StartChar: A
Encoding: 65 65 2
Width: 600
GlyphClass: 2
Flags: W
HStem: 0 21G<-11 165.8 431.2 612> 150 118<223 373> 673 20G<194.882 406.118>
LayerCount: 2
Fore
SplineSet
400 150 m 1
 197 150 l 1
 161 0 l 1
 -11 0 l 1
 201 693 l 1
 400 693 l 1
 612 0 l 1
 436 0 l 1
 400 150 l 1
223 268 m 1
 373 268 l 1
 298 575 l 1
 223 268 l 1
EndSplineSet
Validated: 1
EndChar

StartChar: Aacute
Encoding: 193 193 3
Width: 600
GlyphClass: 2
Flags: W
HStem: 0 21G<-11 165.8 431.2 612> 150 118<223 373> 673 20G<194.882 406.118> 751 21G<190.5 256.429>
LayerCount: 2
Fore
SplineSet
378 953 m 1
 437 835 l 1
 200 751 l 1
 162 831 l 1
 378 953 l 1
400 150 m 1
 197 150 l 1
 161 0 l 1
 -11 0 l 1
 201 693 l 1
 400 693 l 1
 612 0 l 1
 436 0 l 1
 400 150 l 1
223 268 m 1
 373 268 l 1
 298 575 l 1
 223 268 l 1
EndSplineSet
Validated: 1
EndChar

StartChar: Abreve
Encoding: 258 258 4
Width: 600
GlyphClass: 2
Flags: W
HStem: 0 21G<-11 165.8 431.2 612> 150 118<223 373> 673 20G<194.882 406.118> 751 110<238.308 361.741>
LayerCount: 2
Fore
SplineSet
300 751 m 0
 190 751 138 820 128 905 c 1
 215 921 l 1
 228 879 254 861 300 861 c 0
 346 861 372 879 385 921 c 1
 472 905 l 1
 463 820 410 751 300 751 c 0
400 150 m 1
 197 150 l 1
 161 0 l 1
 -11 0 l 1
 201 693 l 1
 400 693 l 1
 612 0 l 1
 436 0 l 1
 400 150 l 1
223 268 m 1
 373 268 l 1
 298 575 l 1
 223 268 l 1
EndSplineSet
Validated: 1
EndChar

StartChar: Acircumflex
Encoding: 194 194 5
Width: 600
GlyphClass: 2
Flags: W
HStem: 0 21G<-11 165.8 431.2 612> 150 118<223 373> 673 20G<194.882 406.118> 748 21G<149.462 198.294 401.706 450.231>
LayerCount: 2
Fore
SplineSet
348 943 m 1
 489 813 l 1
 433 748 l 1
 300 833 l 1
 167 748 l 1
 110 813 l 1
 252 943 l 1
 348 943 l 1
400 150 m 1
 197 150 l 1
 161 0 l 1
 -11 0 l 1
 201 693 l 1
 400 693 l 1
 612 0 l 1
 436 0 l 1
 400 150 l 1
223 268 m 1
 373 268 l 1
 298 575 l 1
 223 268 l 1
EndSplineSet
Validated: 1
EndChar

StartChar: Adieresis
Encoding: 196 196 6
Width: 600
GlyphClass: 2
Flags: W
HStem: 0 21G<-11 165.8 431.2 612> 150 118<223 373> 673 20G<194.882 406.118> 762 160<127.536 241.713 359.059 472.85>
VStem: 102 165<788.035 896.264> 333 165<788.035 896.264>
LayerCount: 2
Fore
SplineSet
184 762 m 0
 139 762 102 797 102 843 c 0
 102 887 139 922 184 922 c 0
 231 922 267 887 267 843 c 0
 267 797 231 762 184 762 c 0
416 762 m 0
 371 762 333 797 333 843 c 0
 333 887 371 922 416 922 c 0
 462 922 498 887 498 843 c 0
 498 797 462 762 416 762 c 0
400 150 m 1
 197 150 l 1
 161 0 l 1
 -11 0 l 1
 201 693 l 1
 400 693 l 1
 612 0 l 1
 436 0 l 1
 400 150 l 1
223 268 m 1
 373 268 l 1
 298 575 l 1
 223 268 l 1
EndSplineSet
Validated: 1
EndChar

StartChar: Agrave
Encoding: 192 192 7
Width: 600
GlyphClass: 2
Flags: W
HStem: 0 21G<-11 165.8 431.2 612> 150 118<223 373> 673 20G<194.882 406.118> 751 21G<343.333 409.25>
LayerCount: 2
Fore
SplineSet
222 953 m 1
 437 831 l 1
 400 751 l 1
 162 835 l 1
 222 953 l 1
400 150 m 1
 197 150 l 1
 161 0 l 1
 -11 0 l 1
 201 693 l 1
 400 693 l 1
 612 0 l 1
 436 0 l 1
 400 150 l 1
223 268 m 1
 373 268 l 1
 298 575 l 1
 223 268 l 1
EndSplineSet
Validated: 1
EndChar

StartChar: Amacron
Encoding: 256 256 8
Width: 600
GlyphClass: 2
Flags: W
HStem: 0 21G<-11 165.8 431.2 612> 150 118<223 373> 673 20G<194.882 406.118> 783 109<147 453>
LayerCount: 2
Fore
SplineSet
453 783 m 1
 147 783 l 1
 147 892 l 1
 453 892 l 1
 453 783 l 1
400 150 m 1
 197 150 l 1
 161 0 l 1
 -11 0 l 1
 201 693 l 1
 400 693 l 1
 612 0 l 1
 436 0 l 1
 400 150 l 1
223 268 m 1
 373 268 l 1
 298 575 l 1
 223 268 l 1
EndSplineSet
Validated: 1
EndChar

StartChar: Aogonek
Encoding: 260 260 9
Width: 600
GlyphClass: 2
Flags: W
HStem: -253 94<426.574 518.435> 0 21G<-11 165.8> 150 118<223 373> 673 20G<194.882 406.118>
VStem: 308 110<-149.126 -53.2978>
LayerCount: 2
Fore
SplineSet
533 0 m 1
 440 -32 418 -69 418 -110 c 0
 418 -143 441 -159 476 -159 c 0
 497 -159 513 -156 530 -152 c 1
 518 -245 l 1
 500 -250 482 -253 459 -253 c 0
 374 -253 308 -209 308 -130 c 0
 308 -52 358 -9 431 22 c 1
 400 150 l 1
 197 150 l 1
 161 0 l 1
 -11 0 l 1
 201 693 l 1
 400 693 l 1
 612 0 l 1
 533 0 l 1
223 268 m 1
 373 268 l 1
 298 575 l 1
 223 268 l 1
EndSplineSet
Validated: 1
EndChar

StartChar: Aring
Encoding: 197 197 10
Width: 600
GlyphClass: 2
Flags: W
HStem: 0 21G<-11 165.8 431.2 612> 150 118<223 373> 673 20G<194.882 406.118> 726 82<261.277 337.402> 908 82<261.02 337.662>
VStem: 161 94<813.872 902.949> 344 94<813.872 901.452>
LayerCount: 2
Fore
SplineSet
299 990 m 0
 385 990 438 929 438 859 c 0
 438 788 385 726 299 726 c 0
 214 726 161 788 161 859 c 0
 161 929 214 990 299 990 c 0
299 908 m 0
 273 908 255 892 255 859 c 0
 255 825 273 808 299 808 c 0
 326 808 344 825 344 859 c 0
 344 892 326 908 299 908 c 0
400 150 m 1
 197 150 l 1
 161 0 l 1
 -11 0 l 1
 201 693 l 1
 400 693 l 1
 612 0 l 1
 436 0 l 1
 400 150 l 1
223 268 m 1
 373 268 l 1
 298 575 l 1
 223 268 l 1
EndSplineSet
Validated: 1
EndChar

StartChar: Atilde
Encoding: 195 195 11
Width: 600
GlyphClass: 2
Flags: W
HStem: 0 21G<-11 165.8 431.2 612> 150 118<223 373> 673 20G<194.882 406.118> 760 112<308.671 392.817> 805 112<203.347 288.014>
LayerCount: 2
Fore
SplineSet
356 760 m 0xf0
 298 760 275 805 242 805 c 0
 217 805 205 790 189 761 c 1
 110 799 l 1
 135 863 178 917 239 917 c 0xe8
 300 917 321 872 355 872 c 0
 377 872 390 886 407 915 c 1
 486 877 l 1
 460 810 416 760 356 760 c 0xf0
400 150 m 1
 197 150 l 1
 161 0 l 1
 -11 0 l 1
 201 693 l 1
 400 693 l 1
 612 0 l 1
 436 0 l 1
 400 150 l 1
223 268 m 1
 373 268 l 1
 298 575 l 1
 223 268 l 1
EndSplineSet
Validated: 1
EndChar

StartChar: AE
Encoding: 198 198 12
Width: 600
GlyphClass: 2
Flags: W
HStem: 0 111<455 603> 153 112<191 296> 296 110<419 556> 582 111<366 548>
LayerCount: 2
Fore
SplineSet
313 153 m 1
 173 153 l 1
 145 0 l 1
 -12 0 l 1
 163 693 l 1
 565 693 l 1
 548 582 l 1
 366 582 l 1
 399 406 l 1
 556 406 l 1
 556 296 l 1
 419 296 l 1
 455 111 l 1
 603 111 l 1
 603 0 l 1
 338 0 l 1
 313 153 l 1
191 265 m 1
 296 265 l 1
 245 583 l 1
 191 265 l 1
EndSplineSet
Validated: 1
EndChar

StartChar: AEacute
Encoding: 508 508 13
Width: 600
GlyphClass: 2
Flags: W
HStem: 0 111<455 603> 153 112<191 296> 296 110<419 556> 582 111<366 548> 751 21G<241.5 307.429>
LayerCount: 2
Fore
SplineSet
429 953 m 1
 488 835 l 1
 251 751 l 1
 213 831 l 1
 429 953 l 1
313 153 m 1
 173 153 l 1
 145 0 l 1
 -12 0 l 1
 163 693 l 1
 565 693 l 1
 548 582 l 1
 366 582 l 1
 399 406 l 1
 556 406 l 1
 556 296 l 1
 419 296 l 1
 455 111 l 1
 603 111 l 1
 603 0 l 1
 338 0 l 1
 313 153 l 1
191 265 m 1
 296 265 l 1
 245 583 l 1
 191 265 l 1
EndSplineSet
Validated: 1
EndChar

StartChar: B
Encoding: 66 66 14
Width: 600
GlyphClass: 2
Flags: W
HStem: 0 120<220 368.002> 306 110<220 353.748> 577 116<220 353.186>
VStem: 56 164<120 306 416 577> 376 165<438.981 553.225> 402 169<148.232 274.68>
LayerCount: 2
Fore
SplineSet
571 203 m 0xf4
 571 43 436 0 286 0 c 2
 56 0 l 1
 56 693 l 1
 276 693 l 2
 418 693 541 651 541 516 c 0xf8
 541 433 482 384 414 367 c 1
 488 355 571 314 571 203 c 0xf4
376 499 m 0
 376 554 343 577 270 577 c 2
 220 577 l 1
 220 416 l 1
 276 416 l 2
 346 416 376 441 376 499 c 0
402 210 m 0xf4
 402 282 357 306 287 306 c 2
 220 306 l 1
 220 120 l 1
 280 120 l 2
 345 120 402 134 402 210 c 0xf4
EndSplineSet
Validated: 1
EndChar

StartChar: C
Encoding: 67 67 15
Width: 600
GlyphClass: 2
Flags: W
HStem: -17 127<286.875 455.516> 538 21G<481 516.495> 589 122<288.949 453.566>
VStem: 34 170<212.82 484.897>
LayerCount: 2
Fore
SplineSet
358 711 m 0
 458 711 522 683 580 635 c 1
 500 538 l 1
 462 569 416 589 362 589 c 0
 274 589 204 518 204 348 c 0
 204 181 270 110 365 110 c 0
 434 110 476 141 515 172 c 1
 589 77 l 1
 538 25 463 -17 356 -17 c 0
 168 -17 34 110 34 348 c 0
 34 580 175 711 358 711 c 0
EndSplineSet
Validated: 1
EndChar

StartChar: Cacute
Encoding: 262 262 16
Width: 600
GlyphClass: 2
Flags: W
HStem: -17 127<286.875 455.516> 538 21G<481 516.495> 589 122<288.949 453.566> 751 21G<251.5 317.429>
VStem: 34 170<212.82 484.897>
LayerCount: 2
Fore
SplineSet
439 953 m 1
 498 835 l 1
 261 751 l 1
 223 831 l 1
 439 953 l 1
358 711 m 0
 458 711 522 683 580 635 c 1
 500 538 l 1
 462 569 416 589 362 589 c 0
 274 589 204 518 204 348 c 0
 204 181 270 110 365 110 c 0
 434 110 476 141 515 172 c 1
 589 77 l 1
 538 25 463 -17 356 -17 c 0
 168 -17 34 110 34 348 c 0
 34 580 175 711 358 711 c 0
EndSplineSet
Validated: 1
EndChar

StartChar: Ccaron
Encoding: 268 268 17
Width: 600
GlyphClass: 2
Flags: W
HStem: -17 127<286.875 455.516> 538 21G<481 516.495> 589 122<288.949 453.566> 751 21G<291.154 430.692>
VStem: 34 170<212.82 484.897>
LayerCount: 2
Fore
SplineSet
494 946 m 1
 550 881 l 1
 409 751 l 1
 313 751 l 1
 171 881 l 1
 228 946 l 1
 361 861 l 1
 494 946 l 1
358 711 m 0
 458 711 522 683 580 635 c 1
 500 538 l 1
 462 569 416 589 362 589 c 0
 274 589 204 518 204 348 c 0
 204 181 270 110 365 110 c 0
 434 110 476 141 515 172 c 1
 589 77 l 1
 538 25 463 -17 356 -17 c 0
 168 -17 34 110 34 348 c 0
 34 580 175 711 358 711 c 0
EndSplineSet
Validated: 1
EndChar

StartChar: Ccedilla
Encoding: 199 199 18
Width: 600
GlyphClass: 2
Flags: W
HStem: -262 86<246.587 369.371> -11 121<270 291 382 454.432> 538 21G<481 516.495> 589 122<288.949 453.566>
VStem: 34 170<212.009 484.897> 372 113<-171.693 -119.976>
LayerCount: 2
Fore
SplineSet
382 -48 m 1
 452 -56 485 -93 485 -147 c 0
 485 -215 426 -262 336 -262 c 0
 288 -262 246 -248 219 -232 c 1
 255 -159 l 1
 275 -169 297 -176 319 -176 c 0
 351 -176 372 -168 372 -145 c 0
 372 -119 341 -112 280 -112 c 1
 291 -11 l 1
 138 15 34 139 34 348 c 0
 34 580 175 711 358 711 c 0
 458 711 522 683 580 635 c 1
 500 538 l 1
 462 569 416 589 362 589 c 0
 274 589 204 518 204 348 c 0
 204 181 270 110 365 110 c 0
 434 110 476 141 515 172 c 1
 589 77 l 1
 542 29 475 -10 382 -16 c 1
 382 -48 l 1
EndSplineSet
Validated: 1
EndChar

StartChar: Ccircumflex
Encoding: 264 264 19
Width: 600
GlyphClass: 2
Flags: W
HStem: -17 127<286.875 455.516> 538 21G<481 516.495> 589 122<288.949 453.566> 748 21G<210.462 259.294 462.706 511.231>
VStem: 34 170<212.82 484.897>
LayerCount: 2
Fore
SplineSet
409 943 m 1
 550 813 l 1
 494 748 l 1
 361 833 l 1
 228 748 l 1
 171 813 l 1
 313 943 l 1
 409 943 l 1
358 711 m 0
 458 711 522 683 580 635 c 1
 500 538 l 1
 462 569 416 589 362 589 c 0
 274 589 204 518 204 348 c 0
 204 181 270 110 365 110 c 0
 434 110 476 141 515 172 c 1
 589 77 l 1
 538 25 463 -17 356 -17 c 0
 168 -17 34 110 34 348 c 0
 34 580 175 711 358 711 c 0
EndSplineSet
Validated: 1
EndChar

StartChar: Cdotaccent
Encoding: 266 266 20
Width: 600
GlyphClass: 2
Flags: W
HStem: -17 127<286.875 455.516> 538 21G<481 516.495> 589 122<288.949 453.566> 756 178<298.23 423.34>
VStem: 34 170<212.82 484.897> 267 187<786.005 903.588>
LayerCount: 2
Fore
SplineSet
361 934 m 0
 416 934 454 895 454 845 c 0
 454 794 416 756 361 756 c 0
 306 756 267 794 267 845 c 0
 267 895 306 934 361 934 c 0
358 711 m 0
 458 711 522 683 580 635 c 1
 500 538 l 1
 462 569 416 589 362 589 c 0
 274 589 204 518 204 348 c 0
 204 181 270 110 365 110 c 0
 434 110 476 141 515 172 c 1
 589 77 l 1
 538 25 463 -17 356 -17 c 0
 168 -17 34 110 34 348 c 0
 34 580 175 711 358 711 c 0
EndSplineSet
Validated: 1
EndChar

StartChar: D
Encoding: 68 68 21
Width: 600
GlyphClass: 2
Flags: W
HStem: 0 119<216 333.496> 574 119<216 333.014>
VStem: 52 164<119 574> 405 169<204.735 490.836>
LayerCount: 2
Fore
SplineSet
574 350 m 0
 574 68 411 0 239 0 c 2
 52 0 l 1
 52 693 l 1
 227 693 l 2
 405 693 574 636 574 350 c 0
405 350 m 0
 405 536 338 574 251 574 c 2
 216 574 l 1
 216 119 l 1
 251 119 l 2
 342 119 405 168 405 350 c 0
EndSplineSet
Validated: 1
EndChar

StartChar: Eth
Encoding: 208 208 22
Width: 600
GlyphClass: 2
Flags: W
HStem: 0 119<229 346.223> 303 100<9 65 229 349> 574 119<229 346.014>
VStem: 65 164<119 303 403 574> 417 170<204.735 490.836>
LayerCount: 2
Fore
SplineSet
240 693 m 2
 418 693 587 636 587 350 c 0
 587 68 424 0 252 0 c 2
 65 0 l 1
 65 303 l 1
 9 303 l 1
 9 403 l 1
 65 403 l 1
 65 693 l 1
 240 693 l 2
264 119 m 2
 355 119 417 168 417 350 c 0
 417 536 351 574 264 574 c 2
 229 574 l 1
 229 403 l 1
 349 403 l 1
 349 303 l 1
 229 303 l 1
 229 119 l 1
 264 119 l 2
EndSplineSet
Validated: 1
EndChar

StartChar: Dcaron
Encoding: 270 270 23
Width: 600
GlyphClass: 2
Flags: W
HStem: 0 119<216 333.496> 574 119<216 333.014> 751 21G<217.154 356.692>
VStem: 52 164<119 574> 405 169<204.735 490.836>
LayerCount: 2
Fore
SplineSet
420 946 m 1
 476 881 l 1
 335 751 l 1
 239 751 l 1
 97 881 l 1
 154 946 l 1
 287 861 l 1
 420 946 l 1
574 350 m 0
 574 68 411 0 239 0 c 2
 52 0 l 1
 52 693 l 1
 227 693 l 2
 405 693 574 636 574 350 c 0
405 350 m 0
 405 536 338 574 251 574 c 2
 216 574 l 1
 216 119 l 1
 251 119 l 2
 342 119 405 168 405 350 c 0
EndSplineSet
Validated: 1
EndChar

StartChar: Dcroat
Encoding: 272 272 24
Width: 600
GlyphClass: 2
Flags: W
HStem: 0 119<229 346.223> 303 100<9 65 229 349> 574 119<229 346.014>
VStem: 65 164<119 303 403 574> 417 170<204.735 490.836>
LayerCount: 2
Fore
SplineSet
240 693 m 2
 418 693 587 636 587 350 c 0
 587 68 424 0 252 0 c 2
 65 0 l 1
 65 303 l 1
 9 303 l 1
 9 403 l 1
 65 403 l 1
 65 693 l 1
 240 693 l 2
264 119 m 2
 355 119 417 168 417 350 c 0
 417 536 351 574 264 574 c 2
 229 574 l 1
 229 403 l 1
 349 403 l 1
 349 303 l 1
 229 303 l 1
 229 119 l 1
 264 119 l 2
EndSplineSet
Validated: 1
EndChar

StartChar: E
Encoding: 69 69 25
Width: 600
GlyphClass: 2
Flags: W
HStem: 0 118<257 546> 295 114<257 497> 576 117<257 529>
VStem: 93 164<118 295 409 576>
LayerCount: 2
Fore
SplineSet
257 576 m 1
 257 409 l 1
 497 409 l 1
 497 295 l 1
 257 295 l 1
 257 118 l 1
 546 118 l 1
 546 0 l 1
 93 0 l 1
 93 693 l 1
 546 693 l 1
 529 576 l 1
 257 576 l 1
EndSplineSet
Validated: 1
EndChar

StartChar: Eacute
Encoding: 201 201 26
Width: 600
GlyphClass: 2
Flags: W
HStem: 0 118<257 546> 295 114<257 497> 576 117<257 529> 751 21G<210.5 276.429>
VStem: 93 164<118 295 409 576>
LayerCount: 2
Fore
SplineSet
398 953 m 1
 457 835 l 1
 220 751 l 1
 182 831 l 1
 398 953 l 1
257 576 m 1
 257 409 l 1
 497 409 l 1
 497 295 l 1
 257 295 l 1
 257 118 l 1
 546 118 l 1
 546 0 l 1
 93 0 l 1
 93 693 l 1
 546 693 l 1
 529 576 l 1
 257 576 l 1
EndSplineSet
Validated: 1
EndChar

StartChar: Ebreve
Encoding: 276 276 27
Width: 600
GlyphClass: 2
Flags: W
HStem: 0 118<257 546> 295 114<257 497> 576 117<257 529> 751 110<258.308 381.741>
VStem: 93 164<118 295 409 576>
LayerCount: 2
Fore
SplineSet
320 751 m 0
 210 751 158 820 148 905 c 1
 235 921 l 1
 248 879 274 861 320 861 c 0
 366 861 392 879 405 921 c 1
 492 905 l 1
 483 820 430 751 320 751 c 0
257 576 m 1
 257 409 l 1
 497 409 l 1
 497 295 l 1
 257 295 l 1
 257 118 l 1
 546 118 l 1
 546 0 l 1
 93 0 l 1
 93 693 l 1
 546 693 l 1
 529 576 l 1
 257 576 l 1
EndSplineSet
Validated: 1
EndChar

StartChar: Ecaron
Encoding: 282 282 28
Width: 600
GlyphClass: 2
Flags: W
HStem: 0 118<257 546> 295 114<257 497> 576 117<257 529> 751 21G<250.154 389.692>
VStem: 93 164<118 295 409 576>
LayerCount: 2
Fore
SplineSet
453 946 m 1
 509 881 l 1
 368 751 l 1
 272 751 l 1
 130 881 l 1
 187 946 l 1
 320 861 l 1
 453 946 l 1
257 576 m 1
 257 409 l 1
 497 409 l 1
 497 295 l 1
 257 295 l 1
 257 118 l 1
 546 118 l 1
 546 0 l 1
 93 0 l 1
 93 693 l 1
 546 693 l 1
 529 576 l 1
 257 576 l 1
EndSplineSet
Validated: 1
EndChar

StartChar: Ecircumflex
Encoding: 202 202 29
Width: 600
GlyphClass: 2
Flags: W
HStem: 0 118<257 546> 295 114<257 497> 576 117<257 529> 748 21G<169.462 218.294 421.706 470.231>
VStem: 93 164<118 295 409 576>
LayerCount: 2
Fore
SplineSet
368 943 m 1
 509 813 l 1
 453 748 l 1
 320 833 l 1
 187 748 l 1
 130 813 l 1
 272 943 l 1
 368 943 l 1
257 576 m 1
 257 409 l 1
 497 409 l 1
 497 295 l 1
 257 295 l 1
 257 118 l 1
 546 118 l 1
 546 0 l 1
 93 0 l 1
 93 693 l 1
 546 693 l 1
 529 576 l 1
 257 576 l 1
EndSplineSet
Validated: 1
EndChar

StartChar: Edieresis
Encoding: 203 203 30
Width: 600
GlyphClass: 2
Flags: W
HStem: 0 118<257 546> 295 114<257 497> 576 117<257 529> 762 160<147.536 261.713 379.059 492.85>
VStem: 93 164<118 295 409 576> 122 165<788.035 896.264> 353 165<788.035 896.264>
LayerCount: 2
Fore
SplineSet
204 762 m 0xf6
 159 762 122 797 122 843 c 0
 122 887 159 922 204 922 c 0
 251 922 287 887 287 843 c 0
 287 797 251 762 204 762 c 0xf6
436 762 m 0
 391 762 353 797 353 843 c 0
 353 887 391 922 436 922 c 0
 482 922 518 887 518 843 c 0
 518 797 482 762 436 762 c 0
257 576 m 1xfa
 257 409 l 1
 497 409 l 1
 497 295 l 1
 257 295 l 1
 257 118 l 1
 546 118 l 1
 546 0 l 1
 93 0 l 1
 93 693 l 1
 546 693 l 1
 529 576 l 1
 257 576 l 1xfa
EndSplineSet
Validated: 1
EndChar

StartChar: Edotaccent
Encoding: 278 278 31
Width: 600
GlyphClass: 2
Flags: W
HStem: 0 118<257 546> 295 114<257 497> 576 117<257 529> 756 178<257.23 382.34>
VStem: 93 164<118 295 409 576> 226 187<786.005 903.588>
LayerCount: 2
Fore
SplineSet
320 934 m 0xf4
 375 934 413 895 413 845 c 0
 413 794 375 756 320 756 c 0
 265 756 226 794 226 845 c 0
 226 895 265 934 320 934 c 0xf4
257 576 m 1xf8
 257 409 l 1
 497 409 l 1
 497 295 l 1
 257 295 l 1
 257 118 l 1
 546 118 l 1
 546 0 l 1
 93 0 l 1
 93 693 l 1
 546 693 l 1
 529 576 l 1
 257 576 l 1xf8
EndSplineSet
Validated: 1
EndChar

StartChar: Egrave
Encoding: 200 200 32
Width: 600
GlyphClass: 2
Flags: W
HStem: 0 118<257 546> 295 114<257 497> 576 117<257 529> 751 21G<363.333 429.25>
VStem: 93 164<118 295 409 576>
LayerCount: 2
Fore
SplineSet
242 953 m 1
 457 831 l 1
 420 751 l 1
 182 835 l 1
 242 953 l 1
257 576 m 1
 257 409 l 1
 497 409 l 1
 497 295 l 1
 257 295 l 1
 257 118 l 1
 546 118 l 1
 546 0 l 1
 93 0 l 1
 93 693 l 1
 546 693 l 1
 529 576 l 1
 257 576 l 1
EndSplineSet
Validated: 1
EndChar

StartChar: Emacron
Encoding: 274 274 33
Width: 600
GlyphClass: 2
Flags: W
HStem: 0 118<257 546> 295 114<257 497> 576 117<257 529> 783 109<167 473>
VStem: 93 164<118 295 409 576>
LayerCount: 2
Fore
SplineSet
473 783 m 1
 167 783 l 1
 167 892 l 1
 473 892 l 1
 473 783 l 1
257 576 m 1
 257 409 l 1
 497 409 l 1
 497 295 l 1
 257 295 l 1
 257 118 l 1
 546 118 l 1
 546 0 l 1
 93 0 l 1
 93 693 l 1
 546 693 l 1
 529 576 l 1
 257 576 l 1
EndSplineSet
Validated: 1
EndChar

StartChar: Eogonek
Encoding: 280 280 34
Width: 600
GlyphClass: 2
Flags: W
HStem: -253 94<360.574 452.435> 0 118<257 322 415.648 546> 295 114<257 497> 576 117<257 529>
VStem: 93 164<118 295 409 576> 242 110<-149.126 -53.1755>
LayerCount: 2
Fore
SplineSet
257 118 m 1xf8
 546 118 l 1
 546 0 l 1
 467 0 l 1
 374 -32 352 -69 352 -110 c 0
 352 -143 375 -159 410 -159 c 0
 431 -159 447 -156 464 -152 c 1
 452 -245 l 1
 434 -250 416 -253 393 -253 c 0
 308 -253 242 -209 242 -130 c 0xf4
 242 -69 273 -29 322 0 c 1
 93 0 l 1
 93 693 l 1
 546 693 l 1
 529 576 l 1
 257 576 l 1
 257 409 l 1
 497 409 l 1
 497 295 l 1
 257 295 l 1
 257 118 l 1xf8
EndSplineSet
Validated: 1
EndChar

StartChar: F
Encoding: 70 70 35
Width: 600
GlyphClass: 2
Flags: W
HStem: 0 21G<108 273> 275 118<273 515> 576 117<273 547>
VStem: 108 165<0 275 393 576>
LayerCount: 2
Fore
SplineSet
273 576 m 1
 273 393 l 1
 515 393 l 1
 515 275 l 1
 273 275 l 1
 273 0 l 1
 108 0 l 1
 108 693 l 1
 563 693 l 1
 547 576 l 1
 273 576 l 1
EndSplineSet
Validated: 1
EndChar

StartChar: G
Encoding: 71 71 36
Width: 600
GlyphClass: 2
Flags: W
HStem: -17 120<255.671 410.776> 283 114<326 413> 536 21G<458 498.326> 591 120<276.745 433.414>
VStem: 23 169<187.878 486.465> 413 155<114.285 283>
LayerCount: 2
Fore
SplineSet
326 -17 m 0
 129 -17 23 110 23 348 c 0
 23 584 165 711 345 711 c 0
 445 711 511 676 565 625 c 1
 479 536 l 1
 437 573 402 591 353 591 c 0
 259 591 192 521 192 347 c 0
 192 165 235 103 327 103 c 0
 359 103 389 111 413 124 c 1
 413 283 l 1
 326 283 l 1
 310 397 l 1
 568 397 l 1
 568 53 l 1
 498 10 420 -17 326 -17 c 0
EndSplineSet
Validated: 1
EndChar

StartChar: Gbreve
Encoding: 286 286 37
Width: 600
GlyphClass: 2
Flags: W
HStem: -17 120<255.671 410.776> 283 114<326 413> 536 21G<458 498.326> 591 120<276.745 433.414> 751 110<268.308 391.741>
VStem: 23 169<187.878 486.465> 413 155<114.285 283>
LayerCount: 2
Fore
SplineSet
330 751 m 0
 220 751 168 820 158 905 c 1
 245 921 l 1
 258 879 284 861 330 861 c 0
 376 861 402 879 415 921 c 1
 502 905 l 1
 493 820 440 751 330 751 c 0
326 -17 m 0
 129 -17 23 110 23 348 c 0
 23 584 165 711 345 711 c 0
 445 711 511 676 565 625 c 1
 479 536 l 1
 437 573 402 591 353 591 c 0
 259 591 192 521 192 347 c 0
 192 165 235 103 327 103 c 0
 359 103 389 111 413 124 c 1
 413 283 l 1
 326 283 l 1
 310 397 l 1
 568 397 l 1
 568 53 l 1
 498 10 420 -17 326 -17 c 0
EndSplineSet
Validated: 1
EndChar

StartChar: Gcircumflex
Encoding: 284 284 38
Width: 600
GlyphClass: 2
Flags: W
HStem: -17 120<255.671 410.776> 283 114<326 413> 536 21G<458 498.326> 591 120<276.745 433.414> 748 21G<179.462 228.294 431.706 480.231>
VStem: 23 169<187.878 486.465> 413 155<114.285 283>
LayerCount: 2
Fore
SplineSet
378 943 m 1
 519 813 l 1
 463 748 l 1
 330 833 l 1
 197 748 l 1
 140 813 l 1
 282 943 l 1
 378 943 l 1
326 -17 m 0
 129 -17 23 110 23 348 c 0
 23 584 165 711 345 711 c 0
 445 711 511 676 565 625 c 1
 479 536 l 1
 437 573 402 591 353 591 c 0
 259 591 192 521 192 347 c 0
 192 165 235 103 327 103 c 0
 359 103 389 111 413 124 c 1
 413 283 l 1
 326 283 l 1
 310 397 l 1
 568 397 l 1
 568 53 l 1
 498 10 420 -17 326 -17 c 0
EndSplineSet
Validated: 1
EndChar

StartChar: Gcommaaccent
Encoding: 290 290 39
Width: 600
GlyphClass: 2
Flags: W
HStem: -17 120<255.671 410.776> 283 114<326 413> 536 21G<458 498.326> 591 120<276.745 433.414>
VStem: 23 169<187.878 486.465> 248 157<-197.108 -89.2149> 413 155<114.285 283>
LayerCount: 2
Fore
SplineSet
326 -17 m 0
 129 -17 23 110 23 348 c 0
 23 584 165 711 345 711 c 0
 445 711 511 676 565 625 c 1
 479 536 l 1
 437 573 402 591 353 591 c 0
 259 591 192 521 192 347 c 0
 192 165 235 103 327 103 c 0
 359 103 389 111 413 124 c 1
 413 283 l 1
 326 283 l 1
 310 397 l 1
 568 397 l 1
 568 53 l 1
 498 10 420 -17 326 -17 c 0
327 -65 m 0
 372 -65 405 -98 405 -143 c 0
 405 -166 397 -195 382 -225 c 2
 333 -322 l 1
 253 -322 l 1
 280 -207 l 1
 262 -192 248 -171 248 -143 c 0
 248 -100 281 -65 327 -65 c 0
EndSplineSet
Validated: 1
EndChar

StartChar: Gdotaccent
Encoding: 288 288 40
Width: 600
GlyphClass: 2
Flags: W
HStem: -17 120<255.671 410.776> 283 114<326 413> 536 21G<458 498.326> 591 120<276.745 433.414> 756 178<267.23 392.34>
VStem: 23 169<187.878 486.465> 236 187<786.005 903.588> 413 155<114.285 283>
LayerCount: 2
Fore
SplineSet
330 934 m 0xfe
 385 934 423 895 423 845 c 0
 423 794 385 756 330 756 c 0
 275 756 236 794 236 845 c 0
 236 895 275 934 330 934 c 0xfe
326 -17 m 0
 129 -17 23 110 23 348 c 0
 23 584 165 711 345 711 c 0
 445 711 511 676 565 625 c 1
 479 536 l 1
 437 573 402 591 353 591 c 0
 259 591 192 521 192 347 c 0
 192 165 235 103 327 103 c 0
 359 103 389 111 413 124 c 1
 413 283 l 1
 326 283 l 1
 310 397 l 1
 568 397 l 1
 568 53 l 1xfd
 498 10 420 -17 326 -17 c 0
EndSplineSet
Validated: 1
EndChar

StartChar: H
Encoding: 72 72 41
Width: 600
GlyphClass: 2
Flags: W
HStem: 0 21G<52 216 384 548> 292 135<216 384> 673 20G<52 216 384 548>
VStem: 52 164<0 292 427 693> 384 164<0 292 427 693>
LayerCount: 2
Fore
SplineSet
384 0 m 1
 384 292 l 1
 216 292 l 1
 216 0 l 1
 52 0 l 1
 52 693 l 1
 216 693 l 1
 216 427 l 1
 384 427 l 1
 384 693 l 1
 548 693 l 1
 548 0 l 1
 384 0 l 1
EndSplineSet
Validated: 1
EndChar

StartChar: Hbar
Encoding: 294 294 42
Width: 600
GlyphClass: 2
Flags: W
HStem: 0 21G<57 221 379 543> 297 127<221 379> 500 92<2 57 221 379 543 598> 673 20G<57 221 379 543>
VStem: 57 164<0 297 424 500 592 693> 379 164<0 297 424 500 592 693>
LayerCount: 2
Fore
SplineSet
598 592 m 1
 598 500 l 1
 543 500 l 1
 543 0 l 1
 379 0 l 1
 379 297 l 1
 221 297 l 1
 221 0 l 1
 57 0 l 1
 57 500 l 1
 2 500 l 1
 2 592 l 1
 57 592 l 1
 57 693 l 1
 221 693 l 1
 221 592 l 1
 379 592 l 1
 379 693 l 1
 543 693 l 1
 543 592 l 1
 598 592 l 1
379 424 m 1
 379 500 l 1
 221 500 l 1
 221 424 l 1
 379 424 l 1
EndSplineSet
Validated: 1
EndChar

StartChar: Hcircumflex
Encoding: 292 292 43
Width: 600
GlyphClass: 2
Flags: W
HStem: 0 21G<52 216 384 548> 292 135<216 384> 673 20G<52 216 384 548> 748 21G<149.462 198.294 401.706 450.231>
VStem: 52 164<0 292 427 693> 384 164<0 292 427 693>
LayerCount: 2
Fore
SplineSet
348 943 m 1
 489 813 l 1
 433 748 l 1
 300 833 l 1
 167 748 l 1
 110 813 l 1
 252 943 l 1
 348 943 l 1
384 0 m 1
 384 292 l 1
 216 292 l 1
 216 0 l 1
 52 0 l 1
 52 693 l 1
 216 693 l 1
 216 427 l 1
 384 427 l 1
 384 693 l 1
 548 693 l 1
 548 0 l 1
 384 0 l 1
EndSplineSet
Validated: 1
EndChar

StartChar: I
Encoding: 73 73 44
Width: 600
GlyphClass: 2
Flags: W
HStem: 0 121<75 218 382 525> 573 120<75 218 382 525>
VStem: 218 164<121 573>
LayerCount: 2
Fore
SplineSet
525 693 m 1
 525 573 l 1
 382 573 l 1
 382 121 l 1
 525 121 l 1
 525 0 l 1
 75 0 l 1
 75 121 l 1
 218 121 l 1
 218 573 l 1
 75 573 l 1
 75 693 l 1
 525 693 l 1
EndSplineSet
Validated: 1
EndChar

StartChar: IJ
Encoding: 306 306 45
Width: 600
GlyphClass: 2
Flags: W
HStem: -183 111<198.802 258.565> 0 102<8 81 232 285> 592 101<8 81 232 398>
VStem: 81 151<102 592> 398 158<41.5781 592>
LayerCount: 2
Fore
SplineSet
181 -72 m 1
 365 -40 398 29 398 164 c 2
 398 592 l 1
 232 592 l 1
 232 102 l 1
 285 102 l 1
 285 0 l 1
 8 0 l 1
 8 102 l 1
 81 102 l 1
 81 592 l 1
 8 592 l 1
 8 693 l 1
 556 693 l 1
 556 170 l 2
 556 -18 463 -140 200 -183 c 1
 181 -72 l 1
EndSplineSet
Validated: 1
EndChar

StartChar: Iacute
Encoding: 205 205 46
Width: 600
GlyphClass: 2
Flags: W
HStem: 0 121<75 218 382 525> 573 120<75 218 382 525> 751 21G<190.5 256.429>
VStem: 218 164<121 573>
LayerCount: 2
Fore
SplineSet
378 953 m 1
 437 835 l 1
 200 751 l 1
 162 831 l 1
 378 953 l 1
525 693 m 1
 525 573 l 1
 382 573 l 1
 382 121 l 1
 525 121 l 1
 525 0 l 1
 75 0 l 1
 75 121 l 1
 218 121 l 1
 218 573 l 1
 75 573 l 1
 75 693 l 1
 525 693 l 1
EndSplineSet
Validated: 1
EndChar

StartChar: Ibreve
Encoding: 300 300 47
Width: 600
GlyphClass: 2
Flags: W
HStem: 0 121<75 218 382 525> 573 120<75 218 382 525> 751 110<238.308 361.741>
VStem: 218 164<121 573>
LayerCount: 2
Fore
SplineSet
300 751 m 0
 190 751 138 820 128 905 c 1
 215 921 l 1
 228 879 254 861 300 861 c 0
 346 861 372 879 385 921 c 1
 472 905 l 1
 463 820 410 751 300 751 c 0
525 693 m 1
 525 573 l 1
 382 573 l 1
 382 121 l 1
 525 121 l 1
 525 0 l 1
 75 0 l 1
 75 121 l 1
 218 121 l 1
 218 573 l 1
 75 573 l 1
 75 693 l 1
 525 693 l 1
EndSplineSet
Validated: 1
EndChar

StartChar: Icircumflex
Encoding: 206 206 48
Width: 600
GlyphClass: 2
Flags: W
HStem: 0 121<75 218 382 525> 573 120<75 218 382 525> 748 21G<149.462 198.294 401.706 450.231>
VStem: 218 164<121 573>
LayerCount: 2
Fore
SplineSet
348 943 m 1
 489 813 l 1
 433 748 l 1
 300 833 l 1
 167 748 l 1
 110 813 l 1
 252 943 l 1
 348 943 l 1
525 693 m 1
 525 573 l 1
 382 573 l 1
 382 121 l 1
 525 121 l 1
 525 0 l 1
 75 0 l 1
 75 121 l 1
 218 121 l 1
 218 573 l 1
 75 573 l 1
 75 693 l 1
 525 693 l 1
EndSplineSet
Validated: 1
EndChar

StartChar: Idieresis
Encoding: 207 207 49
Width: 600
GlyphClass: 2
Flags: W
HStem: 0 121<75 218 382 525> 573 120<75 218 382 525> 762 160<127.536 241.713 359.059 472.85>
VStem: 102 165<788.035 896.264> 218 164<121 573> 333 165<788.035 896.264>
LayerCount: 2
Fore
SplineSet
184 762 m 0xf0
 139 762 102 797 102 843 c 0
 102 887 139 922 184 922 c 0
 231 922 267 887 267 843 c 0
 267 797 231 762 184 762 c 0xf0
416 762 m 0
 371 762 333 797 333 843 c 0
 333 887 371 922 416 922 c 0
 462 922 498 887 498 843 c 0xe4
 498 797 462 762 416 762 c 0
525 693 m 1
 525 573 l 1
 382 573 l 1
 382 121 l 1
 525 121 l 1
 525 0 l 1
 75 0 l 1
 75 121 l 1
 218 121 l 1
 218 573 l 1xe8
 75 573 l 1
 75 693 l 1
 525 693 l 1
EndSplineSet
Validated: 1
EndChar

StartChar: Idotaccent
Encoding: 304 304 50
Width: 600
GlyphClass: 2
Flags: W
HStem: 0 121<75 218 382 525> 573 120<75 218 382 525> 756 178<237.23 362.34>
VStem: 206 187<786.005 903.588> 218 164<121 573>
LayerCount: 2
Fore
SplineSet
300 934 m 0xf0
 355 934 393 895 393 845 c 0
 393 794 355 756 300 756 c 0
 245 756 206 794 206 845 c 0
 206 895 245 934 300 934 c 0xf0
525 693 m 1
 525 573 l 1
 382 573 l 1
 382 121 l 1
 525 121 l 1
 525 0 l 1
 75 0 l 1
 75 121 l 1
 218 121 l 1
 218 573 l 1xe8
 75 573 l 1
 75 693 l 1
 525 693 l 1
EndSplineSet
Validated: 1
EndChar

StartChar: Igrave
Encoding: 204 204 51
Width: 600
GlyphClass: 2
Flags: W
HStem: 0 121<75 218 382 525> 573 120<75 218 382 525> 751 21G<343.333 409.25>
VStem: 218 164<121 573>
LayerCount: 2
Fore
SplineSet
222 953 m 1
 437 831 l 1
 400 751 l 1
 162 835 l 1
 222 953 l 1
525 693 m 1
 525 573 l 1
 382 573 l 1
 382 121 l 1
 525 121 l 1
 525 0 l 1
 75 0 l 1
 75 121 l 1
 218 121 l 1
 218 573 l 1
 75 573 l 1
 75 693 l 1
 525 693 l 1
EndSplineSet
Validated: 1
EndChar

StartChar: Imacron
Encoding: 298 298 52
Width: 600
GlyphClass: 2
Flags: W
HStem: 0 121<75 218 382 525> 573 120<75 218 382 525> 783 109<147 453>
VStem: 218 164<121 573>
LayerCount: 2
Fore
SplineSet
453 783 m 1
 147 783 l 1
 147 892 l 1
 453 892 l 1
 453 783 l 1
525 693 m 1
 525 573 l 1
 382 573 l 1
 382 121 l 1
 525 121 l 1
 525 0 l 1
 75 0 l 1
 75 121 l 1
 218 121 l 1
 218 573 l 1
 75 573 l 1
 75 693 l 1
 525 693 l 1
EndSplineSet
Validated: 1
EndChar

StartChar: Iogonek
Encoding: 302 302 53
Width: 600
GlyphClass: 2
Flags: W
HStem: -253 94<275.574 367.435> 0 121<75 218 382 525> 573 120<75 218 382 525>
VStem: 157 110<-149.126 -53.1755> 218 164<121 573>
LayerCount: 2
Fore
SplineSet
525 573 m 1xe8
 382 573 l 1
 382 121 l 1
 525 121 l 1
 525 0 l 1
 382 0 l 1xe8
 289 -32 267 -69 267 -110 c 0
 267 -143 290 -159 325 -159 c 0
 346 -159 362 -156 379 -152 c 1
 367 -245 l 1
 349 -250 331 -253 308 -253 c 0
 223 -253 157 -209 157 -130 c 0xf0
 157 -69 188 -29 237 0 c 1
 75 0 l 1
 75 121 l 1
 218 121 l 1
 218 573 l 1
 75 573 l 1
 75 693 l 1
 525 693 l 1
 525 573 l 1xe8
EndSplineSet
Validated: 1
EndChar

StartChar: Itilde
Encoding: 296 296 54
Width: 600
GlyphClass: 2
Flags: W
HStem: 0 121<75 218 382 525> 573 120<75 218 382 525> 760 112<308.671 392.817> 805 112<203.347 288.014>
VStem: 218 164<121 573>
LayerCount: 2
Fore
SplineSet
356 760 m 0xe8
 298 760 275 805 242 805 c 0
 217 805 205 790 189 761 c 1
 110 799 l 1
 135 863 178 917 239 917 c 0xd8
 300 917 321 872 355 872 c 0
 377 872 390 886 407 915 c 1
 486 877 l 1
 460 810 416 760 356 760 c 0xe8
525 693 m 1
 525 573 l 1
 382 573 l 1
 382 121 l 1
 525 121 l 1
 525 0 l 1
 75 0 l 1
 75 121 l 1
 218 121 l 1
 218 573 l 1
 75 573 l 1
 75 693 l 1
 525 693 l 1
EndSplineSet
Validated: 1
EndChar

StartChar: J
Encoding: 74 74 55
Width: 600
GlyphClass: 2
Flags: W
HStem: -15 122<139.232 311.124> 573 120<151 363>
VStem: 363 164<164.851 573>
LayerCount: 2
Fore
SplineSet
527 693 m 1
 527 249 l 2
 527 88 425 -15 248 -15 c 0
 159 -15 99 9 39 50 c 1
 101 151 l 1
 149 119 186 107 239 107 c 0
 309 107 363 151 363 248 c 2
 363 573 l 1
 151 573 l 1
 151 693 l 1
 527 693 l 1
EndSplineSet
Validated: 1
EndChar

StartChar: Jcircumflex
Encoding: 308 308 56
Width: 600
GlyphClass: 2
Flags: W
HStem: -15 122<139.232 311.124> 573 120<151 363> 748 21G<201.462 250.294 453.706 502.231>
VStem: 363 164<164.851 573>
LayerCount: 2
Fore
SplineSet
400 943 m 1
 541 813 l 1
 485 748 l 1
 352 833 l 1
 219 748 l 1
 162 813 l 1
 304 943 l 1
 400 943 l 1
527 693 m 1
 527 249 l 2
 527 88 425 -15 248 -15 c 0
 159 -15 99 9 39 50 c 1
 101 151 l 1
 149 119 186 107 239 107 c 0
 309 107 363 151 363 248 c 2
 363 573 l 1
 151 573 l 1
 151 693 l 1
 527 693 l 1
EndSplineSet
Validated: 1
EndChar

StartChar: K
Encoding: 75 75 57
Width: 600
GlyphClass: 2
Flags: W
HStem: 0 21G<59 223 408.676 608> 673 20G<59 223 405.297 589>
VStem: 59 164<0 693>
LayerCount: 2
Fore
SplineSet
223 0 m 1
 59 0 l 1
 59 693 l 1
 223 693 l 1
 223 0 l 1
228 370 m 1
 417 693 l 1
 589 693 l 1
 393 382 l 1
 608 0 l 1
 419 0 l 1
 228 370 l 1
EndSplineSet
Validated: 1
EndChar

StartChar: Kcommaaccent
Encoding: 310 310 58
Width: 600
GlyphClass: 2
Flags: W
HStem: 0 21G<59 223 408.676 608> 673 20G<59 223 405.297 589>
VStem: 59 164<0 693> 223 157<-197.108 -89.2149>
LayerCount: 2
Fore
SplineSet
223 0 m 1xe0
 59 0 l 1
 59 693 l 1
 223 693 l 1
 223 0 l 1xe0
228 370 m 1
 417 693 l 1
 589 693 l 1
 393 382 l 1
 608 0 l 1
 419 0 l 1
 228 370 l 1
302 -65 m 0
 347 -65 380 -98 380 -143 c 0
 380 -166 372 -195 357 -225 c 2
 308 -322 l 1
 228 -322 l 1
 255 -207 l 1
 237 -192 223 -171 223 -143 c 0xd0
 223 -100 256 -65 302 -65 c 0
EndSplineSet
Validated: 1
EndChar

StartChar: L
Encoding: 76 76 59
Width: 600
GlyphClass: 2
Flags: W
HStem: 0 130<257 541> 673 20G<93 257>
VStem: 93 164<130 693>
LayerCount: 2
Fore
SplineSet
93 0 m 1
 93 693 l 1
 257 693 l 1
 257 130 l 1
 557 130 l 1
 541 0 l 1
 93 0 l 1
EndSplineSet
Validated: 1
EndChar

StartChar: Lacute
Encoding: 313 313 60
Width: 600
GlyphClass: 2
Flags: W
HStem: 0 130<257 541> 673 20G<93 257> 751 21G<65.5 131.429>
VStem: 93 164<130 693>
LayerCount: 2
Fore
SplineSet
253 953 m 1
 312 835 l 1
 75 751 l 1
 37 831 l 1
 253 953 l 1
93 0 m 1
 93 693 l 1
 257 693 l 1
 257 130 l 1
 557 130 l 1
 541 0 l 1
 93 0 l 1
EndSplineSet
Validated: 1
EndChar

StartChar: Lcaron
Encoding: 317 317 61
Width: 600
GlyphClass: 2
Flags: W
HStem: 0 130<257 541> 673 20G<93 257>
VStem: 93 164<130 693>
LayerCount: 2
Fore
SplineSet
349 715 m 1
 488 698 l 1
 410 466 l 1
 312 482 l 1
 349 715 l 1
93 0 m 1
 93 693 l 1
 257 693 l 1
 257 130 l 1
 557 130 l 1
 541 0 l 1
 93 0 l 1
EndSplineSet
Validated: 1
EndChar

StartChar: Lcommaaccent
Encoding: 315 315 62
Width: 600
GlyphClass: 2
Flags: W
HStem: 0 130<257 541> 673 20G<93 257>
VStem: 93 164<130 693> 239 157<-197.108 -89.2149>
LayerCount: 2
Fore
SplineSet
93 0 m 1xe0
 93 693 l 1
 257 693 l 1
 257 130 l 1
 557 130 l 1
 541 0 l 1
 93 0 l 1xe0
318 -65 m 0
 363 -65 396 -98 396 -143 c 0
 396 -166 388 -195 373 -225 c 2
 324 -322 l 1
 244 -322 l 1
 271 -207 l 1
 253 -192 239 -171 239 -143 c 0xd0
 239 -100 272 -65 318 -65 c 0
EndSplineSet
Validated: 1
EndChar

StartChar: Ldot
Encoding: 319 319 63
Width: 600
GlyphClass: 2
Flags: W
HStem: 0 130<257 541> 296 178<403.23 528.34> 673 20G<93 257>
VStem: 93 164<130 693> 372 187<326.005 443.588>
LayerCount: 2
Fore
SplineSet
93 0 m 1
 93 693 l 1
 257 693 l 1
 257 130 l 1
 557 130 l 1
 541 0 l 1
 93 0 l 1
466 474 m 0
 521 474 559 435 559 385 c 0
 559 334 521 296 466 296 c 0
 411 296 372 334 372 385 c 0
 372 435 411 474 466 474 c 0
EndSplineSet
Validated: 1
EndChar

StartChar: Lslash
Encoding: 321 321 64
Width: 600
GlyphClass: 2
Flags: W
HStem: 0 130<272 555> 673 20G<108 272>
VStem: 108 164<130 229 451 693>
LayerCount: 2
Fore
SplineSet
272 130 m 1
 572 130 l 1
 555 0 l 1
 108 0 l 1
 108 229 l 1
 62 201 l 1
 9 288 l 1
 108 349 l 1
 108 693 l 1
 272 693 l 1
 272 451 l 1
 396 527 l 1
 450 442 l 1
 272 331 l 1
 272 130 l 1
EndSplineSet
Validated: 1
EndChar

StartChar: M
Encoding: 77 77 65
Width: 600
GlyphClass: 2
Flags: W
HStem: 0 21G<17 158.34 438.461 583> 673 20G<54.8745 228.438 371.741 545.126>
VStem: 17 141<0 124.385> 439 144<0 124.385>
LayerCount: 2
Fore
SplineSet
544 693 m 1
 583 0 l 1
 439 0 l 1
 431 297 l 2
 430 319 430 339 430 357 c 0
 430 430 434 480 440 554 c 1
 362 118 l 1
 238 118 l 1
 153 554 l 1
 160 481 164 427 164 347 c 0
 164 331 163 313 163 294 c 2
 158 0 l 1
 17 0 l 1
 56 693 l 1
 225 693 l 1
 302 245 l 1
 375 693 l 1
 544 693 l 1
EndSplineSet
Validated: 1
EndChar

StartChar: N
Encoding: 78 78 66
Width: 600
GlyphClass: 2
Flags: W
HStem: 0 21G<52 191 342.465 548> 673 20G<52 263.342 409 548>
VStem: 52 139<0 542.17> 409 139<153.671 693>
LayerCount: 2
Fore
SplineSet
349 0 m 1
 167 557 l 1
 175 498 191 383 191 261 c 2
 191 0 l 1
 52 0 l 1
 52 693 l 1
 257 693 l 1
 433 138 l 1
 423 202 409 303 409 428 c 2
 409 693 l 1
 548 693 l 1
 548 0 l 1
 349 0 l 1
EndSplineSet
Validated: 1
EndChar

StartChar: Nacute
Encoding: 323 323 67
Width: 600
GlyphClass: 2
Flags: W
HStem: 0 21G<52 191 342.465 548> 673 20G<52 263.342 409 548> 751 21G<200.5 266.429>
VStem: 52 139<0 542.17> 409 139<153.671 693>
LayerCount: 2
Fore
SplineSet
388 953 m 1
 447 835 l 1
 210 751 l 1
 172 831 l 1
 388 953 l 1
349 0 m 1
 167 557 l 1
 175 498 191 383 191 261 c 2
 191 0 l 1
 52 0 l 1
 52 693 l 1
 257 693 l 1
 433 138 l 1
 423 202 409 303 409 428 c 2
 409 693 l 1
 548 693 l 1
 548 0 l 1
 349 0 l 1
EndSplineSet
Validated: 1
EndChar

StartChar: Ncaron
Encoding: 327 327 68
Width: 600
GlyphClass: 2
Flags: W
HStem: 0 21G<52 191 342.465 548> 673 20G<52 263.342 409 548> 751 21G<240.154 379.692>
VStem: 52 139<0 542.17> 409 139<153.671 693>
LayerCount: 2
Fore
SplineSet
443 946 m 1
 499 881 l 1
 358 751 l 1
 262 751 l 1
 120 881 l 1
 177 946 l 1
 310 861 l 1
 443 946 l 1
349 0 m 1
 167 557 l 1
 175 498 191 383 191 261 c 2
 191 0 l 1
 52 0 l 1
 52 693 l 1
 257 693 l 1
 433 138 l 1
 423 202 409 303 409 428 c 2
 409 693 l 1
 548 693 l 1
 548 0 l 1
 349 0 l 1
EndSplineSet
Validated: 1
EndChar

StartChar: Ncommaaccent
Encoding: 325 325 69
Width: 600
GlyphClass: 2
Flags: W
HStem: 0 21G<52 191 342.465 548> 673 20G<52 263.342 409 548>
VStem: 52 139<0 542.17> 222 157<-197.108 -89.2149> 409 139<153.671 693>
LayerCount: 2
Fore
SplineSet
349 0 m 1
 167 557 l 1
 175 498 191 383 191 261 c 2
 191 0 l 1
 52 0 l 1
 52 693 l 1
 257 693 l 1
 433 138 l 1
 423 202 409 303 409 428 c 2
 409 693 l 1
 548 693 l 1
 548 0 l 1
 349 0 l 1
301 -65 m 0
 346 -65 379 -98 379 -143 c 0
 379 -166 371 -195 356 -225 c 2
 307 -322 l 1
 227 -322 l 1
 254 -207 l 1
 236 -192 222 -171 222 -143 c 0
 222 -100 255 -65 301 -65 c 0
EndSplineSet
Validated: 1
EndChar

StartChar: Eng
Encoding: 330 330 70
Width: 600
GlyphClass: 2
Flags: W
HStem: -228 120<261.586 372.969> 0 21G<52 191> 673 20G<52 263.342 409 548>
VStem: 52 139<0 542.17> 384 164<-99.2022 0> 409 139<153.671 693>
LayerCount: 2
Fore
SplineSet
409 693 m 1xf4
 548 693 l 1xf4
 548 -27 l 2
 548 -158 474 -228 348 -228 c 0
 286 -228 247 -209 212 -183 c 1
 272 -91 l 1
 291 -100 306 -108 332 -108 c 0
 365 -108 384 -90 384 -41 c 2
 384 0 l 1xf8
 349 0 l 1
 167 557 l 1
 175 498 191 383 191 261 c 2
 191 0 l 1
 52 0 l 1
 52 693 l 1
 257 693 l 1
 433 138 l 1
 423 202 409 303 409 428 c 2
 409 693 l 1xf4
EndSplineSet
Validated: 1
EndChar

StartChar: Ntilde
Encoding: 209 209 71
Width: 600
GlyphClass: 2
Flags: W
HStem: 0 21G<52 191 342.465 548> 673 20G<52 263.342 409 548> 760 112<318.671 402.817> 805 112<213.347 298.014>
VStem: 52 139<0 542.17> 409 139<153.671 693>
LayerCount: 2
Fore
SplineSet
366 760 m 0xec
 308 760 285 805 252 805 c 0
 227 805 215 790 199 761 c 1
 120 799 l 1
 145 863 188 917 249 917 c 0xdc
 310 917 331 872 365 872 c 0
 387 872 400 886 417 915 c 1
 496 877 l 1
 470 810 426 760 366 760 c 0xec
349 0 m 1
 167 557 l 1
 175 498 191 383 191 261 c 2
 191 0 l 1
 52 0 l 1
 52 693 l 1
 257 693 l 1
 433 138 l 1
 423 202 409 303 409 428 c 2
 409 693 l 1
 548 693 l 1
 548 0 l 1
 349 0 l 1
EndSplineSet
Validated: 1
EndChar

StartChar: O
Encoding: 79 79 72
Width: 600
GlyphClass: 2
Flags: W
HStem: -17 120<243.197 357.463> 591 120<242.977 357.023>
VStem: 23 168<184.175 506.541> 409 168<185.672 509.825>
LayerCount: 2
Fore
SplineSet
577 347 m 0
 577 127 482 -17 300 -17 c 0
 118 -17 23 122 23 347 c 0
 23 567 118 711 300 711 c 0
 482 711 577 572 577 347 c 0
409 347 m 0
 409 517 378 591 300 591 c 0
 222 591 191 517 191 347 c 0
 191 177 223 103 300 103 c 0
 380 103 409 179 409 347 c 0
EndSplineSet
Validated: 1
EndChar

StartChar: Oacute
Encoding: 211 211 73
Width: 600
GlyphClass: 2
Flags: W
HStem: -17 120<243.197 357.463> 591 120<242.977 357.023> 751 21G<190.5 256.429>
VStem: 23 168<184.175 506.541> 409 168<185.672 509.825>
LayerCount: 2
Fore
SplineSet
378 953 m 1
 437 835 l 1
 200 751 l 1
 162 831 l 1
 378 953 l 1
577 347 m 0
 577 127 482 -17 300 -17 c 0
 118 -17 23 122 23 347 c 0
 23 567 118 711 300 711 c 0
 482 711 577 572 577 347 c 0
409 347 m 0
 409 517 378 591 300 591 c 0
 222 591 191 517 191 347 c 0
 191 177 223 103 300 103 c 0
 380 103 409 179 409 347 c 0
EndSplineSet
Validated: 1
EndChar

StartChar: Obreve
Encoding: 334 334 74
Width: 600
GlyphClass: 2
Flags: W
HStem: -17 120<243.197 357.463> 591 120<242.977 357.023> 751 110<238.308 361.741>
VStem: 23 168<184.175 506.541> 409 168<185.672 509.825>
LayerCount: 2
Fore
SplineSet
300 751 m 0
 190 751 138 820 128 905 c 1
 215 921 l 1
 228 879 254 861 300 861 c 0
 346 861 372 879 385 921 c 1
 472 905 l 1
 463 820 410 751 300 751 c 0
577 347 m 0
 577 127 482 -17 300 -17 c 0
 118 -17 23 122 23 347 c 0
 23 567 118 711 300 711 c 0
 482 711 577 572 577 347 c 0
409 347 m 0
 409 517 378 591 300 591 c 0
 222 591 191 517 191 347 c 0
 191 177 223 103 300 103 c 0
 380 103 409 179 409 347 c 0
EndSplineSet
Validated: 1
EndChar

StartChar: Ocircumflex
Encoding: 212 212 75
Width: 600
GlyphClass: 2
Flags: W
HStem: -17 120<243.197 357.463> 591 120<242.977 357.023> 748 21G<149.462 198.294 401.706 450.231>
VStem: 23 168<184.175 506.541> 409 168<185.672 509.825>
LayerCount: 2
Fore
SplineSet
348 943 m 1
 489 813 l 1
 433 748 l 1
 300 833 l 1
 167 748 l 1
 110 813 l 1
 252 943 l 1
 348 943 l 1
577 347 m 0
 577 127 482 -17 300 -17 c 0
 118 -17 23 122 23 347 c 0
 23 567 118 711 300 711 c 0
 482 711 577 572 577 347 c 0
409 347 m 0
 409 517 378 591 300 591 c 0
 222 591 191 517 191 347 c 0
 191 177 223 103 300 103 c 0
 380 103 409 179 409 347 c 0
EndSplineSet
Validated: 1
EndChar

StartChar: Odieresis
Encoding: 214 214 76
Width: 600
GlyphClass: 2
Flags: W
HStem: -17 120<243.197 357.463> 591 120<242.977 357.023> 762 160<127.536 241.713 359.059 472.85>
VStem: 23 168<184.175 506.541> 102 165<788.035 896.264> 333 165<788.035 896.264> 409 168<185.672 509.825>
LayerCount: 2
Fore
SplineSet
184 762 m 0xe8
 139 762 102 797 102 843 c 0
 102 887 139 922 184 922 c 0
 231 922 267 887 267 843 c 0
 267 797 231 762 184 762 c 0xe8
416 762 m 0
 371 762 333 797 333 843 c 0
 333 887 371 922 416 922 c 0
 462 922 498 887 498 843 c 0xe4
 498 797 462 762 416 762 c 0
577 347 m 0xf2
 577 127 482 -17 300 -17 c 0
 118 -17 23 122 23 347 c 0
 23 567 118 711 300 711 c 0
 482 711 577 572 577 347 c 0xf2
409 347 m 0
 409 517 378 591 300 591 c 0
 222 591 191 517 191 347 c 0
 191 177 223 103 300 103 c 0
 380 103 409 179 409 347 c 0
EndSplineSet
Validated: 1
EndChar

StartChar: Ograve
Encoding: 210 210 77
Width: 600
GlyphClass: 2
Flags: W
HStem: -17 120<243.197 357.463> 591 120<242.977 357.023> 751 21G<343.333 409.25>
VStem: 23 168<184.175 506.541> 409 168<185.672 509.825>
LayerCount: 2
Fore
SplineSet
222 953 m 1
 437 831 l 1
 400 751 l 1
 162 835 l 1
 222 953 l 1
577 347 m 0
 577 127 482 -17 300 -17 c 0
 118 -17 23 122 23 347 c 0
 23 567 118 711 300 711 c 0
 482 711 577 572 577 347 c 0
409 347 m 0
 409 517 378 591 300 591 c 0
 222 591 191 517 191 347 c 0
 191 177 223 103 300 103 c 0
 380 103 409 179 409 347 c 0
EndSplineSet
Validated: 1
EndChar

StartChar: Ohungarumlaut
Encoding: 336 336 78
Width: 600
GlyphClass: 2
Flags: W
HStem: -17 120<243.197 357.463> 591 120<242.977 357.023> 750 21G<195.444 254.552 361.462 416.736>
VStem: 23 168<184.175 506.541> 409 168<185.672 509.825>
LayerCount: 2
Fore
SplineSet
159 786 m 1
 258 982 l 1
 365 933 l 1
 241 750 l 1
 159 786 l 1
322 788 m 1
 422 982 l 1
 528 931 l 1
 403 749 l 1
 322 788 l 1
577 347 m 0
 577 127 482 -17 300 -17 c 0
 118 -17 23 122 23 347 c 0
 23 567 118 711 300 711 c 0
 482 711 577 572 577 347 c 0
409 347 m 0
 409 517 378 591 300 591 c 0
 222 591 191 517 191 347 c 0
 191 177 223 103 300 103 c 0
 380 103 409 179 409 347 c 0
EndSplineSet
Validated: 1
EndChar

StartChar: Omacron
Encoding: 332 332 79
Width: 600
GlyphClass: 2
Flags: W
HStem: -17 120<243.197 357.463> 591 120<242.977 357.023> 783 109<147 453>
VStem: 23 168<184.175 506.541> 409 168<185.672 509.825>
LayerCount: 2
Fore
SplineSet
453 783 m 1
 147 783 l 1
 147 892 l 1
 453 892 l 1
 453 783 l 1
577 347 m 0
 577 127 482 -17 300 -17 c 0
 118 -17 23 122 23 347 c 0
 23 567 118 711 300 711 c 0
 482 711 577 572 577 347 c 0
409 347 m 0
 409 517 378 591 300 591 c 0
 222 591 191 517 191 347 c 0
 191 177 223 103 300 103 c 0
 380 103 409 179 409 347 c 0
EndSplineSet
Validated: 1
EndChar

StartChar: Oslash
Encoding: 216 216 80
Width: 600
GlyphClass: 2
Flags: W
HStem: -17 117<270.609 358.98> 594 117<241.46 331.662>
VStem: 23 162<187.993 507.727> 415 162<186.702 506.474>
LayerCount: 2
Fore
SplineSet
457 660 m 1
 534 601 577 492 577 347 c 0
 577 127 482 -17 300 -17 c 0
 282 -17 264 -15 248 -12 c 1
 220 -109 l 1
 109 -76 l 1
 143 34 l 1
 66 94 23 203 23 347 c 0
 23 567 118 711 300 711 c 0
 318 711 335 709 351 706 c 1
 380 803 l 1
 491 770 l 1
 457 660 l 1
300 594 m 0
 218 594 185 520 185 347 c 0
 185 266 192 206 208 166 c 1
 332 590 l 1
 322 592 312 594 300 594 c 0
300 100 m 0
 384 100 415 176 415 347 c 0
 415 427 409 486 393 526 c 1
 270 104 l 1
 279 101 289 100 300 100 c 0
EndSplineSet
Validated: 1
EndChar

StartChar: Oslashacute
Encoding: 510 510 81
Width: 600
GlyphClass: 2
Flags: W
HStem: -17 117<270.609 358.98> 594 117<241.46 331.662> 751 21G<190.5 256.429>
VStem: 23 162<187.993 507.727> 415 162<186.702 506.474>
LayerCount: 2
Fore
SplineSet
437 835 m 1
 200 751 l 1
 162 831 l 1
 378 953 l 1
 437 835 l 1
457 660 m 1
 534 601 577 492 577 347 c 0
 577 127 482 -17 300 -17 c 0
 282 -17 264 -15 248 -12 c 1
 220 -109 l 1
 109 -76 l 1
 143 34 l 1
 66 94 23 203 23 347 c 0
 23 567 118 711 300 711 c 0
 318 711 335 709 351 706 c 1
 380 803 l 1
 491 770 l 1
 457 660 l 1
300 594 m 0
 218 594 185 520 185 347 c 0
 185 266 192 206 208 166 c 1
 332 590 l 1
 322 592 312 594 300 594 c 0
300 100 m 0
 384 100 415 176 415 347 c 0
 415 427 409 486 393 526 c 1
 270 104 l 1
 279 101 289 100 300 100 c 0
EndSplineSet
Validated: 1
EndChar

StartChar: Otilde
Encoding: 213 213 82
Width: 600
GlyphClass: 2
Flags: W
HStem: -17 120<243.197 357.463> 591 120<242.977 357.023> 760 112<308.671 392.817> 805 112<203.347 288.014>
VStem: 23 168<184.175 506.541> 409 168<185.672 509.825>
LayerCount: 2
Fore
SplineSet
356 760 m 0xec
 298 760 275 805 242 805 c 0
 217 805 205 790 189 761 c 1
 110 799 l 1
 135 863 178 917 239 917 c 0xdc
 300 917 321 872 355 872 c 0
 377 872 390 886 407 915 c 1
 486 877 l 1
 460 810 416 760 356 760 c 0xec
577 347 m 0
 577 127 482 -17 300 -17 c 0
 118 -17 23 122 23 347 c 0
 23 567 118 711 300 711 c 0
 482 711 577 572 577 347 c 0
409 347 m 0
 409 517 378 591 300 591 c 0
 222 591 191 517 191 347 c 0
 191 177 223 103 300 103 c 0
 380 103 409 179 409 347 c 0
EndSplineSet
Validated: 1
EndChar

StartChar: OE
Encoding: 338 338 83
Width: 600
GlyphClass: 2
Flags: W
HStem: -17 111<183.835 269.168> 0 111<393 597> 296 110<438 558> 582 111<398 580> 599 112<182.949 270.731>
VStem: 10 139<151.965 540.486> 304 134<168.48 296 406 535.201>
LayerCount: 2
Fore
SplineSet
225 711 m 0xae
 261 711 287 704 320 693 c 1
 596 693 l 1
 580 582 l 1
 398 582 l 1
 419 540 433 481 437 406 c 1
 558 406 l 1
 558 296 l 1
 438 296 l 1
 434 217 417 156 393 111 c 1
 597 111 l 1
 597 0 l 1
 316 0 l 1x76
 287 -9 261 -17 225 -17 c 0
 72 -17 10 115 10 347 c 0
 10 574 72 711 225 711 c 0xae
226 599 m 0xae
 166 599 149 529 149 347 c 0
 149 164 170 94 226 94 c 0
 283 94 304 164 304 347 c 0
 304 534 286 599 226 599 c 0xae
EndSplineSet
Validated: 1
EndChar

StartChar: P
Encoding: 80 80 84
Width: 600
GlyphClass: 2
Flags: W
HStem: 0 21G<62 226> 231 118<226 367.517> 576 117<226 370.059>
VStem: 62 164<0 231 349 576> 408 168<390.359 538.314>
LayerCount: 2
Fore
SplineSet
576 467 m 0
 576 306 465 231 302 231 c 2
 226 231 l 1
 226 0 l 1
 62 0 l 1
 62 693 l 1
 280 693 l 2
 469 693 576 619 576 467 c 0
408 467 m 0
 408 541 366 576 283 576 c 2
 226 576 l 1
 226 349 l 1
 291 349 l 2
 364 349 408 385 408 467 c 0
EndSplineSet
Validated: 1
EndChar

StartChar: Thorn
Encoding: 222 222 85
Width: 600
GlyphClass: 2
Flags: W
HStem: 0 21G<59 224> 116 119<224 369.063> 464 117<224 368.565> 673 20G<59 224>
VStem: 59 165<0 116 235 464 581 693> 406 170<272.264 426.251>
LayerCount: 2
Fore
SplineSet
224 693 m 1
 224 581 l 1
 279 581 l 2
 467 581 576 507 576 354 c 0
 576 191 472 116 301 116 c 2
 224 116 l 1
 224 0 l 1
 59 0 l 1
 59 693 l 1
 224 693 l 1
284 464 m 2
 224 464 l 1
 224 235 l 1
 290 235 l 2
 362 235 406 266 406 353 c 0
 406 431 363 464 284 464 c 2
EndSplineSet
Validated: 1
EndChar

StartChar: Q
Encoding: 81 81 86
Width: 600
GlyphClass: 2
Flags: W
HStem: -14 117<250.864 359.281> 590 121<246.925 359.295>
VStem: 32 170<176.36 514.341> 404 170<190.113 515.638>
LayerCount: 2
Fore
SplineSet
574 347 m 0
 574 211 538 96 429 40 c 1
 537 22 596 -16 634 -127 c 1
 500 -173 l 1
 456 -69 411 -14 290 -14 c 0
 116 -14 32 122 32 347 c 0
 32 567 121 711 303 711 c 0
 485 711 574 572 574 347 c 0
404 347 m 0
 404 516 382 590 303 590 c 0
 225 590 202 515 202 347 c 0
 202 178 226 103 303 103 c 0
 383 103 404 179 404 347 c 0
EndSplineSet
Validated: 1
EndChar

StartChar: R
Encoding: 82 82 87
Width: 600
GlyphClass: 2
Flags: W
HStem: 0 21G<58 222 406.679 604> 265 113<222 268> 578 115<222 357.771>
VStem: 58 164<0 265 378 578> 392 169<410.28 545.541>
LayerCount: 2
Fore
SplineSet
561 482 m 0
 561 383 500 323 423 292 c 1
 604 0 l 1
 418 0 l 1
 268 265 l 1
 222 265 l 1
 222 0 l 1
 58 0 l 1
 58 693 l 1
 276 693 l 2
 465 693 561 626 561 482 c 0
392 482 m 0
 392 549 353 578 276 578 c 2
 222 578 l 1
 222 378 l 1
 283 378 l 2
 354 378 392 409 392 482 c 0
EndSplineSet
Validated: 1
EndChar

StartChar: Racute
Encoding: 340 340 88
Width: 600
GlyphClass: 2
Flags: W
HStem: 0 21G<58 222 406.679 604> 265 113<222 268> 578 115<222 357.771> 751 21G<190.5 256.429>
VStem: 58 164<0 265 378 578> 392 169<410.28 545.541>
LayerCount: 2
Fore
SplineSet
378 953 m 1
 437 835 l 1
 200 751 l 1
 162 831 l 1
 378 953 l 1
561 482 m 0
 561 383 500 323 423 292 c 1
 604 0 l 1
 418 0 l 1
 268 265 l 1
 222 265 l 1
 222 0 l 1
 58 0 l 1
 58 693 l 1
 276 693 l 2
 465 693 561 626 561 482 c 0
392 482 m 0
 392 549 353 578 276 578 c 2
 222 578 l 1
 222 378 l 1
 283 378 l 2
 354 378 392 409 392 482 c 0
EndSplineSet
Validated: 1
EndChar

StartChar: Rcaron
Encoding: 344 344 89
Width: 600
GlyphClass: 2
Flags: W
HStem: 0 21G<58 222 406.679 604> 265 113<222 268> 578 115<222 357.771> 751 21G<230.154 369.692>
VStem: 58 164<0 265 378 578> 392 169<410.28 545.541>
LayerCount: 2
Fore
SplineSet
433 946 m 1
 489 881 l 1
 348 751 l 1
 252 751 l 1
 110 881 l 1
 167 946 l 1
 300 861 l 1
 433 946 l 1
561 482 m 0
 561 383 500 323 423 292 c 1
 604 0 l 1
 418 0 l 1
 268 265 l 1
 222 265 l 1
 222 0 l 1
 58 0 l 1
 58 693 l 1
 276 693 l 2
 465 693 561 626 561 482 c 0
392 482 m 0
 392 549 353 578 276 578 c 2
 222 578 l 1
 222 378 l 1
 283 378 l 2
 354 378 392 409 392 482 c 0
EndSplineSet
Validated: 1
EndChar

StartChar: Rcommaaccent
Encoding: 342 342 90
Width: 600
GlyphClass: 2
Flags: W
HStem: 0 21G<58 222 406.679 604> 265 113<222 268> 578 115<222 357.771>
VStem: 58 164<0 265 378 578> 232 157<-197.108 -89.2149> 392 169<410.28 545.541>
LayerCount: 2
Fore
SplineSet
561 482 m 0
 561 383 500 323 423 292 c 1
 604 0 l 1
 418 0 l 1
 268 265 l 1
 222 265 l 1
 222 0 l 1
 58 0 l 1
 58 693 l 1
 276 693 l 2
 465 693 561 626 561 482 c 0
392 482 m 0
 392 549 353 578 276 578 c 2
 222 578 l 1
 222 378 l 1
 283 378 l 2
 354 378 392 409 392 482 c 0
311 -65 m 0
 356 -65 389 -98 389 -143 c 0
 389 -166 381 -195 366 -225 c 2
 317 -322 l 1
 237 -322 l 1
 264 -207 l 1
 246 -192 232 -171 232 -143 c 0
 232 -100 265 -65 311 -65 c 0
EndSplineSet
Validated: 1
EndChar

StartChar: S
Encoding: 83 83 91
Width: 600
GlyphClass: 2
Flags: W
HStem: -17 122<171.215 363.516> 532 21G<456.5 497.303> 590 121<241.845 421.845>
VStem: 48 170<475.873 566.657> 397 171<137.94 243.517>
LayerCount: 2
Fore
SplineSet
568 203 m 0
 568 73 463 -17 286 -17 c 0
 155 -17 70 26 12 83 c 1
 95 175 l 1
 146 130 208 105 282 105 c 0
 351 105 397 136 397 190 c 0
 397 240 368 264 272 293 c 0
 109 343 48 404 48 509 c 0
 48 637 165 711 309 711 c 0
 415 711 497 678 557 621 c 1
 480 532 l 1
 433 571 377 590 321 590 c 0
 259 590 218 567 218 522 c 0
 218 478 249 460 359 426 c 0
 491 386 568 330 568 203 c 0
EndSplineSet
Validated: 1
EndChar

StartChar: Sacute
Encoding: 346 346 92
Width: 600
GlyphClass: 2
Flags: W
HStem: -17 122<171.215 363.516> 532 21G<456.5 497.303> 590 121<241.845 421.845> 751 21G<200.5 266.429>
VStem: 48 170<475.873 566.657> 397 171<137.94 243.517>
LayerCount: 2
Fore
SplineSet
388 953 m 1
 447 835 l 1
 210 751 l 1
 172 831 l 1
 388 953 l 1
568 203 m 0
 568 73 463 -17 286 -17 c 0
 155 -17 70 26 12 83 c 1
 95 175 l 1
 146 130 208 105 282 105 c 0
 351 105 397 136 397 190 c 0
 397 240 368 264 272 293 c 0
 109 343 48 404 48 509 c 0
 48 637 165 711 309 711 c 0
 415 711 497 678 557 621 c 1
 480 532 l 1
 433 571 377 590 321 590 c 0
 259 590 218 567 218 522 c 0
 218 478 249 460 359 426 c 0
 491 386 568 330 568 203 c 0
EndSplineSet
Validated: 1
EndChar

StartChar: Scaron
Encoding: 352 352 93
Width: 600
GlyphClass: 2
Flags: W
HStem: -17 122<171.215 363.516> 532 21G<456.5 497.303> 590 121<241.845 421.845> 751 21G<240.154 379.692>
VStem: 48 170<475.873 566.657> 397 171<137.94 243.517>
LayerCount: 2
Fore
SplineSet
443 946 m 1
 499 881 l 1
 358 751 l 1
 262 751 l 1
 120 881 l 1
 177 946 l 1
 310 861 l 1
 443 946 l 1
568 203 m 0
 568 73 463 -17 286 -17 c 0
 155 -17 70 26 12 83 c 1
 95 175 l 1
 146 130 208 105 282 105 c 0
 351 105 397 136 397 190 c 0
 397 240 368 264 272 293 c 0
 109 343 48 404 48 509 c 0
 48 637 165 711 309 711 c 0
 415 711 497 678 557 621 c 1
 480 532 l 1
 433 571 377 590 321 590 c 0
 259 590 218 567 218 522 c 0
 218 478 249 460 359 426 c 0
 491 386 568 330 568 203 c 0
EndSplineSet
Validated: 1
EndChar

StartChar: Scedilla
Encoding: 350 350 94
Width: 600
GlyphClass: 2
Flags: W
HStem: -262 86<194.587 317.371> -15 120<174.239 238 330 351> 532 21G<456.5 497.303> 590 121<241.845 421.845>
VStem: 48 170<475.873 566.657> 320 113<-171.693 -119.976> 397 171<138.002 243.517>
LayerCount: 2
Fore
SplineSet
568 203 m 0xfa
 568 84 480 -1 330 -15 c 1
 330 -48 l 1
 400 -56 433 -93 433 -147 c 0
 433 -215 374 -262 284 -262 c 0
 236 -262 194 -248 167 -232 c 1
 203 -159 l 1
 223 -169 245 -176 267 -176 c 0
 299 -176 320 -168 320 -145 c 0xfc
 320 -119 289 -112 228 -112 c 1
 238 -15 l 1
 134 -6 62 33 12 83 c 1
 95 175 l 1
 146 130 208 105 282 105 c 0
 351 105 397 136 397 190 c 0
 397 240 368 264 272 293 c 0
 109 343 48 404 48 509 c 0
 48 637 165 711 309 711 c 0
 415 711 497 678 557 621 c 1
 480 532 l 1
 433 571 377 590 321 590 c 0
 259 590 218 567 218 522 c 0
 218 478 249 460 359 426 c 0
 491 386 568 330 568 203 c 0xfa
EndSplineSet
Validated: 1
EndChar

StartChar: Scircumflex
Encoding: 348 348 95
Width: 600
GlyphClass: 2
Flags: W
HStem: -17 122<171.215 363.516> 532 21G<456.5 497.303> 590 121<241.845 421.845> 748 21G<159.462 208.294 411.706 460.231>
VStem: 48 170<475.873 566.657> 397 171<137.94 243.517>
LayerCount: 2
Fore
SplineSet
358 943 m 1
 499 813 l 1
 443 748 l 1
 310 833 l 1
 177 748 l 1
 120 813 l 1
 262 943 l 1
 358 943 l 1
568 203 m 0
 568 73 463 -17 286 -17 c 0
 155 -17 70 26 12 83 c 1
 95 175 l 1
 146 130 208 105 282 105 c 0
 351 105 397 136 397 190 c 0
 397 240 368 264 272 293 c 0
 109 343 48 404 48 509 c 0
 48 637 165 711 309 711 c 0
 415 711 497 678 557 621 c 1
 480 532 l 1
 433 571 377 590 321 590 c 0
 259 590 218 567 218 522 c 0
 218 478 249 460 359 426 c 0
 491 386 568 330 568 203 c 0
EndSplineSet
Validated: 1
EndChar

StartChar: Scommaaccent
Encoding: 536 536 96
Width: 600
GlyphClass: 2
Flags: W
HStem: -17 122<171.215 363.516> 532 21G<456.5 497.303> 590 121<241.845 421.845>
VStem: 48 170<475.873 566.657> 222 157<-197.108 -89.2149> 397 171<137.94 243.517>
LayerCount: 2
Fore
SplineSet
568 203 m 0
 568 73 463 -17 286 -17 c 0
 155 -17 70 26 12 83 c 1
 95 175 l 1
 146 130 208 105 282 105 c 0
 351 105 397 136 397 190 c 0
 397 240 368 264 272 293 c 0
 109 343 48 404 48 509 c 0
 48 637 165 711 309 711 c 0
 415 711 497 678 557 621 c 1
 480 532 l 1
 433 571 377 590 321 590 c 0
 259 590 218 567 218 522 c 0
 218 478 249 460 359 426 c 0
 491 386 568 330 568 203 c 0
301 -65 m 0
 346 -65 379 -98 379 -143 c 0
 379 -166 371 -195 356 -225 c 2
 307 -322 l 1
 227 -322 l 1
 254 -207 l 1
 236 -192 222 -171 222 -143 c 0
 222 -100 255 -65 301 -65 c 0
EndSplineSet
Validated: 1
EndChar

StartChar: T
Encoding: 84 84 97
Width: 600
GlyphClass: 2
Flags: W
HStem: 0 21G<217 381> 567 126<22 217 381 567>
VStem: 217 164<0 567>
LayerCount: 2
Fore
SplineSet
381 567 m 1
 381 0 l 1
 217 0 l 1
 217 567 l 1
 22 567 l 1
 22 693 l 1
 583 693 l 1
 567 567 l 1
 381 567 l 1
EndSplineSet
Validated: 1
EndChar

StartChar: Tbar
Encoding: 358 358 98
Width: 600
GlyphClass: 2
Flags: W
HStem: 0 21G<217 381> 314 92<101 217 381 498> 567 126<22 217 381 567>
VStem: 217 164<0 314 406 567>
LayerCount: 2
Fore
SplineSet
567 567 m 1
 381 567 l 1
 381 406 l 1
 498 406 l 1
 498 314 l 1
 381 314 l 1
 381 0 l 1
 217 0 l 1
 217 314 l 1
 101 314 l 1
 101 406 l 1
 217 406 l 1
 217 567 l 1
 22 567 l 1
 22 693 l 1
 583 693 l 1
 567 567 l 1
EndSplineSet
Validated: 1
EndChar

StartChar: Tcaron
Encoding: 356 356 99
Width: 600
GlyphClass: 2
Flags: W
HStem: 0 21G<217 381> 567 126<22 217 381 567> 751 21G<229.154 368.692>
VStem: 217 164<0 567>
LayerCount: 2
Fore
SplineSet
432 946 m 1
 488 881 l 1
 347 751 l 1
 251 751 l 1
 109 881 l 1
 166 946 l 1
 299 861 l 1
 432 946 l 1
381 567 m 1
 381 0 l 1
 217 0 l 1
 217 567 l 1
 22 567 l 1
 22 693 l 1
 583 693 l 1
 567 567 l 1
 381 567 l 1
EndSplineSet
Validated: 1
EndChar

StartChar: uni0162
Encoding: 354 354 100
Width: 600
GlyphClass: 2
Flags: W
HStem: -262 86<211.587 334.371> 567 126<22 217 381 567>
VStem: 217 164<0 567> 257 90<-51.6501 0> 337 113<-171.693 -119.976>
LayerCount: 2
Fore
SplineSet
381 0 m 1xe0
 347 0 l 1
 347 -48 l 1xd0
 417 -56 450 -93 450 -147 c 0
 450 -215 391 -262 301 -262 c 0
 253 -262 211 -248 184 -232 c 1
 220 -159 l 1
 240 -169 262 -176 284 -176 c 0
 316 -176 337 -168 337 -145 c 0xc8
 337 -119 306 -112 245 -112 c 1
 257 0 l 1xd0
 217 0 l 1
 217 567 l 1
 22 567 l 1
 22 693 l 1
 583 693 l 1
 567 567 l 1
 381 567 l 1
 381 0 l 1xe0
EndSplineSet
Validated: 1
EndChar

StartChar: uni021A
Encoding: 538 538 101
Width: 600
GlyphClass: 2
Flags: W
HStem: 0 21G<217 381> 567 126<22 217 381 567>
VStem: 221 157<-197.108 -89.2149 0 567>
LayerCount: 2
Fore
SplineSet
381 567 m 1
 381 0 l 1
 217 0 l 1
 217 567 l 1
 22 567 l 1
 22 693 l 1
 583 693 l 1
 567 567 l 1
 381 567 l 1
300 -65 m 0
 345 -65 378 -98 378 -143 c 0
 378 -166 370 -195 355 -225 c 2
 306 -322 l 1
 226 -322 l 1
 253 -207 l 1
 235 -192 221 -171 221 -143 c 0
 221 -100 254 -65 300 -65 c 0
EndSplineSet
Validated: 1
EndChar

StartChar: U
Encoding: 85 85 102
Width: 600
GlyphClass: 2
Flags: W
HStem: -17 122<243.908 355.962> 673 20G<42 207 393 558>
VStem: 42 165<144.05 693> 393 165<144.591 693>
LayerCount: 2
Fore
SplineSet
558 693 m 1
 558 232 l 2
 558 90 472 -17 300 -17 c 0
 127 -17 42 84 42 232 c 2
 42 693 l 1
 207 693 l 1
 207 293 l 2
 207 169 221 105 300 105 c 0
 379 105 393 169 393 293 c 2
 393 693 l 1
 558 693 l 1
EndSplineSet
Validated: 1
EndChar

StartChar: Uacute
Encoding: 218 218 103
Width: 600
GlyphClass: 2
Flags: W
HStem: -17 122<243.908 355.962> 673 20G<42 207 393 558> 751 21G<190.5 256.429>
VStem: 42 165<144.05 693> 393 165<144.591 693>
LayerCount: 2
Fore
SplineSet
378 953 m 1
 437 835 l 1
 200 751 l 1
 162 831 l 1
 378 953 l 1
558 693 m 1
 558 232 l 2
 558 90 472 -17 300 -17 c 0
 127 -17 42 84 42 232 c 2
 42 693 l 1
 207 693 l 1
 207 293 l 2
 207 169 221 105 300 105 c 0
 379 105 393 169 393 293 c 2
 393 693 l 1
 558 693 l 1
EndSplineSet
Validated: 1
EndChar

StartChar: Ubreve
Encoding: 364 364 104
Width: 600
GlyphClass: 2
Flags: W
HStem: -17 122<243.908 355.962> 673 20G<42 207 393 558> 751 110<238.308 361.741>
VStem: 42 165<144.05 693> 393 165<144.591 693>
LayerCount: 2
Fore
SplineSet
300 751 m 0
 190 751 138 820 128 905 c 1
 215 921 l 1
 228 879 254 861 300 861 c 0
 346 861 372 879 385 921 c 1
 472 905 l 1
 463 820 410 751 300 751 c 0
558 693 m 1
 558 232 l 2
 558 90 472 -17 300 -17 c 0
 127 -17 42 84 42 232 c 2
 42 693 l 1
 207 693 l 1
 207 293 l 2
 207 169 221 105 300 105 c 0
 379 105 393 169 393 293 c 2
 393 693 l 1
 558 693 l 1
EndSplineSet
Validated: 1
EndChar

StartChar: Ucircumflex
Encoding: 219 219 105
Width: 600
GlyphClass: 2
Flags: W
HStem: -17 122<243.908 355.962> 673 20G<42 207 393 558> 748 21G<149.462 198.294 401.706 450.231>
VStem: 42 165<144.05 693> 393 165<144.591 693>
LayerCount: 2
Fore
SplineSet
348 943 m 1
 489 813 l 1
 433 748 l 1
 300 833 l 1
 167 748 l 1
 110 813 l 1
 252 943 l 1
 348 943 l 1
558 693 m 1
 558 232 l 2
 558 90 472 -17 300 -17 c 0
 127 -17 42 84 42 232 c 2
 42 693 l 1
 207 693 l 1
 207 293 l 2
 207 169 221 105 300 105 c 0
 379 105 393 169 393 293 c 2
 393 693 l 1
 558 693 l 1
EndSplineSet
Validated: 1
EndChar

StartChar: Udieresis
Encoding: 220 220 106
Width: 600
GlyphClass: 2
Flags: W
HStem: -17 122<243.908 355.962> 673 20G<42 207 393 558> 762 160<127.536 241.713 359.059 472.85>
VStem: 42 165<144.05 693> 102 165<788.035 896.264> 333 165<788.035 896.264> 393 165<144.591 693>
LayerCount: 2
Fore
SplineSet
184 762 m 0xe8
 139 762 102 797 102 843 c 0
 102 887 139 922 184 922 c 0
 231 922 267 887 267 843 c 0
 267 797 231 762 184 762 c 0xe8
416 762 m 0
 371 762 333 797 333 843 c 0
 333 887 371 922 416 922 c 0
 462 922 498 887 498 843 c 0xe4
 498 797 462 762 416 762 c 0
558 693 m 1xf2
 558 232 l 2
 558 90 472 -17 300 -17 c 0
 127 -17 42 84 42 232 c 2
 42 693 l 1
 207 693 l 1
 207 293 l 2
 207 169 221 105 300 105 c 0
 379 105 393 169 393 293 c 2
 393 693 l 1
 558 693 l 1xf2
EndSplineSet
Validated: 1
EndChar

StartChar: Ugrave
Encoding: 217 217 107
Width: 600
GlyphClass: 2
Flags: W
HStem: -17 122<243.908 355.962> 673 20G<42 207 393 558> 751 21G<343.333 409.25>
VStem: 42 165<144.05 693> 393 165<144.591 693>
LayerCount: 2
Fore
SplineSet
222 953 m 1
 437 831 l 1
 400 751 l 1
 162 835 l 1
 222 953 l 1
558 693 m 1
 558 232 l 2
 558 90 472 -17 300 -17 c 0
 127 -17 42 84 42 232 c 2
 42 693 l 1
 207 693 l 1
 207 293 l 2
 207 169 221 105 300 105 c 0
 379 105 393 169 393 293 c 2
 393 693 l 1
 558 693 l 1
EndSplineSet
Validated: 1
EndChar

StartChar: Uhungarumlaut
Encoding: 368 368 108
Width: 600
GlyphClass: 2
Flags: W
HStem: -17 122<243.908 355.962> 673 20G<42 207 393 558> 750 21G<195.444 254.552 361.462 416.736>
VStem: 42 165<144.05 693> 393 165<144.591 693>
LayerCount: 2
Fore
SplineSet
159 786 m 1
 258 982 l 1
 365 933 l 1
 241 750 l 1
 159 786 l 1
322 788 m 1
 422 982 l 1
 528 931 l 1
 403 749 l 1
 322 788 l 1
558 693 m 1
 558 232 l 2
 558 90 472 -17 300 -17 c 0
 127 -17 42 84 42 232 c 2
 42 693 l 1
 207 693 l 1
 207 293 l 2
 207 169 221 105 300 105 c 0
 379 105 393 169 393 293 c 2
 393 693 l 1
 558 693 l 1
EndSplineSet
Validated: 1
EndChar

StartChar: Umacron
Encoding: 362 362 109
Width: 600
GlyphClass: 2
Flags: W
HStem: -17 122<243.908 355.962> 673 20G<42 207 393 558> 783 109<147 453>
VStem: 42 165<144.05 693> 393 165<144.591 693>
LayerCount: 2
Fore
SplineSet
453 783 m 1
 147 783 l 1
 147 892 l 1
 453 892 l 1
 453 783 l 1
558 693 m 1
 558 232 l 2
 558 90 472 -17 300 -17 c 0
 127 -17 42 84 42 232 c 2
 42 693 l 1
 207 693 l 1
 207 293 l 2
 207 169 221 105 300 105 c 0
 379 105 393 169 393 293 c 2
 393 693 l 1
 558 693 l 1
EndSplineSet
Validated: 1
EndChar

StartChar: Uogonek
Encoding: 370 370 110
Width: 600
GlyphClass: 2
Flags: W
HStem: -253 94<298.574 390.435> 673 20G<42 207 393 558>
VStem: 42 165<147.003 693> 180 110<-149.126 -52.912> 393 165<146.114 693>
LayerCount: 2
Fore
SplineSet
393 693 m 1xe8
 558 693 l 1
 558 232 l 2
 558 117 502 26 390 -5 c 1
 310 -36 290 -71 290 -110 c 0
 290 -143 313 -159 348 -159 c 0
 369 -159 385 -156 402 -152 c 1
 390 -245 l 1
 372 -250 354 -253 331 -253 c 0
 246 -253 180 -209 180 -130 c 0xd8
 180 -77 203 -40 241 -13 c 1
 107 8 42 102 42 232 c 2
 42 693 l 1
 207 693 l 1
 207 293 l 2
 207 169 221 105 300 105 c 0
 379 105 393 169 393 293 c 2
 393 693 l 1xe8
EndSplineSet
Validated: 1
EndChar

StartChar: Uring
Encoding: 366 366 111
Width: 600
GlyphClass: 2
Flags: W
HStem: -17 122<243.908 355.962> 673 20G<42 207 393 558> 726 82<261.277 337.402> 908 82<261.02 337.662>
VStem: 42 165<144.05 693> 161 94<813.872 902.949> 344 94<813.872 901.452> 393 165<144.591 693>
LayerCount: 2
Fore
SplineSet
299 990 m 0xf6
 385 990 438 929 438 859 c 0
 438 788 385 726 299 726 c 0
 214 726 161 788 161 859 c 0
 161 929 214 990 299 990 c 0xf6
299 908 m 0
 273 908 255 892 255 859 c 0
 255 825 273 808 299 808 c 0
 326 808 344 825 344 859 c 0
 344 892 326 908 299 908 c 0
558 693 m 1xf9
 558 232 l 2
 558 90 472 -17 300 -17 c 0
 127 -17 42 84 42 232 c 2
 42 693 l 1
 207 693 l 1
 207 293 l 2
 207 169 221 105 300 105 c 0
 379 105 393 169 393 293 c 2
 393 693 l 1
 558 693 l 1xf9
EndSplineSet
Validated: 1
EndChar

StartChar: Utilde
Encoding: 360 360 112
Width: 600
GlyphClass: 2
Flags: W
HStem: -17 122<243.908 355.962> 673 20G<42 207 393 558> 760 112<308.671 392.817> 805 112<203.347 288.014>
VStem: 42 165<144.05 693> 393 165<144.591 693>
LayerCount: 2
Fore
SplineSet
356 760 m 0xec
 298 760 275 805 242 805 c 0
 217 805 205 790 189 761 c 1
 110 799 l 1
 135 863 178 917 239 917 c 0xdc
 300 917 321 872 355 872 c 0
 377 872 390 886 407 915 c 1
 486 877 l 1
 460 810 416 760 356 760 c 0xec
558 693 m 1
 558 232 l 2
 558 90 472 -17 300 -17 c 0
 127 -17 42 84 42 232 c 2
 42 693 l 1
 207 693 l 1
 207 293 l 2
 207 169 221 105 300 105 c 0
 379 105 393 169 393 293 c 2
 393 693 l 1
 558 693 l 1
EndSplineSet
Validated: 1
EndChar

StartChar: V
Encoding: 86 86 113
Width: 600
GlyphClass: 2
Flags: W
HStem: 0 21G<193.257 406.772> 673 20G<0 178.566 428.398 601>
LayerCount: 2
Fore
SplineSet
303 128 m 1
 433 693 l 1
 601 693 l 1
 401 0 l 1
 199 0 l 1
 0 693 l 1
 174 693 l 1
 303 128 l 1
EndSplineSet
Validated: 1
EndChar

StartChar: W
Encoding: 87 87 114
Width: 600
GlyphClass: 2
Flags: W
HStem: 0 21G<69.8355 247.258 349.944 524.338> 673 20G<-3 150.868 458.77 603>
LayerCount: 2
Fore
SplineSet
603 693 m 1
 522 0 l 1
 352 0 l 1
 301 496 l 1
 245 0 l 1
 72 0 l 1
 -3 693 l 1
 150 693 l 1
 174 140 l 1
 231 613 l 1
 373 613 l 1
 426 140 l 1
 460 693 l 1
 603 693 l 1
EndSplineSet
Validated: 1
EndChar

StartChar: Wacute
Encoding: 7810 7810 115
Width: 600
GlyphClass: 2
Flags: W
HStem: 0 21G<69.8355 247.258 349.944 524.338> 673 20G<-3 150.868 458.77 603> 751 21G<190.5 256.429>
LayerCount: 2
Fore
SplineSet
378 953 m 1
 437 835 l 1
 200 751 l 1
 162 831 l 1
 378 953 l 1
603 693 m 1
 522 0 l 1
 352 0 l 1
 301 496 l 1
 245 0 l 1
 72 0 l 1
 -3 693 l 1
 150 693 l 1
 174 140 l 1
 231 613 l 1
 373 613 l 1
 426 140 l 1
 460 693 l 1
 603 693 l 1
EndSplineSet
Validated: 1
EndChar

StartChar: Wcircumflex
Encoding: 372 372 116
Width: 600
GlyphClass: 2
Flags: W
HStem: 0 21G<69.8355 247.258 349.944 524.338> 673 20G<-3 150.868 458.77 603> 748 21G<149.462 198.294 401.706 450.231>
LayerCount: 2
Fore
SplineSet
348 943 m 1
 489 813 l 1
 433 748 l 1
 300 833 l 1
 167 748 l 1
 110 813 l 1
 252 943 l 1
 348 943 l 1
603 693 m 1
 522 0 l 1
 352 0 l 1
 301 496 l 1
 245 0 l 1
 72 0 l 1
 -3 693 l 1
 150 693 l 1
 174 140 l 1
 231 613 l 1
 373 613 l 1
 426 140 l 1
 460 693 l 1
 603 693 l 1
EndSplineSet
Validated: 1
EndChar

StartChar: Wdieresis
Encoding: 7812 7812 117
Width: 600
GlyphClass: 2
Flags: W
HStem: 0 21G<69.8355 247.258 349.944 524.338> 673 20G<-3 150.868 458.77 603> 762 160<127.536 241.713 359.059 472.85>
VStem: 102 165<788.035 896.264> 333 165<788.035 896.264>
LayerCount: 2
Fore
SplineSet
184 762 m 0
 139 762 102 797 102 843 c 0
 102 887 139 922 184 922 c 0
 231 922 267 887 267 843 c 0
 267 797 231 762 184 762 c 0
416 762 m 0
 371 762 333 797 333 843 c 0
 333 887 371 922 416 922 c 0
 462 922 498 887 498 843 c 0
 498 797 462 762 416 762 c 0
603 693 m 1
 522 0 l 1
 352 0 l 1
 301 496 l 1
 245 0 l 1
 72 0 l 1
 -3 693 l 1
 150 693 l 1
 174 140 l 1
 231 613 l 1
 373 613 l 1
 426 140 l 1
 460 693 l 1
 603 693 l 1
EndSplineSet
Validated: 1
EndChar

StartChar: Wgrave
Encoding: 7808 7808 118
Width: 600
GlyphClass: 2
Flags: W
HStem: 0 21G<69.8355 247.258 349.944 524.338> 673 20G<-3 150.868 458.77 603> 751 21G<343.333 409.25>
LayerCount: 2
Fore
SplineSet
222 953 m 1
 437 831 l 1
 400 751 l 1
 162 835 l 1
 222 953 l 1
603 693 m 1
 522 0 l 1
 352 0 l 1
 301 496 l 1
 245 0 l 1
 72 0 l 1
 -3 693 l 1
 150 693 l 1
 174 140 l 1
 231 613 l 1
 373 613 l 1
 426 140 l 1
 460 693 l 1
 603 693 l 1
EndSplineSet
Validated: 1
EndChar

StartChar: X
Encoding: 88 88 119
Width: 600
GlyphClass: 2
Flags: W
HStem: 0 21G<4 187.091 410.758 597> 673 20G<19 205.369 397.36 580>
LayerCount: 2
Fore
SplineSet
19 693 m 1
 196 693 l 1
 300 471 l 1
 407 693 l 1
 580 693 l 1
 396 375 l 1
 597 0 l 1
 420 0 l 1
 298 264 l 1
 178 0 l 1
 4 0 l 1
 200 368 l 1
 19 693 l 1
EndSplineSet
Validated: 1
EndChar

StartChar: Y
Encoding: 89 89 120
Width: 600
GlyphClass: 2
Flags: W
HStem: 0 21G<218 382> 673 20G<-8 180.792 426.141 608>
VStem: 218 164<0 259>
LayerCount: 2
Fore
SplineSet
382 260 m 1
 382 0 l 1
 218 0 l 1
 218 259 l 1
 -8 693 l 1
 172 693 l 1
 303 395 l 1
 435 693 l 1
 608 693 l 1
 382 260 l 1
EndSplineSet
Validated: 1
EndChar

StartChar: Yacute
Encoding: 221 221 121
Width: 600
GlyphClass: 2
Flags: W
HStem: 0 21G<218 382> 673 20G<-8 180.792 426.141 608> 751 21G<190.5 256.429>
VStem: 218 164<0 259>
LayerCount: 2
Fore
SplineSet
378 953 m 1
 437 835 l 1
 200 751 l 1
 162 831 l 1
 378 953 l 1
382 260 m 1
 382 0 l 1
 218 0 l 1
 218 259 l 1
 -8 693 l 1
 172 693 l 1
 303 395 l 1
 435 693 l 1
 608 693 l 1
 382 260 l 1
EndSplineSet
Validated: 1
EndChar

StartChar: Ycircumflex
Encoding: 374 374 122
Width: 600
GlyphClass: 2
Flags: W
HStem: 0 21G<218 382> 673 20G<-8 180.792 426.141 608> 748 21G<149.462 198.294 401.706 450.231>
VStem: 218 164<0 259>
LayerCount: 2
Fore
SplineSet
348 943 m 1
 489 813 l 1
 433 748 l 1
 300 833 l 1
 167 748 l 1
 110 813 l 1
 252 943 l 1
 348 943 l 1
382 260 m 1
 382 0 l 1
 218 0 l 1
 218 259 l 1
 -8 693 l 1
 172 693 l 1
 303 395 l 1
 435 693 l 1
 608 693 l 1
 382 260 l 1
EndSplineSet
Validated: 1
EndChar

StartChar: Ydieresis
Encoding: 376 376 123
Width: 600
GlyphClass: 2
Flags: W
HStem: 0 21G<218 382> 673 20G<-8 180.792 426.141 608> 762 160<127.536 241.713 359.059 472.85>
VStem: 102 165<788.035 896.264> 218 164<0 259> 333 165<788.035 896.264>
LayerCount: 2
Fore
SplineSet
184 762 m 0xf0
 139 762 102 797 102 843 c 0
 102 887 139 922 184 922 c 0
 231 922 267 887 267 843 c 0
 267 797 231 762 184 762 c 0xf0
416 762 m 0
 371 762 333 797 333 843 c 0
 333 887 371 922 416 922 c 0
 462 922 498 887 498 843 c 0xe4
 498 797 462 762 416 762 c 0
382 260 m 1xe8
 382 0 l 1
 218 0 l 1
 218 259 l 1
 -8 693 l 1
 172 693 l 1
 303 395 l 1
 435 693 l 1
 608 693 l 1
 382 260 l 1xe8
EndSplineSet
Validated: 1
EndChar

StartChar: Ygrave
Encoding: 7922 7922 124
Width: 600
GlyphClass: 2
Flags: W
HStem: 0 21G<218 382> 673 20G<-8 180.792 426.141 608> 751 21G<343.333 409.25>
VStem: 218 164<0 259>
LayerCount: 2
Fore
SplineSet
222 953 m 1
 437 831 l 1
 400 751 l 1
 162 835 l 1
 222 953 l 1
382 260 m 1
 382 0 l 1
 218 0 l 1
 218 259 l 1
 -8 693 l 1
 172 693 l 1
 303 395 l 1
 435 693 l 1
 608 693 l 1
 382 260 l 1
EndSplineSet
Validated: 1
EndChar

StartChar: Z
Encoding: 90 90 125
Width: 600
GlyphClass: 2
Flags: W
HStem: 0 131<232 545> 566 127<75 368>
LayerCount: 2
Fore
SplineSet
232 131 m 1
 562 131 l 1
 545 0 l 1
 39 0 l 1
 39 123 l 1
 368 566 l 1
 75 566 l 1
 75 693 l 1
 554 693 l 1
 554 569 l 1
 232 131 l 1
EndSplineSet
Validated: 1
EndChar

StartChar: Zacute
Encoding: 377 377 126
Width: 600
GlyphClass: 2
Flags: W
HStem: 0 131<232 545> 566 127<75 368> 751 21G<203.5 269.429>
LayerCount: 2
Fore
SplineSet
391 953 m 1
 450 835 l 1
 213 751 l 1
 175 831 l 1
 391 953 l 1
232 131 m 1
 562 131 l 1
 545 0 l 1
 39 0 l 1
 39 123 l 1
 368 566 l 1
 75 566 l 1
 75 693 l 1
 554 693 l 1
 554 569 l 1
 232 131 l 1
EndSplineSet
Validated: 1
EndChar

StartChar: Zcaron
Encoding: 381 381 127
Width: 600
GlyphClass: 2
Flags: W
HStem: 0 131<232 545> 566 127<75 368> 751 21G<243.154 382.692>
LayerCount: 2
Fore
SplineSet
446 946 m 1
 502 881 l 1
 361 751 l 1
 265 751 l 1
 123 881 l 1
 180 946 l 1
 313 861 l 1
 446 946 l 1
232 131 m 1
 562 131 l 1
 545 0 l 1
 39 0 l 1
 39 123 l 1
 368 566 l 1
 75 566 l 1
 75 693 l 1
 554 693 l 1
 554 569 l 1
 232 131 l 1
EndSplineSet
Validated: 1
EndChar

StartChar: Zdotaccent
Encoding: 379 379 128
Width: 600
GlyphClass: 2
Flags: W
HStem: 0 131<232 545> 566 127<75 368> 756 178<250.23 375.34>
VStem: 219 187<786.005 903.588>
LayerCount: 2
Fore
SplineSet
313 934 m 0
 368 934 406 895 406 845 c 0
 406 794 368 756 313 756 c 0
 258 756 219 794 219 845 c 0
 219 895 258 934 313 934 c 0
232 131 m 1
 562 131 l 1
 545 0 l 1
 39 0 l 1
 39 123 l 1
 368 566 l 1
 75 566 l 1
 75 693 l 1
 554 693 l 1
 554 569 l 1
 232 131 l 1
EndSplineSet
Validated: 1
EndChar

StartChar: a
Encoding: 97 97 129
Width: 600
GlyphClass: 2
Flags: W
HStem: -17 113<158.672 320.195> 241 90<228.978 365> 432 117<134.317 339.986>
VStem: 35 163<110.794 211.553> 365 152<127.391 241 331 404.105>
LayerCount: 2
Fore
SplineSet
517 153 m 2
 517 113 527 98 552 89 c 1
 519 -15 l 1
 457 -9 414 11 389 55 c 1
 348 6 281 -17 215 -17 c 0
 105 -17 35 52 35 150 c 0
 35 265 130 331 294 331 c 2
 365 331 l 1
 365 350 l 2
 365 406 328 432 260 432 c 0
 226 432 167 422 114 404 c 1
 78 509 l 1
 147 535 226 549 285 549 c 0
 443 549 517 483 517 361 c 2
 517 153 l 2
269 96 m 0
 303 96 345 117 365 154 c 1
 365 241 l 1
 326 241 l 2
 238 241 198 213 198 161 c 0
 198 120 224 96 269 96 c 0
EndSplineSet
Validated: 1
EndChar

StartChar: aacute
Encoding: 225 225 130
Width: 600
GlyphClass: 2
Flags: W
HStem: -17 113<158.672 320.195> 241 90<228.978 365> 432 117<134.317 339.986>
VStem: 35 163<110.794 211.553> 365 152<127.391 241 331 404.105>
LayerCount: 2
Fore
SplineSet
369 835 m 1
 431 716 l 1
 194 622 l 1
 151 703 l 1
 369 835 l 1
517 153 m 2
 517 113 527 98 552 89 c 1
 519 -15 l 1
 457 -9 414 11 389 55 c 1
 348 6 281 -17 215 -17 c 0
 105 -17 35 52 35 150 c 0
 35 265 130 331 294 331 c 2
 365 331 l 1
 365 350 l 2
 365 406 328 432 260 432 c 0
 226 432 167 422 114 404 c 1
 78 509 l 1
 147 535 226 549 285 549 c 0
 443 549 517 483 517 361 c 2
 517 153 l 2
269 96 m 0
 303 96 345 117 365 154 c 1
 365 241 l 1
 326 241 l 2
 238 241 198 213 198 161 c 0
 198 120 224 96 269 96 c 0
EndSplineSet
Validated: 1
EndChar

StartChar: abreve
Encoding: 259 259 131
Width: 600
GlyphClass: 2
Flags: W
HStem: -17 113<158.672 320.195> 241 90<228.978 365> 432 117<134.317 339.986> 612 108<239.957 345.689>
VStem: 35 163<110.794 211.553> 121 87<753.258 787.207> 365 152<127.391 241 331 404.105> 378 87<753.258 787.207>
LayerCount: 2
Fore
SplineSet
293 612 m 0xf5
 182 612 129 698 121 786 c 1
 208 801 l 1
 220 753 247 720 293 720 c 0
 339 720 366 753 378 801 c 1
 465 786 l 1
 457 698 402 612 293 612 c 0xf5
517 153 m 2xfa
 517 113 527 98 552 89 c 1
 519 -15 l 1
 457 -9 414 11 389 55 c 1
 348 6 281 -17 215 -17 c 0
 105 -17 35 52 35 150 c 0
 35 265 130 331 294 331 c 2
 365 331 l 1
 365 350 l 2
 365 406 328 432 260 432 c 0
 226 432 167 422 114 404 c 1
 78 509 l 1
 147 535 226 549 285 549 c 0
 443 549 517 483 517 361 c 2
 517 153 l 2xfa
269 96 m 0
 303 96 345 117 365 154 c 1
 365 241 l 1
 326 241 l 2
 238 241 198 213 198 161 c 0
 198 120 224 96 269 96 c 0
EndSplineSet
Validated: 1
EndChar

StartChar: acircumflex
Encoding: 226 226 132
Width: 600
GlyphClass: 2
Flags: W
HStem: -17 113<158.672 320.195> 241 90<228.978 365> 432 117<134.317 339.986>
VStem: 35 163<110.794 211.553> 365 152<127.391 241 331 404.105>
LayerCount: 2
Fore
SplineSet
160 611 m 1
 103 676 l 1
 245 815 l 1
 341 815 l 1
 482 676 l 1
 426 611 l 1
 293 705 l 1
 160 611 l 1
517 153 m 2
 517 113 527 98 552 89 c 1
 519 -15 l 1
 457 -9 414 11 389 55 c 1
 348 6 281 -17 215 -17 c 0
 105 -17 35 52 35 150 c 0
 35 265 130 331 294 331 c 2
 365 331 l 1
 365 350 l 2
 365 406 328 432 260 432 c 0
 226 432 167 422 114 404 c 1
 78 509 l 1
 147 535 226 549 285 549 c 0
 443 549 517 483 517 361 c 2
 517 153 l 2
269 96 m 0
 303 96 345 117 365 154 c 1
 365 241 l 1
 326 241 l 2
 238 241 198 213 198 161 c 0
 198 120 224 96 269 96 c 0
EndSplineSet
Validated: 1
EndChar

StartChar: adieresis
Encoding: 228 228 133
Width: 600
GlyphClass: 2
Flags: W
HStem: -17 113<158.672 320.195> 241 90<228.978 365> 432 117<134.317 339.986> 637 160<120.536 234.713 352.059 465.85>
VStem: 35 163<110.794 211.553> 95 165<663.035 771.264> 326 165<663.035 771.264> 365 152<127.391 241 331 404.105>
LayerCount: 2
Fore
SplineSet
177 637 m 0xf4
 132 637 95 672 95 718 c 0
 95 762 132 797 177 797 c 0
 224 797 260 762 260 718 c 0
 260 672 224 637 177 637 c 0xf4
409 637 m 0
 364 637 326 672 326 718 c 0
 326 762 364 797 409 797 c 0
 455 797 491 762 491 718 c 0xf2
 491 672 455 637 409 637 c 0
517 153 m 2xf5
 517 113 527 98 552 89 c 1
 519 -15 l 1
 457 -9 414 11 389 55 c 1
 348 6 281 -17 215 -17 c 0
 105 -17 35 52 35 150 c 0xf9
 35 265 130 331 294 331 c 2
 365 331 l 1
 365 350 l 2
 365 406 328 432 260 432 c 0
 226 432 167 422 114 404 c 1
 78 509 l 1
 147 535 226 549 285 549 c 0
 443 549 517 483 517 361 c 2
 517 153 l 2xf5
269 96 m 0
 303 96 345 117 365 154 c 1
 365 241 l 1xf9
 326 241 l 2xf2
 238 241 198 213 198 161 c 0
 198 120 224 96 269 96 c 0
EndSplineSet
Validated: 1
EndChar

StartChar: agrave
Encoding: 224 224 134
Width: 600
GlyphClass: 2
Flags: W
HStem: -17 113<158.672 320.195> 241 90<228.978 365> 432 117<134.317 339.986>
VStem: 35 163<110.794 211.553> 365 152<127.391 241 331 404.105>
LayerCount: 2
Fore
SplineSet
392 622 m 1
 156 716 l 1
 217 835 l 1
 435 702 l 1
 392 622 l 1
517 153 m 2
 517 113 527 98 552 89 c 1
 519 -15 l 1
 457 -9 414 11 389 55 c 1
 348 6 281 -17 215 -17 c 0
 105 -17 35 52 35 150 c 0
 35 265 130 331 294 331 c 2
 365 331 l 1
 365 350 l 2
 365 406 328 432 260 432 c 0
 226 432 167 422 114 404 c 1
 78 509 l 1
 147 535 226 549 285 549 c 0
 443 549 517 483 517 361 c 2
 517 153 l 2
269 96 m 0
 303 96 345 117 365 154 c 1
 365 241 l 1
 326 241 l 2
 238 241 198 213 198 161 c 0
 198 120 224 96 269 96 c 0
EndSplineSet
Validated: 1
EndChar

StartChar: amacron
Encoding: 257 257 135
Width: 600
GlyphClass: 2
Flags: W
HStem: -17 113<158.672 320.195> 241 90<228.978 365> 432 117<134.317 339.986> 658 109<140 446>
VStem: 35 163<110.794 211.553> 365 152<127.391 241 331 404.105>
LayerCount: 2
Fore
SplineSet
446 658 m 1
 140 658 l 1
 140 767 l 1
 446 767 l 1
 446 658 l 1
517 153 m 2
 517 113 527 98 552 89 c 1
 519 -15 l 1
 457 -9 414 11 389 55 c 1
 348 6 281 -17 215 -17 c 0
 105 -17 35 52 35 150 c 0
 35 265 130 331 294 331 c 2
 365 331 l 1
 365 350 l 2
 365 406 328 432 260 432 c 0
 226 432 167 422 114 404 c 1
 78 509 l 1
 147 535 226 549 285 549 c 0
 443 549 517 483 517 361 c 2
 517 153 l 2
269 96 m 0
 303 96 345 117 365 154 c 1
 365 241 l 1
 326 241 l 2
 238 241 198 213 198 161 c 0
 198 120 224 96 269 96 c 0
EndSplineSet
Validated: 1
EndChar

StartChar: aogonek
Encoding: 261 261 136
Width: 600
GlyphClass: 2
Flags: W
HStem: -268 94<412.574 504.435> -17 113<158.672 320.195> 241 90<228.978 365> 432 117<134.317 339.986>
VStem: 35 163<110.794 211.553> 294 110<-164.126 -68.0388> 365 152<127.391 241 331 404.105>
LayerCount: 2
Fore
SplineSet
552 89 m 1xfa
 519 -15 l 1
 426 -47 404 -84 404 -125 c 0
 404 -158 427 -174 462 -174 c 0
 483 -174 499 -171 516 -167 c 1
 504 -260 l 1
 486 -265 468 -268 445 -268 c 0
 360 -268 294 -224 294 -145 c 0
 294 -63 350 -20 430 12 c 1
 413 23 400 37 389 55 c 1
 348 6 281 -17 215 -17 c 0
 105 -17 35 52 35 150 c 0
 35 265 130 331 294 331 c 2xfc
 365 331 l 1
 365 350 l 2
 365 406 328 432 260 432 c 0
 226 432 167 422 114 404 c 1
 78 509 l 1
 147 535 226 549 285 549 c 0
 443 549 517 483 517 361 c 2
 517 153 l 2
 517 113 527 98 552 89 c 1xfa
365 154 m 1xfa
 365 241 l 1
 326 241 l 2
 238 241 198 213 198 161 c 0
 198 120 224 96 269 96 c 0
 303 96 345 117 365 154 c 1xfa
EndSplineSet
Validated: 1
EndChar

StartChar: aring
Encoding: 229 229 137
Width: 600
GlyphClass: 2
Flags: W
HStem: -17 113<158.672 320.195> 241 90<228.978 365> 432 117<134.317 339.986> 601 82<254.277 330.402> 783 82<254.02 330.662>
VStem: 35 163<110.794 211.553> 154 94<688.872 777.949> 337 94<688.872 776.452> 365 152<127.391 241 331 404.105>
LayerCount: 2
Fore
SplineSet
292 865 m 0xfb
 378 865 431 804 431 734 c 0
 431 663 378 601 292 601 c 0
 207 601 154 663 154 734 c 0
 154 804 207 865 292 865 c 0xfb
292 783 m 0
 266 783 248 767 248 734 c 0
 248 700 266 683 292 683 c 0
 319 683 337 700 337 734 c 0
 337 767 319 783 292 783 c 0
517 153 m 2xfc80
 517 113 527 98 552 89 c 1
 519 -15 l 1
 457 -9 414 11 389 55 c 1
 348 6 281 -17 215 -17 c 0
 105 -17 35 52 35 150 c 0
 35 265 130 331 294 331 c 2
 365 331 l 1
 365 350 l 2
 365 406 328 432 260 432 c 0
 226 432 167 422 114 404 c 1
 78 509 l 1
 147 535 226 549 285 549 c 0
 443 549 517 483 517 361 c 2
 517 153 l 2xfc80
269 96 m 0
 303 96 345 117 365 154 c 1
 365 241 l 1
 326 241 l 2
 238 241 198 213 198 161 c 0
 198 120 224 96 269 96 c 0
EndSplineSet
Validated: 1
EndChar

StartChar: atilde
Encoding: 227 227 138
Width: 600
GlyphClass: 2
Flags: W
HStem: -17 113<158.672 320.195> 241 90<228.978 365> 432 117<134.317 339.986> 635 112<301.671 385.817> 680 112<196.347 281.014>
VStem: 35 163<110.794 211.553> 365 152<127.391 241 331 404.105>
LayerCount: 2
Fore
SplineSet
349 635 m 0xf6
 291 635 268 680 235 680 c 0
 210 680 198 665 182 636 c 1
 103 674 l 1
 128 738 171 792 232 792 c 0xee
 293 792 314 747 348 747 c 0
 370 747 383 761 400 790 c 1
 479 752 l 1
 453 685 409 635 349 635 c 0xf6
517 153 m 2
 517 113 527 98 552 89 c 1
 519 -15 l 1
 457 -9 414 11 389 55 c 1
 348 6 281 -17 215 -17 c 0
 105 -17 35 52 35 150 c 0
 35 265 130 331 294 331 c 2
 365 331 l 1
 365 350 l 2
 365 406 328 432 260 432 c 0
 226 432 167 422 114 404 c 1
 78 509 l 1
 147 535 226 549 285 549 c 0
 443 549 517 483 517 361 c 2
 517 153 l 2
269 96 m 0
 303 96 345 117 365 154 c 1
 365 241 l 1
 326 241 l 2
 238 241 198 213 198 161 c 0
 198 120 224 96 269 96 c 0
EndSplineSet
Validated: 1
EndChar

StartChar: ae
Encoding: 230 230 139
Width: 600
GlyphClass: 2
Flags: W
HStem: -17 103<137.504 214.521 398.428 522.651> 226 86<356 481> 242 85<147.986 237> 451 98<62.5392 210.539 381.259 461.637>
VStem: -6 132<95.0217 220.018> 237 119<138.036 226 327 423.157> 481 119<312 428.764>
LayerCount: 2
Fore
SplineSet
428 549 m 0xbe
 553 549 600 452 600 276 c 0
 600 258 599 242 597 226 c 1
 356 226 l 1xde
 365 132 397 87 453 87 c 0
 485 87 511 98 540 119 c 1
 600 40 l 1
 561 7 511 -17 444 -17 c 0
 370 -17 318 14 284 67 c 1
 246 10 211 -17 143 -17 c 0
 50 -17 -6 53 -6 152 c 0
 -6 265 59 327 196 327 c 2
 237 327 l 1
 237 350 l 2
 237 419 205 451 148 451 c 0
 116 451 95 445 55 426 c 1
 19 513 l 1
 71 536 111 549 164 549 c 0
 237 549 277 521 302 478 c 1
 326 521 368 549 428 549 c 0xbe
422 450 m 0
 381 450 361 416 356 312 c 1
 481 312 l 1
 480 406 469 450 422 450 c 0
237 242 m 1xbe
 216 242 l 2
 150 242 126 211 126 159 c 0
 126 113 142 86 172 86 c 0
 200 86 221 107 242 148 c 1
 239 178 237 211 237 242 c 1xbe
EndSplineSet
Validated: 1
EndChar

StartChar: aeacute
Encoding: 509 509 140
Width: 600
GlyphClass: 2
Flags: W
HStem: -17 103<137.504 214.521 398.428 522.651> 226 86<356 481> 242 85<147.986 237> 451 98<62.5392 210.539 381.259 461.637>
VStem: -6 132<95.0217 220.018> 237 119<138.036 226 327 423.157> 481 119<312 428.764>
LayerCount: 2
Fore
SplineSet
378 835 m 1x9e
 440 716 l 1
 203 622 l 1
 160 703 l 1
 378 835 l 1x9e
428 549 m 0
 553 549 600 452 600 276 c 0
 600 258 599 242 597 226 c 1
 356 226 l 1xde
 365 132 397 87 453 87 c 0
 485 87 511 98 540 119 c 1
 600 40 l 1
 561 7 511 -17 444 -17 c 0
 370 -17 318 14 284 67 c 1
 246 10 211 -17 143 -17 c 0
 50 -17 -6 53 -6 152 c 0
 -6 265 59 327 196 327 c 2
 237 327 l 1xbe
 237 350 l 2
 237 419 205 451 148 451 c 0
 116 451 95 445 55 426 c 1
 19 513 l 1
 71 536 111 549 164 549 c 0
 237 549 277 521 302 478 c 1
 326 521 368 549 428 549 c 0
422 450 m 0
 381 450 361 416 356 312 c 1
 481 312 l 1
 480 406 469 450 422 450 c 0
237 242 m 1xbe
 216 242 l 2
 150 242 126 211 126 159 c 0
 126 113 142 86 172 86 c 0
 200 86 221 107 242 148 c 1
 239 178 237 211 237 242 c 1xbe
EndSplineSet
Validated: 1
EndChar

StartChar: b
Encoding: 98 98 141
Width: 600
GlyphClass: 2
Flags: W
HStem: -17 115<264.599 359.577> 0 21G<70 212.5> 432 117<284.003 432.724> 739 20G<70 228>
VStem: 70 158<120.112 400.321 477 742> 397 163<144.371 393.027>
LayerCount: 2
Fore
SplineSet
228 477 m 1x7c
 261 521 310 549 364 549 c 0
 500 549 560 440 560 267 c 0
 560 103 485 -17 347 -17 c 0xbc
 294 -17 247 6 216 48 c 1
 210 0 l 1
 70 0 l 1
 70 742 l 1
 228 759 l 1
 228 477 l 1x7c
306 98 m 0
 362 98 397 145 397 265 c 0
 397 397 364 432 314 432 c 0
 278 432 251 409 228 370 c 1
 228 146 l 1
 248 115 272 98 306 98 c 0
EndSplineSet
Validated: 1
EndChar

StartChar: c
Encoding: 99 99 142
Width: 600
GlyphClass: 2
Flags: W
HStem: -17 125<281.013 431.575> 427 122<284.354 440.855>
VStem: 69 165<159.906 371.726>
LayerCount: 2
Fore
SplineSet
352 108 m 0
 395 108 432 127 470 153 c 1
 540 53 l 1
 493 13 425 -17 343 -17 c 0
 171 -17 69 96 69 262 c 0
 69 428 175 549 346 549 c 0
 426 549 487 526 540 482 c 1
 472 387 l 1
 436 412 396 427 353 427 c 0
 281 427 234 382 234 262 c 0
 234 144 284 108 352 108 c 0
EndSplineSet
Validated: 1
EndChar

StartChar: cacute
Encoding: 263 263 143
Width: 600
GlyphClass: 2
Flags: W
HStem: -17 125<281.013 431.575> 427 122<284.354 440.855>
VStem: 69 165<159.906 371.726>
LayerCount: 2
Fore
SplineSet
420 822 m 1
 482 703 l 1
 245 609 l 1
 202 690 l 1
 420 822 l 1
352 108 m 0
 395 108 432 127 470 153 c 1
 540 53 l 1
 493 13 425 -17 343 -17 c 0
 171 -17 69 96 69 262 c 0
 69 428 175 549 346 549 c 0
 426 549 487 526 540 482 c 1
 472 387 l 1
 436 412 396 427 353 427 c 0
 281 427 234 382 234 262 c 0
 234 144 284 108 352 108 c 0
EndSplineSet
Validated: 1
EndChar

StartChar: ccaron
Encoding: 269 269 144
Width: 600
GlyphClass: 2
Flags: W
HStem: -17 125<281.013 431.575> 427 122<284.354 440.855>
VStem: 69 165<159.906 371.726>
LayerCount: 2
Fore
SplineSet
477 802 m 1
 533 738 l 1
 392 598 l 1
 296 598 l 1
 154 738 l 1
 211 802 l 1
 344 708 l 1
 477 802 l 1
352 108 m 0
 395 108 432 127 470 153 c 1
 540 53 l 1
 493 13 425 -17 343 -17 c 0
 171 -17 69 96 69 262 c 0
 69 428 175 549 346 549 c 0
 426 549 487 526 540 482 c 1
 472 387 l 1
 436 412 396 427 353 427 c 0
 281 427 234 382 234 262 c 0
 234 144 284 108 352 108 c 0
EndSplineSet
Validated: 1
EndChar

StartChar: ccedilla
Encoding: 231 231 145
Width: 600
GlyphClass: 2
Flags: W
HStem: -262 86<233.587 356.371> -112 220<280.183 356.014> 427 122<284.354 440.855>
VStem: 69 165<160.311 371.726> 359 113<-171.693 -119.976>
LayerCount: 2
Fore
SplineSet
368 -48 m 1
 438 -56 472 -93 472 -147 c 0
 472 -215 413 -262 323 -262 c 0
 275 -262 233 -248 206 -232 c 1
 242 -159 l 1
 262 -169 284 -176 306 -176 c 0
 338 -176 359 -168 359 -145 c 0
 359 -119 328 -112 267 -112 c 1
 278 -11 l 1
 146 14 69 118 69 262 c 0
 69 428 175 549 346 549 c 0
 426 549 487 526 540 482 c 1
 472 387 l 1
 436 412 396 427 353 427 c 0
 281 427 234 382 234 262 c 0
 234 144 284 108 352 108 c 0
 395 108 432 127 470 153 c 1
 540 53 l 1
 498 17 439 -10 368 -16 c 1
 368 -48 l 1
EndSplineSet
Validated: 1
EndChar

StartChar: ccircumflex
Encoding: 265 265 146
Width: 600
GlyphClass: 2
Flags: W
HStem: -17 125<281.013 431.575> 427 122<284.354 440.855>
VStem: 69 165<159.906 371.726>
LayerCount: 2
Fore
SplineSet
211 598 m 1
 154 663 l 1
 296 802 l 1
 392 802 l 1
 533 663 l 1
 477 598 l 1
 344 692 l 1
 211 598 l 1
352 108 m 0
 395 108 432 127 470 153 c 1
 540 53 l 1
 493 13 425 -17 343 -17 c 0
 171 -17 69 96 69 262 c 0
 69 428 175 549 346 549 c 0
 426 549 487 526 540 482 c 1
 472 387 l 1
 436 412 396 427 353 427 c 0
 281 427 234 382 234 262 c 0
 234 144 284 108 352 108 c 0
EndSplineSet
Validated: 1
EndChar

StartChar: cdotaccent
Encoding: 267 267 147
Width: 600
GlyphClass: 2
Flags: W
HStem: -17 125<281.013 431.575> 427 122<284.354 440.855> 618 178<281.23 406.34>
VStem: 69 165<159.906 371.726> 250 187<648.005 765.588>
LayerCount: 2
Fore
SplineSet
344 796 m 0
 399 796 437 757 437 707 c 0
 437 656 399 618 344 618 c 0
 289 618 250 656 250 707 c 0
 250 757 289 796 344 796 c 0
352 108 m 0
 395 108 432 127 470 153 c 1
 540 53 l 1
 493 13 425 -17 343 -17 c 0
 171 -17 69 96 69 262 c 0
 69 428 175 549 346 549 c 0
 426 549 487 526 540 482 c 1
 472 387 l 1
 436 412 396 427 353 427 c 0
 281 427 234 382 234 262 c 0
 234 144 284 108 352 108 c 0
EndSplineSet
Validated: 1
EndChar

StartChar: d
Encoding: 100 100 148
Width: 600
GlyphClass: 2
Flags: W
HStem: -17 116<168.886 321.929> 0 21G<387.241 530> 433 116<243.467 335.934> 739 20G<372 530>
VStem: 40 163<136.754 387.756> 372 158<130.332 411.612 499 742>
LayerCount: 2
Fore
SplineSet
372 759 m 1xbc
 530 742 l 1
 530 0 l 1
 390 0 l 1x7c
 382 58 l 1
 353 17 305 -17 235 -17 c 0
 103 -17 40 96 40 267 c 0
 40 431 121 549 252 549 c 0
 299 549 340 532 372 499 c 1
 372 759 l 1xbc
294 433 m 0
 239 433 203 385 203 266 c 0
 203 135 237 99 285 99 c 0xbc
 321 99 349 122 372 160 c 1
 372 389 l 1
 350 417 327 433 294 433 c 0
EndSplineSet
Validated: 1
EndChar

StartChar: eth
Encoding: 240 240 149
Width: 600
GlyphClass: 2
Flags: W
HStem: -17 115<239.511 356.213> 371 111<237.859 348.69> 655 103<121.893 176.167>
VStem: 40 161<138.388 330.461> 396 160<150.103 342.004>
LayerCount: 2
Fore
SplineSet
126 571 m 1
 184 631 l 1
 157 641 126 649 93 655 c 1
 124 758 l 1
 179 750 228 738 270 721 c 1
 343 797 l 1
 424 727 l 1
 371 673 l 1
 500 590 556 456 556 277 c 0
 556 113 463 -17 294 -17 c 0
 151 -17 40 75 40 234 c 0
 40 382 140 482 255 482 c 0
 314 482 352 465 388 431 c 1
 365 500 329 548 282 582 c 1
 226 525 l 1
 126 571 l 1
396 256 m 0
 396 281 396 305 395 328 c 1
 370 356 336 371 296 371 c 0
 238 371 201 328 201 236 c 0
 201 139 238 98 297 98 c 0
 366 98 396 149 396 256 c 0
EndSplineSet
Validated: 1
EndChar

StartChar: dcaron
Encoding: 271 271 150
Width: 600
GlyphClass: 2
Flags: W
HStem: -17 116<129.886 282.929> 0 21G<348.241 491> 433 116<204.467 296.934> 739 20G<333 491>
VStem: 1 163<136.754 387.756> 333 158<130.332 411.612 499 742>
LayerCount: 2
Fore
SplineSet
555 764 m 1x3c
 693 747 l 1
 616 515 l 1
 517 531 l 1
 555 764 l 1x3c
333 759 m 1
 491 742 l 1
 491 0 l 1
 351 0 l 1x7c
 343 58 l 1
 314 17 266 -17 196 -17 c 0xbc
 64 -17 1 96 1 267 c 0
 1 431 82 549 213 549 c 0
 260 549 301 532 333 499 c 1
 333 759 l 1
255 433 m 0
 200 433 164 385 164 266 c 0
 164 135 198 99 246 99 c 0xbc
 282 99 310 122 333 160 c 1
 333 389 l 1
 311 417 288 433 255 433 c 0
EndSplineSet
Validated: 1
EndChar

StartChar: dcroat
Encoding: 273 273 151
Width: 600
GlyphClass: 2
Flags: W
HStem: -17 116<150 303.266> 0 21G<369.241 512> 433 116<224.808 317.721> 593 92<231 354 512 592> 739 20G<354 512>
VStem: 21 163<138.016 386.387> 354 158<131.675 411.612 499 593 685 742>
LayerCount: 2
Fore
SplineSet
592 685 m 1xbe
 592 593 l 1
 512 593 l 1
 512 0 l 1
 372 0 l 1x7e
 364 58 l 1
 334 17 286 -17 216 -17 c 0
 84 -17 21 96 21 267 c 0
 21 431 102 549 233 549 c 0
 281 549 322 532 354 499 c 1
 354 593 l 1
 231 593 l 1
 231 685 l 1
 354 685 l 1
 354 759 l 1
 512 742 l 1
 512 685 l 1
 592 685 l 1xbe
354 160 m 1
 354 389 l 1
 332 417 308 433 276 433 c 0
 221 433 184 385 184 266 c 0
 184 135 219 99 267 99 c 0xbe
 302 99 331 122 354 160 c 1
EndSplineSet
Validated: 1
EndChar

StartChar: e
Encoding: 101 101 152
Width: 600
GlyphClass: 2
Flags: W
HStem: -17 115<258.069 429.984> 219 96<207 400> 443 106<245.51 365.892>
VStem: 46 161<152.385 219 315 388.192> 400 154<315 397.042>
LayerCount: 2
Fore
SplineSet
207 219 m 1
 218 132 267 98 335 98 c 0
 383 98 429 115 471 142 c 1
 534 56 l 1
 484 13 412 -17 322 -17 c 0
 140 -17 46 100 46 265 c 0
 46 422 138 549 305 549 c 0
 457 549 554 447 554 276 c 0
 554 258 553 235 551 219 c 1
 207 219 l 1
305 443 m 0
 249 443 212 403 205 315 c 1
 400 315 l 1
 399 392 372 443 305 443 c 0
EndSplineSet
Validated: 1
EndChar

StartChar: eacute
Encoding: 233 233 153
Width: 600
GlyphClass: 2
Flags: W
HStem: -17 115<258.069 429.984> 219 96<207 400> 443 106<245.51 365.892>
VStem: 46 161<152.385 219 315 388.192> 400 154<315 397.042>
LayerCount: 2
Fore
SplineSet
383 835 m 1
 445 716 l 1
 208 622 l 1
 165 703 l 1
 383 835 l 1
207 219 m 1
 218 132 267 98 335 98 c 0
 383 98 429 115 471 142 c 1
 534 56 l 1
 484 13 412 -17 322 -17 c 0
 140 -17 46 100 46 265 c 0
 46 422 138 549 305 549 c 0
 457 549 554 447 554 276 c 0
 554 258 553 235 551 219 c 1
 207 219 l 1
305 443 m 0
 249 443 212 403 205 315 c 1
 400 315 l 1
 399 392 372 443 305 443 c 0
EndSplineSet
Validated: 1
EndChar

StartChar: ebreve
Encoding: 277 277 154
Width: 600
GlyphClass: 2
Flags: W
HStem: -17 115<258.069 429.984> 219 96<207 400> 443 106<245.51 365.892> 612 108<253.957 359.689>
VStem: 46 161<152.385 219 315 388.192> 135 87<753.258 787.207> 392 87<753.258 787.207> 400 154<315 397.042>
LayerCount: 2
Fore
SplineSet
307 612 m 0xf6
 196 612 143 698 135 786 c 1
 222 801 l 1
 234 753 261 720 307 720 c 0
 353 720 380 753 392 801 c 1
 479 786 l 1
 471 698 416 612 307 612 c 0xf6
207 219 m 1xf9
 218 132 267 98 335 98 c 0
 383 98 429 115 471 142 c 1
 534 56 l 1
 484 13 412 -17 322 -17 c 0
 140 -17 46 100 46 265 c 0
 46 422 138 549 305 549 c 0
 457 549 554 447 554 276 c 0
 554 258 553 235 551 219 c 1
 207 219 l 1xf9
305 443 m 0
 249 443 212 403 205 315 c 1
 400 315 l 1
 399 392 372 443 305 443 c 0
EndSplineSet
Validated: 1
EndChar

StartChar: ecaron
Encoding: 283 283 155
Width: 600
GlyphClass: 2
Flags: W
HStem: -17 115<258.069 429.984> 219 96<207 400> 443 106<245.51 365.892>
VStem: 46 161<152.385 219 315 388.192> 400 154<315 397.042>
LayerCount: 2
Fore
SplineSet
440 815 m 1
 496 751 l 1
 355 611 l 1
 259 611 l 1
 117 751 l 1
 174 815 l 1
 307 721 l 1
 440 815 l 1
207 219 m 1
 218 132 267 98 335 98 c 0
 383 98 429 115 471 142 c 1
 534 56 l 1
 484 13 412 -17 322 -17 c 0
 140 -17 46 100 46 265 c 0
 46 422 138 549 305 549 c 0
 457 549 554 447 554 276 c 0
 554 258 553 235 551 219 c 1
 207 219 l 1
305 443 m 0
 249 443 212 403 205 315 c 1
 400 315 l 1
 399 392 372 443 305 443 c 0
EndSplineSet
Validated: 1
EndChar

StartChar: ecircumflex
Encoding: 234 234 156
Width: 600
GlyphClass: 2
Flags: W
HStem: -17 115<258.069 429.984> 219 96<207 400> 443 106<245.51 365.892>
VStem: 46 161<152.385 219 315 388.192> 400 154<315 397.042>
LayerCount: 2
Fore
SplineSet
174 611 m 1
 117 676 l 1
 259 815 l 1
 355 815 l 1
 496 676 l 1
 440 611 l 1
 307 705 l 1
 174 611 l 1
207 219 m 1
 218 132 267 98 335 98 c 0
 383 98 429 115 471 142 c 1
 534 56 l 1
 484 13 412 -17 322 -17 c 0
 140 -17 46 100 46 265 c 0
 46 422 138 549 305 549 c 0
 457 549 554 447 554 276 c 0
 554 258 553 235 551 219 c 1
 207 219 l 1
305 443 m 0
 249 443 212 403 205 315 c 1
 400 315 l 1
 399 392 372 443 305 443 c 0
EndSplineSet
Validated: 1
EndChar

StartChar: edieresis
Encoding: 235 235 157
Width: 600
GlyphClass: 2
Flags: W
HStem: -17 115<258.069 429.984> 219 96<207 400> 443 106<245.51 365.892> 637 160<134.536 248.713 366.059 479.85>
VStem: 46 161<152.385 219 315 388.192> 109 165<663.035 771.264> 340 165<663.035 771.264> 400 154<315 397.042>
LayerCount: 2
Fore
SplineSet
191 637 m 0xf4
 146 637 109 672 109 718 c 0
 109 762 146 797 191 797 c 0
 238 797 274 762 274 718 c 0
 274 672 238 637 191 637 c 0xf4
423 637 m 0
 378 637 340 672 340 718 c 0
 340 762 378 797 423 797 c 0
 469 797 505 762 505 718 c 0xf2
 505 672 469 637 423 637 c 0
207 219 m 1xf9
 218 132 267 98 335 98 c 0
 383 98 429 115 471 142 c 1
 534 56 l 1
 484 13 412 -17 322 -17 c 0
 140 -17 46 100 46 265 c 0
 46 422 138 549 305 549 c 0
 457 549 554 447 554 276 c 0
 554 258 553 235 551 219 c 1
 207 219 l 1xf9
305 443 m 0
 249 443 212 403 205 315 c 1
 400 315 l 1
 399 392 372 443 305 443 c 0
EndSplineSet
Validated: 1
EndChar

StartChar: edotaccent
Encoding: 279 279 158
Width: 600
GlyphClass: 2
Flags: W
HStem: -17 115<258.069 429.984> 219 96<207 400> 443 106<245.51 365.892> 631 178<244.23 369.34>
VStem: 46 161<152.385 219 315 388.192> 213 187<661.005 778.588> 400 154<315 397.042>
LayerCount: 2
Fore
SplineSet
307 809 m 0xfc
 362 809 400 770 400 720 c 0
 400 669 362 631 307 631 c 0
 252 631 213 669 213 720 c 0
 213 770 252 809 307 809 c 0xfc
207 219 m 1
 218 132 267 98 335 98 c 0
 383 98 429 115 471 142 c 1
 534 56 l 1
 484 13 412 -17 322 -17 c 0
 140 -17 46 100 46 265 c 0
 46 422 138 549 305 549 c 0
 457 549 554 447 554 276 c 0xfa
 554 258 553 235 551 219 c 1
 207 219 l 1
305 443 m 0
 249 443 212 403 205 315 c 1
 400 315 l 1
 399 392 372 443 305 443 c 0
EndSplineSet
Validated: 1
EndChar

StartChar: egrave
Encoding: 232 232 159
Width: 600
GlyphClass: 2
Flags: W
HStem: -17 115<258.069 429.984> 219 96<207 400> 443 106<245.51 365.892>
VStem: 46 161<152.385 219 315 388.192> 400 154<315 397.042>
LayerCount: 2
Fore
SplineSet
406 622 m 1
 170 716 l 1
 231 835 l 1
 449 702 l 1
 406 622 l 1
207 219 m 1
 218 132 267 98 335 98 c 0
 383 98 429 115 471 142 c 1
 534 56 l 1
 484 13 412 -17 322 -17 c 0
 140 -17 46 100 46 265 c 0
 46 422 138 549 305 549 c 0
 457 549 554 447 554 276 c 0
 554 258 553 235 551 219 c 1
 207 219 l 1
305 443 m 0
 249 443 212 403 205 315 c 1
 400 315 l 1
 399 392 372 443 305 443 c 0
EndSplineSet
Validated: 1
EndChar

StartChar: emacron
Encoding: 275 275 160
Width: 600
GlyphClass: 2
Flags: W
HStem: -17 115<258.069 429.984> 219 96<207 400> 443 106<245.51 365.892> 658 109<154 460>
VStem: 46 161<152.385 219 315 388.192> 400 154<315 397.042>
LayerCount: 2
Fore
SplineSet
460 658 m 1
 154 658 l 1
 154 767 l 1
 460 767 l 1
 460 658 l 1
207 219 m 1
 218 132 267 98 335 98 c 0
 383 98 429 115 471 142 c 1
 534 56 l 1
 484 13 412 -17 322 -17 c 0
 140 -17 46 100 46 265 c 0
 46 422 138 549 305 549 c 0
 457 549 554 447 554 276 c 0
 554 258 553 235 551 219 c 1
 207 219 l 1
305 443 m 0
 249 443 212 403 205 315 c 1
 400 315 l 1
 399 392 372 443 305 443 c 0
EndSplineSet
Validated: 1
EndChar

StartChar: eogonek
Encoding: 281 281 161
Width: 600
GlyphClass: 2
Flags: W
HStem: -253 94<328.574 420.435> 219 96<207 400> 443 106<245.51 365.892>
VStem: 46 161<153.547 219 315 388.192> 210 110<-149.126 -58.6048> 400 154<315 397.042>
LayerCount: 2
Fore
SplineSet
554 276 m 0
 554 258 553 235 551 219 c 1
 207 219 l 1
 218 132 267 98 335 98 c 0
 383 98 429 115 471 142 c 1
 534 56 l 1
 507 33 474 13 435 1 c 1
 435 0 l 1
 342 -32 320 -69 320 -110 c 0
 320 -143 343 -159 378 -159 c 0
 399 -159 415 -156 432 -152 c 1
 420 -245 l 1
 402 -250 384 -253 361 -253 c 0
 276 -253 210 -209 210 -130 c 0
 210 -79 236 -43 279 -15 c 1
 125 2 46 113 46 265 c 0
 46 422 138 549 305 549 c 0
 457 549 554 447 554 276 c 0
205 315 m 1
 400 315 l 1
 399 392 372 443 305 443 c 0
 249 443 212 403 205 315 c 1
EndSplineSet
Validated: 1
EndChar

StartChar: f
Encoding: 102 102 162
Width: 600
GlyphClass: 2
Flags: W
HStem: 0 21G<188 345> 388 110<76 188 345 500> 642 117<361.822 550.958>
VStem: 188 157<0 388 498 625.646>
LayerCount: 2
Fore
SplineSet
408 759 m 0
 486 759 543 745 590 725 c 1
 546 622 l 1
 510 636 471 642 433 642 c 0
 370 642 345 621 345 569 c 2
 345 498 l 1
 518 498 l 1
 500 388 l 1
 345 388 l 1
 345 0 l 1
 188 0 l 1
 188 388 l 1
 76 388 l 1
 76 498 l 1
 188 498 l 1
 188 574 l 2
 188 679 264 759 408 759 c 0
EndSplineSet
Validated: 1
EndChar

StartChar: g
Encoding: 103 103 163
Width: 600
GlyphClass: 2
Flags: W
HStem: -222 104<187.394 394.206> -4 112<228.048 403.405> 164 101<240.868 352.674> 445 103<241.908 355.024>
VStem: 55 160<290.21 421.161> 90 134<73 167.085> 377 151<290.118 419.283> 415 157<-98.4446 -17.4374>
LayerCount: 2
Fore
SplineSet
542 616 m 1xf8
 578 500 l 1
 541 485 492 479 425 479 c 1
 492 450 528 411 528 342 c 0xfa
 528 239 440 164 303 164 c 0
 280 164 260 166 241 170 c 1
 230 164 224 152 224 140 c 0
 224 124 231 108 282 108 c 2
 370 108 l 2
 493 108 572 43 572 -46 c 0
 572 -155 476 -222 288 -222 c 0
 84 -222 31 -156 31 -51 c 1
 171 -51 l 1
 171 -97 191 -118 292 -118 c 0
 392 -118 415 -92 415 -57 c 0
 415 -26 391 -4 338 -4 c 2
 254 -4 l 2
 138 -4 90 45 90 101 c 0xf5
 90 140 111 178 149 202 c 1
 82 238 55 285 55 354 c 0
 55 474 153 548 292 548 c 0
 297 548 302 548 307 548 c 0
 416 548 481 580 542 616 c 1xf8
296 445 m 0
 246 445 215 411 215 356 c 0
 215 298 247 265 296 265 c 0
 348 265 377 297 377 358 c 0
 377 417 349 445 296 445 c 0
EndSplineSet
Validated: 1
EndChar

StartChar: gbreve
Encoding: 287 287 164
Width: 600
GlyphClass: 2
Flags: W
HStem: -222 104<187.394 394.206> -4 112<228.048 403.405> 164 101<240.868 352.674> 445 103<241.908 355.024> 612 108<247.957 353.689>
VStem: 55 160<290.21 421.161> 90 134<73 167.085> 129 87<753.258 787.207> 377 151<290.118 419.283> 386 87<753.258 787.207> 415 157<-98.4446 -17.4374>
LayerCount: 2
Fore
SplineSet
301 612 m 0xf940
 190 612 137 698 129 786 c 1
 216 801 l 1
 228 753 255 720 301 720 c 0
 347 720 374 753 386 801 c 1
 473 786 l 1
 465 698 410 612 301 612 c 0xf940
542 616 m 1
 578 500 l 1
 541 485 492 479 425 479 c 1
 492 450 528 411 528 342 c 0xfc80
 528 239 440 164 303 164 c 0
 280 164 260 166 241 170 c 1
 230 164 224 152 224 140 c 0
 224 124 231 108 282 108 c 2
 370 108 l 2
 493 108 572 43 572 -46 c 0
 572 -155 476 -222 288 -222 c 0
 84 -222 31 -156 31 -51 c 1
 171 -51 l 1
 171 -97 191 -118 292 -118 c 0
 392 -118 415 -92 415 -57 c 0
 415 -26 391 -4 338 -4 c 2
 254 -4 l 2
 138 -4 90 45 90 101 c 0xfa20
 90 140 111 178 149 202 c 1
 82 238 55 285 55 354 c 0xfc
 55 474 153 548 292 548 c 0
 297 548 302 548 307 548 c 0
 416 548 481 580 542 616 c 1
296 445 m 0
 246 445 215 411 215 356 c 0
 215 298 247 265 296 265 c 0
 348 265 377 297 377 358 c 0
 377 417 349 445 296 445 c 0
EndSplineSet
Validated: 1
EndChar

StartChar: gcircumflex
Encoding: 285 285 165
Width: 600
GlyphClass: 2
Flags: W
HStem: -222 104<187.394 394.206> -4 112<228.048 403.405> 164 101<240.868 352.674> 445 103<241.908 355.024>
VStem: 55 160<290.21 421.161> 90 134<73 167.085> 377 151<290.118 419.283> 415 157<-98.4446 -17.4374>
LayerCount: 2
Fore
SplineSet
168 611 m 1xf0
 111 676 l 1
 253 815 l 1
 349 815 l 1
 490 676 l 1
 434 611 l 1
 301 705 l 1
 168 611 l 1xf0
542 616 m 1
 578 500 l 1
 541 485 492 479 425 479 c 1
 492 450 528 411 528 342 c 0xfa
 528 239 440 164 303 164 c 0
 280 164 260 166 241 170 c 1
 230 164 224 152 224 140 c 0
 224 124 231 108 282 108 c 2
 370 108 l 2
 493 108 572 43 572 -46 c 0
 572 -155 476 -222 288 -222 c 0
 84 -222 31 -156 31 -51 c 1
 171 -51 l 1
 171 -97 191 -118 292 -118 c 0
 392 -118 415 -92 415 -57 c 0
 415 -26 391 -4 338 -4 c 2
 254 -4 l 2
 138 -4 90 45 90 101 c 0xf5
 90 140 111 178 149 202 c 1
 82 238 55 285 55 354 c 0xf8
 55 474 153 548 292 548 c 0
 297 548 302 548 307 548 c 0
 416 548 481 580 542 616 c 1
296 445 m 0
 246 445 215 411 215 356 c 0
 215 298 247 265 296 265 c 0
 348 265 377 297 377 358 c 0
 377 417 349 445 296 445 c 0
EndSplineSet
Validated: 1
EndChar

StartChar: gcommaaccent
Encoding: 291 291 166
Width: 600
GlyphClass: 2
Flags: W
HStem: -222 104<187.394 394.206> -4 112<228.048 403.405> 164 101<240.868 352.674> 445 103<241.908 355.024>
VStem: 55 160<290.21 421.161> 90 134<73 167.085> 223 157<620.215 728.108> 377 151<290.118 419.283> 415 157<-98.4446 -17.4374>
LayerCount: 2
Fore
SplineSet
301 596 m 0xf2
 256 596 223 629 223 674 c 0
 223 697 231 726 246 756 c 2
 295 853 l 1
 375 853 l 1
 348 738 l 1
 366 723 380 702 380 674 c 0
 380 631 347 596 301 596 c 0xf2
542 616 m 1
 578 500 l 1
 541 485 492 479 425 479 c 1
 492 450 528 411 528 342 c 0xf9
 528 239 440 164 303 164 c 0
 280 164 260 166 241 170 c 1
 230 164 224 152 224 140 c 0
 224 124 231 108 282 108 c 2
 370 108 l 2
 493 108 572 43 572 -46 c 0
 572 -155 476 -222 288 -222 c 0
 84 -222 31 -156 31 -51 c 1
 171 -51 l 1
 171 -97 191 -118 292 -118 c 0
 392 -118 415 -92 415 -57 c 0
 415 -26 391 -4 338 -4 c 2
 254 -4 l 2
 138 -4 90 45 90 101 c 0xf480
 90 140 111 178 149 202 c 1
 82 238 55 285 55 354 c 0xf8
 55 474 153 548 292 548 c 0
 297 548 302 548 307 548 c 0
 416 548 481 580 542 616 c 1
296 445 m 0
 246 445 215 411 215 356 c 0
 215 298 247 265 296 265 c 0
 348 265 377 297 377 358 c 0
 377 417 349 445 296 445 c 0
EndSplineSet
Validated: 1
EndChar

StartChar: gdotaccent
Encoding: 289 289 167
Width: 600
GlyphClass: 2
Flags: W
HStem: -222 104<187.394 394.206> -4 112<228.048 403.405> 164 101<240.868 352.674> 445 103<241.908 355.024> 631 178<238.23 363.34>
VStem: 55 160<290.21 421.161> 90 134<73 167.085> 207 187<661.005 778.588> 377 151<290.118 419.283> 415 157<-98.4446 -17.4374>
LayerCount: 2
Fore
SplineSet
301 809 m 0xf9
 356 809 394 770 394 720 c 0
 394 669 356 631 301 631 c 0
 246 631 207 669 207 720 c 0
 207 770 246 809 301 809 c 0xf9
542 616 m 1
 578 500 l 1
 541 485 492 479 425 479 c 1
 492 450 528 411 528 342 c 0xfc80
 528 239 440 164 303 164 c 0
 280 164 260 166 241 170 c 1
 230 164 224 152 224 140 c 0
 224 124 231 108 282 108 c 2
 370 108 l 2
 493 108 572 43 572 -46 c 0
 572 -155 476 -222 288 -222 c 0
 84 -222 31 -156 31 -51 c 1
 171 -51 l 1
 171 -97 191 -118 292 -118 c 0
 392 -118 415 -92 415 -57 c 0
 415 -26 391 -4 338 -4 c 2
 254 -4 l 2
 138 -4 90 45 90 101 c 0xfa40
 90 140 111 178 149 202 c 1
 82 238 55 285 55 354 c 0xfc
 55 474 153 548 292 548 c 0
 297 548 302 548 307 548 c 0
 416 548 481 580 542 616 c 1
296 445 m 0
 246 445 215 411 215 356 c 0
 215 298 247 265 296 265 c 0
 348 265 377 297 377 358 c 0
 377 417 349 445 296 445 c 0
EndSplineSet
Validated: 1
EndChar

StartChar: h
Encoding: 104 104 168
Width: 600
GlyphClass: 2
Flags: W
HStem: 0 21G<70 228 372 530> 432 117<292.684 431> 738 20G<70 228>
VStem: 70 158<0 392.524 478 742> 372 158<0 421.578>
LayerCount: 2
Fore
SplineSet
228 758 m 1
 228 478 l 1
 273 526 325 549 384 549 c 0
 478 549 530 491 530 390 c 2
 530 0 l 1
 372 0 l 1
 372 346 l 2
 372 410 360 432 321 432 c 0
 287 432 258 407 228 367 c 1
 228 0 l 1
 70 0 l 1
 70 742 l 1
 228 758 l 1
EndSplineSet
Validated: 1
EndChar

StartChar: hbar
Encoding: 295 295 169
Width: 600
GlyphClass: 2
Flags: W
HStem: 0 21G<70 228 372 530> 432 117<292.684 431> 593 92<8 70 228 369> 738 20G<70 228>
VStem: 70 158<0 392.524 478 593 685 742> 372 158<0 421.578>
LayerCount: 2
Fore
SplineSet
384 549 m 0
 478 549 530 491 530 390 c 2
 530 0 l 1
 372 0 l 1
 372 346 l 2
 372 410 360 432 321 432 c 0
 287 432 258 407 228 367 c 1
 228 0 l 1
 70 0 l 1
 70 593 l 1
 8 593 l 1
 8 685 l 1
 70 685 l 1
 70 742 l 1
 228 758 l 1
 228 685 l 1
 369 685 l 1
 369 593 l 1
 228 593 l 1
 228 478 l 1
 273 526 325 549 384 549 c 0
EndSplineSet
Validated: 1
EndChar

StartChar: hcircumflex
Encoding: 293 293 170
Width: 600
GlyphClass: 2
Flags: W
HStem: 0 21G<70 228 372 530> 432 117<292.684 431> 738 20G<70 228>
VStem: 70 158<0 392.524 478 742> 372 158<0 421.578>
LayerCount: 2
Fore
SplineSet
348 992 m 1
 489 862 l 1
 433 797 l 1
 300 882 l 1
 167 797 l 1
 110 862 l 1
 252 992 l 1
 348 992 l 1
228 758 m 1
 228 478 l 1
 273 526 325 549 384 549 c 0
 478 549 530 491 530 390 c 2
 530 0 l 1
 372 0 l 1
 372 346 l 2
 372 410 360 432 321 432 c 0
 287 432 258 407 228 367 c 1
 228 0 l 1
 70 0 l 1
 70 742 l 1
 228 758 l 1
EndSplineSet
Validated: 1
EndChar

StartChar: i
Encoding: 105 105 171
Width: 600
GlyphClass: 2
Flags: W
HStem: 0 108<86 236 394 530> 423 108<91 236> 631 178<236.23 361.34>
VStem: 205 187<661.005 778.588> 236 158<108 423>
LayerCount: 2
Fore
SplineSet
299 809 m 0xf0
 354 809 392 770 392 720 c 0
 392 669 354 631 299 631 c 0
 244 631 205 669 205 720 c 0
 205 770 244 809 299 809 c 0xf0
394 531 m 1xe8
 394 108 l 1
 530 108 l 1
 530 0 l 1
 86 0 l 1
 86 108 l 1
 236 108 l 1
 236 423 l 1
 91 423 l 1
 91 531 l 1
 394 531 l 1xe8
EndSplineSet
Validated: 1
EndChar

StartChar: dotlessi
Encoding: 305 305 172
Width: 600
GlyphClass: 2
Flags: W
HStem: 0 108<86 236 394 530> 423 108<91 236>
VStem: 236 158<108 423>
LayerCount: 2
Fore
SplineSet
394 531 m 1
 394 108 l 1
 530 108 l 1
 530 0 l 1
 86 0 l 1
 86 108 l 1
 236 108 l 1
 236 423 l 1
 91 423 l 1
 91 531 l 1
 394 531 l 1
EndSplineSet
Validated: 1
EndChar

StartChar: iacute
Encoding: 237 237 173
Width: 600
GlyphClass: 2
Flags: W
HStem: 0 108<86 236 394 530> 423 108<91 236>
VStem: 236 158<108 423>
LayerCount: 2
Fore
SplineSet
375 835 m 1
 437 716 l 1
 200 622 l 1
 157 703 l 1
 375 835 l 1
394 531 m 1
 394 108 l 1
 530 108 l 1
 530 0 l 1
 86 0 l 1
 86 108 l 1
 236 108 l 1
 236 423 l 1
 91 423 l 1
 91 531 l 1
 394 531 l 1
EndSplineSet
Validated: 1
EndChar

StartChar: ibreve
Encoding: 301 301 174
Width: 600
GlyphClass: 2
Flags: W
HStem: 0 108<86 236 394 530> 423 108<91 236> 612 108<245.957 351.689>
VStem: 127 87<753.258 787.207> 236 158<108 423> 384 87<753.258 787.207>
LayerCount: 2
Fore
SplineSet
299 612 m 0xf4
 188 612 135 698 127 786 c 1
 214 801 l 1
 226 753 253 720 299 720 c 0
 345 720 372 753 384 801 c 1
 471 786 l 1
 463 698 408 612 299 612 c 0xf4
394 531 m 1xf8
 394 108 l 1
 530 108 l 1
 530 0 l 1
 86 0 l 1
 86 108 l 1
 236 108 l 1
 236 423 l 1
 91 423 l 1
 91 531 l 1
 394 531 l 1xf8
EndSplineSet
Validated: 1
EndChar

StartChar: icircumflex
Encoding: 238 238 175
Width: 600
GlyphClass: 2
Flags: W
HStem: 0 108<86 236 394 530> 423 108<91 236>
VStem: 236 158<108 423>
LayerCount: 2
Fore
SplineSet
166 611 m 1
 109 676 l 1
 251 815 l 1
 347 815 l 1
 488 676 l 1
 432 611 l 1
 299 705 l 1
 166 611 l 1
394 531 m 1
 394 108 l 1
 530 108 l 1
 530 0 l 1
 86 0 l 1
 86 108 l 1
 236 108 l 1
 236 423 l 1
 91 423 l 1
 91 531 l 1
 394 531 l 1
EndSplineSet
Validated: 1
EndChar

StartChar: idieresis
Encoding: 239 239 176
Width: 600
GlyphClass: 2
Flags: W
HStem: 0 108<86 236 394 530> 423 108<91 236> 637 160<126.536 240.713 358.059 471.85>
VStem: 101 165<663.035 771.264> 236 158<108 423> 332 165<663.035 771.264>
LayerCount: 2
Fore
SplineSet
183 637 m 0xf0
 138 637 101 672 101 718 c 0
 101 762 138 797 183 797 c 0
 230 797 266 762 266 718 c 0
 266 672 230 637 183 637 c 0xf0
415 637 m 0
 370 637 332 672 332 718 c 0
 332 762 370 797 415 797 c 0
 461 797 497 762 497 718 c 0xe4
 497 672 461 637 415 637 c 0
394 531 m 1xe8
 394 108 l 1
 530 108 l 1
 530 0 l 1
 86 0 l 1
 86 108 l 1
 236 108 l 1
 236 423 l 1
 91 423 l 1
 91 531 l 1
 394 531 l 1xe8
EndSplineSet
Validated: 1
EndChar

StartChar: igrave
Encoding: 236 236 177
Width: 600
GlyphClass: 2
Flags: W
HStem: 0 108<86 236 394 530> 423 108<91 236>
VStem: 236 158<108 423>
LayerCount: 2
Fore
SplineSet
398 622 m 1
 162 716 l 1
 223 835 l 1
 441 702 l 1
 398 622 l 1
394 531 m 1
 394 108 l 1
 530 108 l 1
 530 0 l 1
 86 0 l 1
 86 108 l 1
 236 108 l 1
 236 423 l 1
 91 423 l 1
 91 531 l 1
 394 531 l 1
EndSplineSet
Validated: 1
EndChar

StartChar: ij
Encoding: 307 307 178
Width: 600
GlyphClass: 2
Flags: W
HStem: -222 21G<236.111 340.5> 0 108<35 104 260 312> 424 107<40 104 260 388> 631 178<120.066 245.607 393.23 518.364>
VStem: 89 188<661.005 778.588> 104 156<108 424> 362 188<662.621 776.964> 388 157<4.27581 424>
LayerCount: 2
Fore
SplineSet
182 809 m 0xf8
 238 809 277 770 277 720 c 0
 277 669 238 631 182 631 c 0
 128 631 89 669 89 720 c 0
 89 770 128 809 182 809 c 0xf8
456 809 m 0
 510 809 550 770 550 720 c 0
 550 669 510 631 456 631 c 0
 401 631 362 669 362 720 c 0xf2
 362 770 401 809 456 809 c 0
545 531 m 1xf5
 545 122 l 2
 545 -86 436 -164 245 -222 c 1
 193 -105 l 1
 323 -65 388 -24 388 108 c 2
 388 424 l 1
 260 424 l 1
 260 108 l 1
 312 108 l 1
 312 0 l 1
 35 0 l 1
 35 108 l 1
 104 108 l 1
 104 424 l 1
 40 424 l 1
 40 531 l 1
 545 531 l 1xf5
EndSplineSet
Validated: 1
EndChar

StartChar: imacron
Encoding: 299 299 179
Width: 600
GlyphClass: 2
Flags: W
HStem: 0 108<86 236 394 530> 423 108<91 236> 658 109<146 452>
VStem: 236 158<108 423>
LayerCount: 2
Fore
SplineSet
452 658 m 1
 146 658 l 1
 146 767 l 1
 452 767 l 1
 452 658 l 1
394 531 m 1
 394 108 l 1
 530 108 l 1
 530 0 l 1
 86 0 l 1
 86 108 l 1
 236 108 l 1
 236 423 l 1
 91 423 l 1
 91 531 l 1
 394 531 l 1
EndSplineSet
Validated: 1
EndChar

StartChar: iogonek
Encoding: 303 303 180
Width: 600
GlyphClass: 2
Flags: W
HStem: -253 94<287.574 379.435> 0 108<86 236 394 530> 423 108<91 236> 631 178<236.23 361.34>
VStem: 169 110<-149.126 -53.1755> 205 187<661.005 778.588> 236 158<108 423>
LayerCount: 2
Fore
SplineSet
299 631 m 0xf4
 244 631 205 669 205 720 c 0
 205 770 244 809 299 809 c 0
 354 809 392 770 392 720 c 0
 392 669 354 631 299 631 c 0xf4
394 108 m 1xf2
 530 108 l 1
 530 0 l 1
 394 0 l 1xf2
 301 -32 279 -69 279 -110 c 0
 279 -143 302 -159 337 -159 c 0
 358 -159 374 -156 391 -152 c 1
 379 -245 l 1
 361 -250 343 -253 320 -253 c 0
 235 -253 169 -209 169 -130 c 0xf8
 169 -69 200 -29 249 0 c 1
 86 0 l 1
 86 108 l 1
 236 108 l 1
 236 423 l 1
 91 423 l 1
 91 531 l 1
 394 531 l 1
 394 108 l 1xf2
EndSplineSet
Validated: 1
EndChar

StartChar: itilde
Encoding: 297 297 181
Width: 600
GlyphClass: 2
Flags: W
HStem: 0 108<86 236 394 530> 423 108<91 236> 635 112<307.671 391.817> 680 112<202.347 287.014>
VStem: 236 158<108 423>
LayerCount: 2
Fore
SplineSet
355 635 m 0xe8
 297 635 274 680 241 680 c 0
 216 680 204 665 188 636 c 1
 109 674 l 1
 134 738 177 792 238 792 c 0xd8
 299 792 320 747 354 747 c 0
 376 747 389 761 406 790 c 1
 485 752 l 1
 459 685 415 635 355 635 c 0xe8
394 531 m 1
 394 108 l 1
 530 108 l 1
 530 0 l 1
 86 0 l 1
 86 108 l 1
 236 108 l 1
 236 423 l 1
 91 423 l 1
 91 531 l 1
 394 531 l 1
EndSplineSet
Validated: 1
EndChar

StartChar: j
Encoding: 106 106 182
Width: 600
GlyphClass: 2
Flags: W
HStem: -222 121<92.6116 146.078> 423 108<124 314> 631 178<306.823 431.934>
VStem: 276 187<661.005 778.588> 314 158<38.092 423>
LayerCount: 2
Fore
SplineSet
370 809 m 0xf0
 424 809 463 770 463 720 c 0
 463 669 424 631 370 631 c 0
 314 631 276 669 276 720 c 0
 276 770 314 809 370 809 c 0xf0
472 531 m 1xe8
 472 154 l 2
 472 -76 342 -173 94 -222 c 1
 70 -101 l 1
 231 -65 314 -10 314 144 c 2
 314 423 l 1
 124 423 l 1
 124 531 l 1
 472 531 l 1xe8
EndSplineSet
Validated: 1
EndChar

StartChar: uni0237
Encoding: 567 567 183
Width: 600
GlyphClass: 2
Flags: W
HStem: -222 121<92.6116 146.078> 423 108<124 314>
VStem: 314 158<38.092 423>
LayerCount: 2
Fore
SplineSet
472 531 m 1
 472 154 l 2
 472 -76 342 -173 94 -222 c 1
 70 -101 l 1
 231 -65 314 -10 314 144 c 2
 314 423 l 1
 124 423 l 1
 124 531 l 1
 472 531 l 1
EndSplineSet
Validated: 1
EndChar

StartChar: jcircumflex
Encoding: 309 309 184
Width: 600
GlyphClass: 2
Flags: W
HStem: -222 121<92.6116 146.078> 423 108<124 314>
VStem: 314 158<38.092 423>
LayerCount: 2
Fore
SplineSet
237 611 m 1
 180 676 l 1
 322 815 l 1
 418 815 l 1
 559 676 l 1
 503 611 l 1
 370 705 l 1
 237 611 l 1
472 531 m 1
 472 154 l 2
 472 -76 342 -173 94 -222 c 1
 70 -101 l 1
 231 -65 314 -10 314 144 c 2
 314 423 l 1
 124 423 l 1
 124 531 l 1
 472 531 l 1
EndSplineSet
Validated: 1
EndChar

StartChar: k
Encoding: 107 107 185
Width: 600
GlyphClass: 2
Flags: W
HStem: 0 21G<70 228 396.041 588> 511 20G<394.417 574> 739 20G<70 228>
VStem: 70 158<0 742>
LayerCount: 2
Fore
SplineSet
228 759 m 1
 228 0 l 1
 70 0 l 1
 70 742 l 1
 228 759 l 1
574 531 m 1
 399 296 l 1
 588 0 l 1
 408 0 l 1
 234 291 l 1
 409 531 l 1
 574 531 l 1
EndSplineSet
Validated: 1
EndChar

StartChar: kcommaaccent
Encoding: 311 311 186
Width: 600
GlyphClass: 2
Flags: W
HStem: 0 21G<70 228 396.041 588> 511 20G<394.417 574> 739 20G<70 228>
VStem: 70 158<0 742> 221 157<-197.108 -89.2149>
LayerCount: 2
Fore
SplineSet
228 759 m 1xf0
 228 0 l 1
 70 0 l 1
 70 742 l 1
 228 759 l 1xf0
574 531 m 1
 399 296 l 1
 588 0 l 1
 408 0 l 1
 234 291 l 1
 409 531 l 1
 574 531 l 1
300 -65 m 0
 345 -65 378 -98 378 -143 c 0
 378 -166 370 -195 355 -225 c 2
 306 -322 l 1
 226 -322 l 1
 253 -207 l 1
 235 -192 221 -171 221 -143 c 0xe8
 221 -100 254 -65 300 -65 c 0
EndSplineSet
Validated: 1
EndChar

StartChar: kgreenlandic
Encoding: 312 312 187
Width: 600
GlyphClass: 2
Flags: W
HStem: 0 21G<70 228 395.391 588> 511 20G<70 228 395.275 574>
VStem: 70 158<0 531>
LayerCount: 2
Fore
SplineSet
228 531 m 1
 228 0 l 1
 70 0 l 1
 70 531 l 1
 228 531 l 1
574 531 m 1
 398 287 l 1
 588 0 l 1
 408 0 l 1
 234 276 l 1
 409 531 l 1
 574 531 l 1
EndSplineSet
Validated: 1
EndChar

StartChar: l
Encoding: 108 108 188
Width: 600
GlyphClass: 2
Flags: W
HStem: -17 125<357.451 494.428> 634 108<33 189>
VStem: 189 158<121.757 634>
LayerCount: 2
Fore
SplineSet
347 742 m 1
 347 167 l 2
 347 124 373 108 415 108 c 0
 443 108 469 115 491 124 c 1
 528 18 l 1
 493 -1 443 -17 375 -17 c 0
 247 -17 189 62 189 187 c 2
 189 634 l 1
 33 634 l 1
 33 742 l 1
 347 742 l 1
EndSplineSet
Validated: 1
EndChar

StartChar: lacute
Encoding: 314 314 189
Width: 600
GlyphClass: 2
Flags: W
HStem: -17 125<357.451 494.428> 634 108<33 189>
VStem: 189 158<121.757 634>
LayerCount: 2
Fore
SplineSet
332 1046 m 1
 394 927 l 1
 157 833 l 1
 114 914 l 1
 332 1046 l 1
347 742 m 1
 347 167 l 2
 347 124 373 108 415 108 c 0
 443 108 469 115 491 124 c 1
 528 18 l 1
 493 -1 443 -17 375 -17 c 0
 247 -17 189 62 189 187 c 2
 189 634 l 1
 33 634 l 1
 33 742 l 1
 347 742 l 1
EndSplineSet
Validated: 1
EndChar

StartChar: lcaron
Encoding: 318 318 190
Width: 600
GlyphClass: 2
Flags: W
HStem: -17 125<357.451 494.428> 634 108<33 189>
VStem: 189 158<121.757 634>
LayerCount: 2
Fore
SplineSet
420 764 m 1
 559 747 l 1
 481 515 l 1
 383 531 l 1
 420 764 l 1
347 742 m 1
 347 167 l 2
 347 124 373 108 415 108 c 0
 443 108 469 115 491 124 c 1
 528 18 l 1
 493 -1 443 -17 375 -17 c 0
 247 -17 189 62 189 187 c 2
 189 634 l 1
 33 634 l 1
 33 742 l 1
 347 742 l 1
EndSplineSet
Validated: 1
EndChar

StartChar: lcommaaccent
Encoding: 316 316 191
Width: 600
GlyphClass: 2
Flags: W
HStem: -17 125<357.451 494.428> 634 108<33 189>
VStem: 189 158<121.757 634> 276 157<-197.108 -89.2149>
LayerCount: 2
Fore
SplineSet
347 742 m 1xe0
 347 167 l 2
 347 124 373 108 415 108 c 0
 443 108 469 115 491 124 c 1
 528 18 l 1
 493 -1 443 -17 375 -17 c 0
 247 -17 189 62 189 187 c 2
 189 634 l 1
 33 634 l 1
 33 742 l 1
 347 742 l 1xe0
355 -65 m 0
 400 -65 433 -98 433 -143 c 0
 433 -166 425 -195 410 -225 c 2
 361 -322 l 1
 281 -322 l 1
 308 -207 l 1
 290 -192 276 -171 276 -143 c 0xd0
 276 -100 309 -65 355 -65 c 0
EndSplineSet
Validated: 1
EndChar

StartChar: ldot
Encoding: 320 320 192
Width: 600
GlyphClass: 2
Flags: W
HStem: -17 125<357.451 494.428> 294 178<505.23 630.34> 634 108<33 189>
VStem: 189 158<121.757 634> 474 187<324.005 441.588>
LayerCount: 2
Fore
SplineSet
347 742 m 1
 347 167 l 2
 347 124 373 108 415 108 c 0
 443 108 469 115 491 124 c 1
 528 18 l 1
 493 -1 443 -17 375 -17 c 0
 247 -17 189 62 189 187 c 2
 189 634 l 1
 33 634 l 1
 33 742 l 1
 347 742 l 1
568 472 m 0
 623 472 661 433 661 383 c 0
 661 332 623 294 568 294 c 0
 513 294 474 332 474 383 c 0
 474 433 513 472 568 472 c 0
EndSplineSet
Validated: 1
EndChar

StartChar: lslash
Encoding: 322 322 193
Width: 600
GlyphClass: 2
Flags: W
HStem: -17 125<357.451 494.428> 634 108<33 189>
VStem: 189 158<121.757 258 477 634>
LayerCount: 2
Fore
SplineSet
491 124 m 1
 528 18 l 1
 493 -1 443 -17 375 -17 c 0
 247 -17 189 62 189 187 c 2
 189 258 l 1
 144 231 l 1
 89 319 l 1
 189 380 l 1
 189 634 l 1
 33 634 l 1
 33 742 l 1
 347 742 l 1
 347 477 l 1
 412 517 l 1
 468 428 l 1
 347 354 l 1
 347 167 l 2
 347 124 373 108 415 108 c 0
 443 108 469 115 491 124 c 1
EndSplineSet
Validated: 1
EndChar

StartChar: m
Encoding: 109 109 194
Width: 600
GlyphClass: 2
Flags: W
HStem: 0 21G<27 164 245 357 438 573> 426 123<197.955 284 392.489 500.5> 511 20G<27 146.314>
VStem: 27 137<0 413.258> 245 112<0 413.258> 438 135<0 422.034>
LayerCount: 2
Fore
SplineSet
463 549 m 0xdc
 538 549 573 502 573 393 c 2
 573 0 l 1
 438 0 l 1
 438 375 l 2
 438 412 433 426 412 426 c 0
 395 426 378 418 357 391 c 1
 357 0 l 1
 245 0 l 1
 245 375 l 2
 245 412 240 426 219 426 c 0xdc
 203 426 185 418 164 391 c 1
 164 0 l 1
 27 0 l 1
 27 531 l 1
 142 531 l 1xbc
 153 480 l 1
 186 525 217 549 264 549 c 0
 304 549 334 529 346 486 c 1
 378 523 415 549 463 549 c 0xdc
EndSplineSet
Validated: 1
EndChar

StartChar: n
Encoding: 110 110 195
Width: 600
GlyphClass: 2
Flags: W
HStem: 0 21G<70 228 372 530> 432 117<290.024 429.5> 511 20G<70 211.607>
VStem: 70 158<0 395.144> 372 158<0 421.578>
LayerCount: 2
Fore
SplineSet
70 0 m 1xd8
 70 531 l 1
 208 531 l 1xb8
 219 470 l 1
 266 523 316 549 384 549 c 0
 475 549 530 491 530 390 c 2
 530 0 l 1
 372 0 l 1
 372 344 l 2
 372 410 360 432 321 432 c 0
 287 432 258 409 228 371 c 1
 228 0 l 1
 70 0 l 1xd8
EndSplineSet
Validated: 1
EndChar

StartChar: nacute
Encoding: 324 324 196
Width: 600
GlyphClass: 2
Flags: W
HStem: 0 21G<70 228 372 530> 432 117<290.024 429.5> 511 20G<70 211.607>
VStem: 70 158<0 395.144> 372 158<0 421.578>
LayerCount: 2
Fore
SplineSet
377 835 m 1x98
 439 716 l 1
 202 622 l 1
 159 703 l 1
 377 835 l 1x98
70 0 m 1
 70 531 l 1
 208 531 l 1xb8
 219 470 l 1
 266 523 316 549 384 549 c 0
 475 549 530 491 530 390 c 2
 530 0 l 1
 372 0 l 1
 372 344 l 2
 372 410 360 432 321 432 c 0xd8
 287 432 258 409 228 371 c 1
 228 0 l 1
 70 0 l 1
EndSplineSet
Validated: 1
EndChar

StartChar: napostrophe
Encoding: 329 329 197
Width: 600
GlyphClass: 2
Flags: W
HStem: 0 21G<90 248 392 550> 432 117<309.722 449> 511 20G<90 231.607> 535 21G<-7 81.25>
VStem: -17 153<635.703 741.355> 90 158<0 396.562> 392 158<0 421.578>
LayerCount: 2
Fore
SplineSet
59 764 m 0x9a
 103 764 136 732 136 689 c 0
 136 664 128 645 112 615 c 2
 71 535 l 1
 -7 535 l 1
 14 627 l 1
 -3 641 -17 661 -17 689 c 0
 -17 729 15 764 59 764 c 0x9a
90 0 m 1xc6
 90 531 l 1
 228 531 l 1xa6
 239 470 l 1
 285 523 336 549 404 549 c 0
 494 549 550 491 550 390 c 2
 550 0 l 1
 392 0 l 1
 392 344 l 2
 392 409 380 432 341 432 c 0
 307 432 277 409 248 371 c 1
 248 0 l 1
 90 0 l 1xc6
EndSplineSet
Validated: 1
EndChar

StartChar: ncaron
Encoding: 328 328 198
Width: 600
GlyphClass: 2
Flags: W
HStem: 0 21G<70 228 372 530> 432 117<290.024 429.5> 511 20G<70 211.607>
VStem: 70 158<0 395.144> 372 158<0 421.578>
LayerCount: 2
Fore
SplineSet
434 815 m 1x98
 490 751 l 1
 349 611 l 1
 253 611 l 1
 111 751 l 1
 168 815 l 1
 301 721 l 1
 434 815 l 1x98
70 0 m 1
 70 531 l 1
 208 531 l 1xb8
 219 470 l 1
 266 523 316 549 384 549 c 0
 475 549 530 491 530 390 c 2
 530 0 l 1
 372 0 l 1
 372 344 l 2
 372 410 360 432 321 432 c 0xd8
 287 432 258 409 228 371 c 1
 228 0 l 1
 70 0 l 1
EndSplineSet
Validated: 1
EndChar

StartChar: ncommaaccent
Encoding: 326 326 199
Width: 600
GlyphClass: 2
Flags: W
HStem: 0 21G<70 228 372 530> 432 117<290.024 429.5> 511 20G<70 211.607>
VStem: 70 158<0 395.144> 222 157<-197.108 -89.2149> 372 158<0 421.578>
LayerCount: 2
Fore
SplineSet
70 0 m 1xd4
 70 531 l 1
 208 531 l 1xb4
 219 470 l 1
 266 523 316 549 384 549 c 0
 475 549 530 491 530 390 c 2
 530 0 l 1
 372 0 l 1
 372 344 l 2
 372 410 360 432 321 432 c 0
 287 432 258 409 228 371 c 1
 228 0 l 1
 70 0 l 1xd4
301 -65 m 0
 346 -65 379 -98 379 -143 c 0
 379 -166 371 -195 356 -225 c 2
 307 -322 l 1
 227 -322 l 1
 254 -207 l 1
 236 -192 222 -171 222 -143 c 0x88
 222 -100 255 -65 301 -65 c 0
EndSplineSet
Validated: 1
EndChar

StartChar: eng
Encoding: 331 331 200
Width: 600
GlyphClass: 2
Flags: W
HStem: -222 21G<309.345 382.5> 0 21G<70 228> 432 117<292.406 431> 511 20G<70 211.607>
VStem: 70 158<0 392.524> 372 158<-38.4413 421.578>
LayerCount: 2
Fore
SplineSet
530 60 m 2xec
 530 -114 446 -170 319 -222 c 1
 263 -106 l 1
 332 -76 372 -46 372 50 c 2
 372 344 l 2
 372 410 361 432 321 432 c 0xec
 287 432 258 407 228 367 c 1
 228 0 l 1
 70 0 l 1
 70 531 l 1
 208 531 l 1xdc
 219 470 l 1
 266 523 321 549 384 549 c 0
 478 549 530 491 530 390 c 2
 530 60 l 2xec
EndSplineSet
Validated: 1
EndChar

StartChar: ntilde
Encoding: 241 241 201
Width: 600
GlyphClass: 2
Flags: W
HStem: 0 21G<70 228 372 530> 432 117<290.024 429.5> 511 20G<70 211.607> 635 112<309.671 393.817> 680 112<204.347 289.014>
VStem: 70 158<0 395.144> 372 158<0 421.578>
LayerCount: 2
Fore
SplineSet
357 635 m 0x96
 299 635 276 680 243 680 c 0
 218 680 206 665 190 636 c 1
 111 674 l 1
 136 738 179 792 240 792 c 0x8e
 301 792 322 747 356 747 c 0
 378 747 391 761 408 790 c 1
 487 752 l 1
 461 685 417 635 357 635 c 0x96
70 0 m 1
 70 531 l 1
 208 531 l 1xa6
 219 470 l 1
 266 523 316 549 384 549 c 0
 475 549 530 491 530 390 c 2
 530 0 l 1
 372 0 l 1
 372 344 l 2
 372 410 360 432 321 432 c 0xc6
 287 432 258 409 228 371 c 1
 228 0 l 1
 70 0 l 1
EndSplineSet
Validated: 1
EndChar

StartChar: o
Encoding: 111 111 202
Width: 600
GlyphClass: 2
Flags: W
HStem: -17 116<241.746 358.254> 432 117<241.746 358.397>
VStem: 42 163<143.545 388.925> 395 163<140.998 389.622>
LayerCount: 2
Fore
SplineSet
300 549 m 0
 464 549 558 437 558 267 c 0
 558 89 463 -17 300 -17 c 0
 137 -17 42 87 42 266 c 0
 42 435 137 549 300 549 c 0
300 432 m 0
 235 432 205 382 205 266 c 0
 205 148 235 99 300 99 c 0
 365 99 395 148 395 267 c 0
 395 382 365 432 300 432 c 0
EndSplineSet
Validated: 1
EndChar

StartChar: oacute
Encoding: 243 243 203
Width: 600
GlyphClass: 2
Flags: W
HStem: -17 116<241.746 358.254> 432 117<241.746 358.397>
VStem: 42 163<143.545 388.925> 395 163<140.998 389.622>
LayerCount: 2
Fore
SplineSet
376 835 m 1
 438 716 l 1
 201 622 l 1
 158 703 l 1
 376 835 l 1
300 549 m 0
 464 549 558 437 558 267 c 0
 558 89 463 -17 300 -17 c 0
 137 -17 42 87 42 266 c 0
 42 435 137 549 300 549 c 0
300 432 m 0
 235 432 205 382 205 266 c 0
 205 148 235 99 300 99 c 0
 365 99 395 148 395 267 c 0
 395 382 365 432 300 432 c 0
EndSplineSet
Validated: 1
EndChar

StartChar: obreve
Encoding: 335 335 204
Width: 600
GlyphClass: 2
Flags: W
HStem: -17 116<241.746 358.254> 432 117<241.746 358.397> 612 108<246.957 352.689>
VStem: 42 163<143.545 388.925> 128 87<753.258 787.207> 385 87<753.258 787.207> 395 163<140.998 389.622>
LayerCount: 2
Fore
SplineSet
300 612 m 0xec
 189 612 136 698 128 786 c 1
 215 801 l 1
 227 753 254 720 300 720 c 0
 346 720 373 753 385 801 c 1
 472 786 l 1
 464 698 409 612 300 612 c 0xec
300 549 m 0
 464 549 558 437 558 267 c 0
 558 89 463 -17 300 -17 c 0
 137 -17 42 87 42 266 c 0xf2
 42 435 137 549 300 549 c 0
300 432 m 0
 235 432 205 382 205 266 c 0
 205 148 235 99 300 99 c 0
 365 99 395 148 395 267 c 0
 395 382 365 432 300 432 c 0
EndSplineSet
Validated: 1
EndChar

StartChar: ocircumflex
Encoding: 244 244 205
Width: 600
GlyphClass: 2
Flags: W
HStem: -17 116<241.746 358.254> 432 117<241.746 358.397>
VStem: 42 163<143.545 388.925> 395 163<140.998 389.622>
LayerCount: 2
Fore
SplineSet
167 611 m 1
 110 676 l 1
 252 815 l 1
 348 815 l 1
 489 676 l 1
 433 611 l 1
 300 705 l 1
 167 611 l 1
300 549 m 0
 464 549 558 437 558 267 c 0
 558 89 463 -17 300 -17 c 0
 137 -17 42 87 42 266 c 0
 42 435 137 549 300 549 c 0
300 432 m 0
 235 432 205 382 205 266 c 0
 205 148 235 99 300 99 c 0
 365 99 395 148 395 267 c 0
 395 382 365 432 300 432 c 0
EndSplineSet
Validated: 1
EndChar

StartChar: odieresis
Encoding: 246 246 206
Width: 600
GlyphClass: 2
Flags: W
HStem: -17 116<241.746 358.254> 432 117<241.746 358.397> 637 160<127.536 241.713 359.059 472.85>
VStem: 42 163<143.545 388.925> 102 165<663.035 771.264> 333 165<663.035 771.264> 395 163<140.998 389.622>
LayerCount: 2
Fore
SplineSet
184 637 m 0xe8
 139 637 102 672 102 718 c 0
 102 762 139 797 184 797 c 0
 231 797 267 762 267 718 c 0
 267 672 231 637 184 637 c 0xe8
416 637 m 0
 371 637 333 672 333 718 c 0
 333 762 371 797 416 797 c 0
 462 797 498 762 498 718 c 0xe4
 498 672 462 637 416 637 c 0
300 549 m 0
 464 549 558 437 558 267 c 0
 558 89 463 -17 300 -17 c 0
 137 -17 42 87 42 266 c 0xf2
 42 435 137 549 300 549 c 0
300 432 m 0
 235 432 205 382 205 266 c 0
 205 148 235 99 300 99 c 0
 365 99 395 148 395 267 c 0
 395 382 365 432 300 432 c 0
EndSplineSet
Validated: 1
EndChar

StartChar: ograve
Encoding: 242 242 207
Width: 600
GlyphClass: 2
Flags: W
HStem: -17 116<241.746 358.254> 432 117<241.746 358.397>
VStem: 42 163<143.545 388.925> 395 163<140.998 389.622>
LayerCount: 2
Fore
SplineSet
399 622 m 1
 163 716 l 1
 224 835 l 1
 442 702 l 1
 399 622 l 1
300 549 m 0
 464 549 558 437 558 267 c 0
 558 89 463 -17 300 -17 c 0
 137 -17 42 87 42 266 c 0
 42 435 137 549 300 549 c 0
300 432 m 0
 235 432 205 382 205 266 c 0
 205 148 235 99 300 99 c 0
 365 99 395 148 395 267 c 0
 395 382 365 432 300 432 c 0
EndSplineSet
Validated: 1
EndChar

StartChar: ohungarumlaut
Encoding: 337 337 208
Width: 600
GlyphClass: 2
Flags: W
HStem: -17 116<241.746 358.254> 432 117<241.746 358.397>
VStem: 42 163<143.545 388.925> 395 163<140.998 389.622>
LayerCount: 2
Fore
SplineSet
160 661 m 1
 259 857 l 1
 366 808 l 1
 242 625 l 1
 160 661 l 1
323 663 m 1
 423 857 l 1
 529 806 l 1
 404 624 l 1
 323 663 l 1
300 549 m 0
 464 549 558 437 558 267 c 0
 558 89 463 -17 300 -17 c 0
 137 -17 42 87 42 266 c 0
 42 435 137 549 300 549 c 0
300 432 m 0
 235 432 205 382 205 266 c 0
 205 148 235 99 300 99 c 0
 365 99 395 148 395 267 c 0
 395 382 365 432 300 432 c 0
EndSplineSet
Validated: 1
EndChar

StartChar: omacron
Encoding: 333 333 209
Width: 600
GlyphClass: 2
Flags: W
HStem: -17 116<241.746 358.254> 432 117<241.746 358.397> 658 109<147 453>
VStem: 42 163<143.545 388.925> 395 163<140.998 389.622>
LayerCount: 2
Fore
SplineSet
453 658 m 1
 147 658 l 1
 147 767 l 1
 453 767 l 1
 453 658 l 1
300 549 m 0
 464 549 558 437 558 267 c 0
 558 89 463 -17 300 -17 c 0
 137 -17 42 87 42 266 c 0
 42 435 137 549 300 549 c 0
300 432 m 0
 235 432 205 382 205 266 c 0
 205 148 235 99 300 99 c 0
 365 99 395 148 395 267 c 0
 395 382 365 432 300 432 c 0
EndSplineSet
Validated: 1
EndChar

StartChar: oslash
Encoding: 248 248 210
Width: 600
GlyphClass: 2
Flags: W
HStem: -17 113<286 357.885> 435 114<241.577 316>
VStem: 42 160<135.942 388.871> 398 160<141.06 390.334>
LayerCount: 2
Fore
SplineSet
445 510 m 1
 518 464 558 378 558 267 c 0
 558 89 463 -17 300 -17 c 0
 289 -17 279 -16 269 -16 c 1
 232 -137 l 1
 116 -103 l 1
 156 19 l 1
 83 64 42 149 42 266 c 0
 42 435 137 549 300 549 c 0
 311 549 321 548 331 547 c 1
 370 663 l 1
 484 629 l 1
 445 510 l 1
300 435 m 0
 232 435 202 385 202 266 c 0
 202 203 207 162 220 135 c 1
 316 434 l 1
 311 435 306 435 300 435 c 0
300 96 m 2
 368 96 398 145 398 267 c 0
 398 326 394 367 381 393 c 1
 286 96 l 1
 300 96 l 2
EndSplineSet
Validated: 1
EndChar

StartChar: oslashacute
Encoding: 511 511 211
Width: 600
GlyphClass: 2
Flags: W
HStem: -17 113<286 357.885> 435 114<241.577 316>
VStem: 42 160<135.942 388.871> 398 160<141.06 390.334>
LayerCount: 2
Fore
SplineSet
438 716 m 1
 201 622 l 1
 158 703 l 1
 376 835 l 1
 438 716 l 1
445 510 m 1
 518 464 558 378 558 267 c 0
 558 89 463 -17 300 -17 c 0
 289 -17 279 -16 269 -16 c 1
 232 -137 l 1
 116 -103 l 1
 156 19 l 1
 83 64 42 149 42 266 c 0
 42 435 137 549 300 549 c 0
 311 549 321 548 331 547 c 1
 370 663 l 1
 484 629 l 1
 445 510 l 1
300 435 m 0
 232 435 202 385 202 266 c 0
 202 203 207 162 220 135 c 1
 316 434 l 1
 311 435 306 435 300 435 c 0
300 96 m 2
 368 96 398 145 398 267 c 0
 398 326 394 367 381 393 c 1
 286 96 l 1
 300 96 l 2
EndSplineSet
Validated: 1
EndChar

StartChar: otilde
Encoding: 245 245 212
Width: 600
GlyphClass: 2
Flags: W
HStem: -17 116<241.746 358.254> 432 117<241.746 358.397> 635 112<308.671 392.817> 680 112<203.347 288.014>
VStem: 42 163<143.545 388.925> 395 163<140.998 389.622>
LayerCount: 2
Fore
SplineSet
356 635 m 0xec
 298 635 275 680 242 680 c 0
 217 680 205 665 189 636 c 1
 110 674 l 1
 135 738 178 792 239 792 c 0xdc
 300 792 321 747 355 747 c 0
 377 747 390 761 407 790 c 1
 486 752 l 1
 460 685 416 635 356 635 c 0xec
300 549 m 0
 464 549 558 437 558 267 c 0
 558 89 463 -17 300 -17 c 0
 137 -17 42 87 42 266 c 0
 42 435 137 549 300 549 c 0
300 432 m 0
 235 432 205 382 205 266 c 0
 205 148 235 99 300 99 c 0
 365 99 395 148 395 267 c 0
 395 382 365 432 300 432 c 0
EndSplineSet
Validated: 1
EndChar

StartChar: oe
Encoding: 339 339 213
Width: 600
GlyphClass: 2
Flags: W
HStem: -17 116<145.194 220.211> -17 104<407.598 530.178> 226 86<369 487> 432 117<145.653 219.03> 450 99<392.758 467.452>
VStem: -8 131<119.831 411.945> 241 128<134.571 226 312 411.319> 487 119<312 434.306>
LayerCount: 2
Fore
SplineSet
438 549 m 0x2f
 561 549 606 452 606 276 c 0
 606 258 605 242 603 226 c 1
 369 226 l 1
 377 130 407 87 462 87 c 0
 493 87 517 98 546 119 c 1
 606 40 l 1
 567 7 519 -17 454 -17 c 0x6f
 384 -17 334 12 302 63 c 1
 278 13 241 -17 176 -17 c 0
 49 -17 -8 87 -8 266 c 0
 -8 435 48 549 176 549 c 0xb7
 244 549 281 517 305 465 c 1
 331 514 372 549 438 549 c 0x2f
432 450 m 0
 393 450 373 416 368 312 c 1
 487 312 l 1
 486 406 476 450 432 450 c 0
182 432 m 0xb7
 138 432 123 387 123 266 c 0
 123 140 138 99 182 99 c 0
 225 99 241 138 241 267 c 0
 241 387 224 432 182 432 c 0xb7
EndSplineSet
Validated: 1
EndChar

StartChar: p
Encoding: 112 112 214
Width: 600
GlyphClass: 2
Flags: W
HStem: -222 21G<70 228> -17 116<268.558 420.885> 432 117<281.215 433.682> 511 20G<70 212.373>
VStem: 70 158<-205 38 120.919 400.321> 395 163<141.451 397.39>
LayerCount: 2
Fore
SplineSet
364 549 m 0xec
 502 549 558 440 558 267 c 0
 558 103 483 -17 354 -17 c 0
 302 -17 260 2 228 38 c 1
 228 -205 l 1
 70 -222 l 1
 70 531 l 1
 210 531 l 1xdc
 217 472 l 1
 260 526 314 549 364 549 c 0xec
315 432 m 0xec
 278 432 251 409 228 370 c 1
 228 146 l 1
 250 114 273 99 306 99 c 0
 362 99 395 145 395 265 c 0
 395 397 365 432 315 432 c 0xec
EndSplineSet
Validated: 1
EndChar

StartChar: thorn
Encoding: 254 254 215
Width: 600
GlyphClass: 2
Flags: W
HStem: -222 21G<70 228> -17 116<268.558 420.885> 432 117<282.16 433.682> 739 20G<70 228>
VStem: 70 158<-205 38 120.919 400.321 478 742> 395 163<141.451 397.39>
LayerCount: 2
Fore
SplineSet
228 759 m 1
 228 478 l 1
 260 523 308 549 364 549 c 0
 502 549 558 440 558 267 c 0
 558 103 483 -17 354 -17 c 0
 302 -17 260 2 228 38 c 1
 228 -205 l 1
 70 -222 l 1
 70 742 l 1
 228 759 l 1
315 432 m 0
 278 432 251 409 228 370 c 1
 228 146 l 1
 250 114 273 99 306 99 c 0
 362 99 395 145 395 265 c 0
 395 397 365 432 315 432 c 0
EndSplineSet
Validated: 1
EndChar

StartChar: q
Encoding: 113 113 216
Width: 600
GlyphClass: 2
Flags: W
HStem: -222 21G<372 530> -17 117<167.852 324.619> 433 116<242.071 339.443> 511 20G<388.744 530>
VStem: 42 163<136.774 387.756> 372 158<-205 45 130.544 412.545>
LayerCount: 2
Fore
SplineSet
255 549 m 0xec
 307 549 353 528 385 488 c 1
 392 531 l 1
 530 531 l 1xdc
 530 -222 l 1
 372 -205 l 1
 372 45 l 1
 341 8 299 -17 236 -17 c 0
 100 -17 42 95 42 267 c 0
 42 431 119 549 255 549 c 0xec
296 433 m 0xec
 238 433 205 385 205 266 c 0
 205 135 237 100 286 100 c 0
 323 100 350 122 372 160 c 1
 372 389 l 1
 351 417 328 433 296 433 c 0xec
EndSplineSet
Validated: 1
EndChar

StartChar: r
Encoding: 114 114 217
Width: 600
GlyphClass: 2
Flags: W
HStem: 0 106<75 145 303 408> 309 238<437.107 534> 426 105<75 145>
VStem: 145 158<106 309.89> 434 100<309 362.586>
LayerCount: 2
Fore
SplineSet
475 547 m 0xd8
 511 547 538 541 563 531 c 1xb8
 534 309 l 1
 434 309 l 1xd8
 434 407 l 1
 374 396 328 337 303 258 c 1
 303 106 l 1
 408 106 l 1
 408 0 l 1
 75 0 l 1
 75 106 l 1
 145 106 l 1
 145 426 l 1
 75 426 l 1
 75 531 l 1
 266 531 l 1xb8
 294 412 l 1
 332 503 390 547 475 547 c 0xd8
EndSplineSet
Validated: 1
EndChar

StartChar: racute
Encoding: 341 341 218
Width: 600
GlyphClass: 2
Flags: W
HStem: 0 106<75 145 303 408> 309 238<437.107 534> 426 105<75 145>
VStem: 145 158<106 309.89> 434 100<309 362.586>
LayerCount: 2
Fore
SplineSet
463 716 m 1x98
 226 622 l 1
 183 703 l 1
 401 835 l 1
 463 716 l 1x98
475 547 m 0xd8
 511 547 538 541 563 531 c 1xb8
 534 309 l 1
 434 309 l 1xd8
 434 407 l 1
 374 396 328 337 303 258 c 1
 303 106 l 1
 408 106 l 1
 408 0 l 1
 75 0 l 1
 75 106 l 1
 145 106 l 1
 145 426 l 1
 75 426 l 1
 75 531 l 1
 266 531 l 1xb8
 294 412 l 1
 332 503 390 547 475 547 c 0xd8
EndSplineSet
Validated: 1
EndChar

StartChar: rcaron
Encoding: 345 345 219
Width: 600
GlyphClass: 2
Flags: W
HStem: 0 106<75 145 303 408> 309 238<437.107 534> 426 105<75 145>
VStem: 145 158<106 309.89> 434 100<309 362.586>
LayerCount: 2
Fore
SplineSet
373 611 m 1x98
 277 611 l 1
 135 751 l 1
 192 815 l 1
 325 721 l 1
 458 815 l 1
 514 751 l 1
 373 611 l 1x98
475 547 m 0xd8
 511 547 538 541 563 531 c 1xb8
 534 309 l 1
 434 309 l 1xd8
 434 407 l 1
 374 396 328 337 303 258 c 1
 303 106 l 1
 408 106 l 1
 408 0 l 1
 75 0 l 1
 75 106 l 1
 145 106 l 1
 145 426 l 1
 75 426 l 1
 75 531 l 1
 266 531 l 1xb8
 294 412 l 1
 332 503 390 547 475 547 c 0xd8
EndSplineSet
Validated: 1
EndChar

StartChar: rcommaaccent
Encoding: 343 343 220
Width: 600
GlyphClass: 2
Flags: W
HStem: 0 106<75 145 303 408> 309 238<437.107 534> 426 105<75 145>
VStem: 145 157<-197.108 -89.2149 106 309.89> 434 100<309 362.586>
LayerCount: 2
Fore
SplineSet
475 547 m 0xd8
 511 547 538 541 563 531 c 1xb8
 534 309 l 1
 434 309 l 1xd8
 434 407 l 1
 374 396 328 337 303 258 c 1
 303 106 l 1
 408 106 l 1
 408 0 l 1
 75 0 l 1
 75 106 l 1
 145 106 l 1
 145 426 l 1
 75 426 l 1
 75 531 l 1
 266 531 l 1xb8
 294 412 l 1
 332 503 390 547 475 547 c 0xd8
224 -65 m 0
 269 -65 302 -98 302 -143 c 0
 302 -166 294 -195 279 -225 c 2
 230 -322 l 1
 150 -322 l 1
 177 -207 l 1
 159 -192 145 -171 145 -143 c 0
 145 -100 178 -65 224 -65 c 0
EndSplineSet
Validated: 1
EndChar

StartChar: s
Encoding: 115 115 221
Width: 600
GlyphClass: 2
Flags: W
HStem: -17 113<185.701 358.289> 436 113<245.671 417.533>
VStem: 81 159<362.795 426.877> 371 164<111.466 183.486>
LayerCount: 2
Fore
SplineSet
283 96 m 0
 336 96 371 112 371 146 c 0
 371 180 351 193 245 222 c 0
 148 248 81 290 81 384 c 0
 81 479 162 549 311 549 c 0
 406 549 474 522 526 484 c 1
 463 391 l 1
 419 418 367 436 316 436 c 0
 264 436 240 423 240 395 c 0
 240 368 261 356 365 327 c 0
 468 298 535 263 535 159 c 0
 535 42 419 -17 284 -17 c 0
 181 -17 102 15 48 63 c 1
 127 152 l 1
 168 120 221 96 283 96 c 0
EndSplineSet
Validated: 1
EndChar

StartChar: sacute
Encoding: 347 347 222
Width: 600
GlyphClass: 2
Flags: W
HStem: -17 113<185.701 358.289> 436 113<245.671 417.533>
VStem: 81 159<362.795 426.877> 371 164<111.466 183.486>
LayerCount: 2
Fore
SplineSet
389 835 m 1
 451 716 l 1
 214 622 l 1
 171 703 l 1
 389 835 l 1
283 96 m 0
 336 96 371 112 371 146 c 0
 371 180 351 193 245 222 c 0
 148 248 81 290 81 384 c 0
 81 479 162 549 311 549 c 0
 406 549 474 522 526 484 c 1
 463 391 l 1
 419 418 367 436 316 436 c 0
 264 436 240 423 240 395 c 0
 240 368 261 356 365 327 c 0
 468 298 535 263 535 159 c 0
 535 42 419 -17 284 -17 c 0
 181 -17 102 15 48 63 c 1
 127 152 l 1
 168 120 221 96 283 96 c 0
EndSplineSet
Validated: 1
EndChar

StartChar: scaron
Encoding: 353 353 223
Width: 600
GlyphClass: 2
Flags: W
HStem: -17 113<185.701 358.289> 436 113<245.671 417.533>
VStem: 81 159<362.795 426.877> 371 164<111.466 183.486>
LayerCount: 2
Fore
SplineSet
446 815 m 1
 502 751 l 1
 361 611 l 1
 265 611 l 1
 123 751 l 1
 180 815 l 1
 313 721 l 1
 446 815 l 1
283 96 m 0
 336 96 371 112 371 146 c 0
 371 180 351 193 245 222 c 0
 148 248 81 290 81 384 c 0
 81 479 162 549 311 549 c 0
 406 549 474 522 526 484 c 1
 463 391 l 1
 419 418 367 436 316 436 c 0
 264 436 240 423 240 395 c 0
 240 368 261 356 365 327 c 0
 468 298 535 263 535 159 c 0
 535 42 419 -17 284 -17 c 0
 181 -17 102 15 48 63 c 1
 127 152 l 1
 168 120 221 96 283 96 c 0
EndSplineSet
Validated: 1
EndChar

StartChar: scedilla
Encoding: 351 351 224
Width: 600
GlyphClass: 2
Flags: W
HStem: -262 86<195.587 318.371> -15 111<185.31 240 330 356.265> 436 113<245.671 417.533>
VStem: 81 159<362.795 426.877> 321 113<-171.693 -119.976> 371 164<109.865 183.486>
LayerCount: 2
Fore
SplineSet
535 159 m 0xf4
 535 56 444 -2 330 -14 c 1
 330 -48 l 1
 400 -56 434 -93 434 -147 c 0
 434 -215 375 -262 285 -262 c 0
 237 -262 195 -248 168 -232 c 1
 204 -159 l 1
 224 -169 246 -176 268 -176 c 0
 300 -176 321 -168 321 -145 c 0xf8
 321 -119 290 -112 229 -112 c 1
 240 -15 l 1
 158 -7 94 22 48 63 c 1
 127 152 l 1
 168 120 221 96 283 96 c 0
 336 96 371 112 371 146 c 0
 371 180 351 193 245 222 c 0
 148 248 81 290 81 384 c 0
 81 479 162 549 311 549 c 0
 406 549 474 522 526 484 c 1
 463 391 l 1
 419 418 367 436 316 436 c 0
 264 436 240 423 240 395 c 0
 240 368 261 356 365 327 c 0
 468 298 535 263 535 159 c 0xf4
EndSplineSet
Validated: 1
EndChar

StartChar: scircumflex
Encoding: 349 349 225
Width: 600
GlyphClass: 2
Flags: W
HStem: -17 113<185.701 358.289> 436 113<245.671 417.533>
VStem: 81 159<362.795 426.877> 371 164<111.466 183.486>
LayerCount: 2
Fore
SplineSet
180 611 m 1
 123 676 l 1
 265 815 l 1
 361 815 l 1
 502 676 l 1
 446 611 l 1
 313 705 l 1
 180 611 l 1
283 96 m 0
 336 96 371 112 371 146 c 0
 371 180 351 193 245 222 c 0
 148 248 81 290 81 384 c 0
 81 479 162 549 311 549 c 0
 406 549 474 522 526 484 c 1
 463 391 l 1
 419 418 367 436 316 436 c 0
 264 436 240 423 240 395 c 0
 240 368 261 356 365 327 c 0
 468 298 535 263 535 159 c 0
 535 42 419 -17 284 -17 c 0
 181 -17 102 15 48 63 c 1
 127 152 l 1
 168 120 221 96 283 96 c 0
EndSplineSet
Validated: 1
EndChar

StartChar: scommaaccent
Encoding: 537 537 226
Width: 600
GlyphClass: 2
Flags: W
HStem: -17 113<185.701 358.289> 436 113<245.671 417.533>
VStem: 81 159<362.795 426.877> 222 157<-197.108 -89.2149> 371 164<111.466 183.486>
LayerCount: 2
Fore
SplineSet
283 96 m 0xe8
 336 96 371 112 371 146 c 0
 371 180 351 193 245 222 c 0
 148 248 81 290 81 384 c 0
 81 479 162 549 311 549 c 0
 406 549 474 522 526 484 c 1
 463 391 l 1
 419 418 367 436 316 436 c 0
 264 436 240 423 240 395 c 0
 240 368 261 356 365 327 c 0
 468 298 535 263 535 159 c 0
 535 42 419 -17 284 -17 c 0
 181 -17 102 15 48 63 c 1
 127 152 l 1
 168 120 221 96 283 96 c 0xe8
301 -65 m 0
 346 -65 379 -98 379 -143 c 0
 379 -166 371 -195 356 -225 c 2
 307 -322 l 1
 227 -322 l 1
 254 -207 l 1
 236 -192 222 -171 222 -143 c 0xd0
 222 -100 255 -65 301 -65 c 0
EndSplineSet
Validated: 1
EndChar

StartChar: germandbls
Encoding: 223 223 227
Width: 600
GlyphClass: 2
Flags: W
HStem: -17 122<290.923 403.396> 0 21G<60 218> 648 111<241.169 331.614>
VStem: 60 158<0 626.953> 265 138<390.403 480.246> 340 153<535.303 639.371> 415 162<116.054 227.267>
LayerCount: 2
Fore
SplineSet
291 759 m 0x74
 420 759 493 690 493 603 c 0x74
 493 512 403 493 403 432 c 0
 403 356 577 342 577 168 c 0
 577 50 491 -17 376 -17 c 0
 325 -17 284 -5 249 14 c 1
 299 120 l 1
 320 110 338 105 356 105 c 0
 395 105 415 127 415 167 c 0
 415 276 265 273 265 404 c 0xba
 265 495 340 524 340 596 c 0
 340 629 320 648 287 648 c 0
 238 648 218 612 218 538 c 2
 218 0 l 1
 60 0 l 1
 60 531 l 2
 60 674 139 759 291 759 c 0x74
EndSplineSet
Validated: 1
EndChar

StartChar: t
Encoding: 116 116 228
Width: 600
GlyphClass: 2
Flags: W
HStem: -17 125<341.774 491.21> 422 109<58 169 327 482>
VStem: 169 158<122.323 422 531 646>
LayerCount: 2
Fore
SplineSet
548 31 m 1
 506 4 447 -17 374 -17 c 0
 235 -17 169 59 169 181 c 2
 169 422 l 1
 58 422 l 1
 58 531 l 1
 169 531 l 1
 169 646 l 1
 327 665 l 1
 327 531 l 1
 498 531 l 1
 482 422 l 1
 327 422 l 1
 327 181 l 2
 327 128 350 108 403 108 c 0
 440 108 471 118 496 132 c 1
 548 31 l 1
EndSplineSet
Validated: 1
EndChar

StartChar: tbar
Encoding: 359 359 229
Width: 600
GlyphClass: 2
Flags: W
HStem: -17 125<341.774 491.21> 262 99<70 169 327 481> 422 109<58 169 327 482>
VStem: 169 158<122.323 262 361 422 531 646>
LayerCount: 2
Fore
SplineSet
496 132 m 1
 548 31 l 1
 506 4 447 -17 374 -17 c 0
 235 -17 169 59 169 181 c 2
 169 262 l 1
 70 262 l 1
 70 361 l 1
 169 361 l 1
 169 422 l 1
 58 422 l 1
 58 531 l 1
 169 531 l 1
 169 646 l 1
 327 665 l 1
 327 531 l 1
 498 531 l 1
 482 422 l 1
 327 422 l 1
 327 361 l 1
 481 361 l 1
 481 262 l 1
 327 262 l 1
 327 181 l 2
 327 128 350 108 403 108 c 0
 440 108 471 118 496 132 c 1
EndSplineSet
Validated: 1
EndChar

StartChar: tcaron
Encoding: 357 357 230
Width: 600
GlyphClass: 2
Flags: W
HStem: -17 125<341.774 491.21> 422 109<58 169 327 482>
VStem: 169 158<122.323 422 531 646>
LayerCount: 2
Fore
SplineSet
397 832 m 1
 536 815 l 1
 458 583 l 1
 360 599 l 1
 397 832 l 1
548 31 m 1
 506 4 447 -17 374 -17 c 0
 235 -17 169 59 169 181 c 2
 169 422 l 1
 58 422 l 1
 58 531 l 1
 169 531 l 1
 169 646 l 1
 327 665 l 1
 327 531 l 1
 498 531 l 1
 482 422 l 1
 327 422 l 1
 327 181 l 2
 327 128 350 108 403 108 c 0
 440 108 471 118 496 132 c 1
 548 31 l 1
EndSplineSet
Validated: 1
EndChar

StartChar: uni0163
Encoding: 355 355 231
Width: 600
GlyphClass: 2
Flags: W
HStem: -262 86<254.587 377.371> -17 125<391.124 491.241> 422 109<58 169 327 482>
VStem: 169 158<125.12 422 531 646> 380 113<-171.693 -119.976>
LayerCount: 2
Fore
SplineSet
390 -48 m 1
 460 -56 493 -93 493 -147 c 0
 493 -215 434 -262 344 -262 c 0
 296 -262 254 -248 227 -232 c 1
 263 -159 l 1
 283 -169 305 -176 327 -176 c 0
 359 -176 380 -168 380 -145 c 0
 380 -119 349 -112 288 -112 c 1
 299 -8 l 1
 211 15 169 83 169 181 c 2
 169 422 l 1
 58 422 l 1
 58 531 l 1
 169 531 l 1
 169 646 l 1
 327 665 l 1
 327 531 l 1
 498 531 l 1
 482 422 l 1
 327 422 l 1
 327 181 l 2
 327 128 350 108 403 108 c 0
 440 108 471 118 496 132 c 1
 548 31 l 1
 509 6 456 -14 390 -17 c 1
 390 -48 l 1
EndSplineSet
Validated: 1
EndChar

StartChar: uni021B
Encoding: 539 539 232
Width: 600
GlyphClass: 2
Flags: W
HStem: -17 125<341.774 491.21> 422 109<58 169 327 482>
VStem: 169 158<122.323 422 531 646> 281 157<-197.108 -89.2149>
LayerCount: 2
Fore
SplineSet
548 31 m 1xe0
 506 4 447 -17 374 -17 c 0
 235 -17 169 59 169 181 c 2
 169 422 l 1
 58 422 l 1
 58 531 l 1
 169 531 l 1
 169 646 l 1
 327 665 l 1
 327 531 l 1
 498 531 l 1
 482 422 l 1
 327 422 l 1
 327 181 l 2
 327 128 350 108 403 108 c 0
 440 108 471 118 496 132 c 1
 548 31 l 1xe0
360 -65 m 0
 405 -65 438 -98 438 -143 c 0
 438 -166 430 -195 415 -225 c 2
 366 -322 l 1
 286 -322 l 1
 313 -207 l 1
 295 -192 281 -171 281 -143 c 0xd0
 281 -100 314 -65 360 -65 c 0
EndSplineSet
Validated: 1
EndChar

StartChar: u
Encoding: 117 117 233
Width: 600
GlyphClass: 2
Flags: W
HStem: -17 117<170.5 316.926> 0 21G<389.742 530> 511 20G<70 228 372 530>
VStem: 70 158<111.912 531> 372 158<131.125 531>
LayerCount: 2
Fore
SplineSet
228 531 m 1xb8
 228 168 l 2
 228 116 248 100 282 100 c 0xb8
 314 100 350 122 372 158 c 1
 372 531 l 1
 530 531 l 1
 530 0 l 1
 392 0 l 1x78
 385 62 l 1
 349 10 286 -17 222 -17 c 0
 119 -17 70 47 70 148 c 2
 70 531 l 1
 228 531 l 1xb8
EndSplineSet
Validated: 1
EndChar

StartChar: uacute
Encoding: 250 250 234
Width: 600
GlyphClass: 2
Flags: W
HStem: -17 117<170.5 316.926> 0 21G<389.742 530> 511 20G<70 228 372 530>
VStem: 70 158<111.912 531> 372 158<131.125 531>
LayerCount: 2
Fore
SplineSet
376 835 m 1x38
 438 716 l 1
 201 622 l 1
 158 703 l 1
 376 835 l 1x38
228 531 m 1
 228 168 l 2
 228 116 248 100 282 100 c 0xb8
 314 100 350 122 372 158 c 1
 372 531 l 1
 530 531 l 1
 530 0 l 1
 392 0 l 1x78
 385 62 l 1
 349 10 286 -17 222 -17 c 0xb8
 119 -17 70 47 70 148 c 2
 70 531 l 1
 228 531 l 1
EndSplineSet
Validated: 1
EndChar

StartChar: ubreve
Encoding: 365 365 235
Width: 600
GlyphClass: 2
Flags: W
HStem: -17 117<170.5 316.926> 0 21G<389.742 530> 511 20G<70 228 372 530> 612 108<246.957 352.689>
VStem: 70 158<111.912 531> 128 87<753.258 787.207> 372 158<131.125 531> 385 87<753.258 787.207>
LayerCount: 2
Fore
SplineSet
300 612 m 0x35
 189 612 136 698 128 786 c 1
 215 801 l 1
 227 753 254 720 300 720 c 0
 346 720 373 753 385 801 c 1
 472 786 l 1
 464 698 409 612 300 612 c 0x35
228 531 m 1xb9
 228 168 l 2
 228 116 248 100 282 100 c 0xb9
 314 100 350 122 372 158 c 1
 372 531 l 1
 530 531 l 1
 530 0 l 1
 392 0 l 1x7a
 385 62 l 1
 349 10 286 -17 222 -17 c 0
 119 -17 70 47 70 148 c 2
 70 531 l 1
 228 531 l 1xb9
EndSplineSet
Validated: 1
EndChar

StartChar: ucircumflex
Encoding: 251 251 236
Width: 600
GlyphClass: 2
Flags: W
HStem: -17 117<170.5 316.926> 0 21G<389.742 530> 511 20G<70 228 372 530>
VStem: 70 158<111.912 531> 372 158<131.125 531>
LayerCount: 2
Fore
SplineSet
167 611 m 1x38
 110 676 l 1
 252 815 l 1
 348 815 l 1
 489 676 l 1
 433 611 l 1
 300 705 l 1
 167 611 l 1x38
228 531 m 1
 228 168 l 2
 228 116 248 100 282 100 c 0xb8
 314 100 350 122 372 158 c 1
 372 531 l 1
 530 531 l 1
 530 0 l 1
 392 0 l 1x78
 385 62 l 1
 349 10 286 -17 222 -17 c 0xb8
 119 -17 70 47 70 148 c 2
 70 531 l 1
 228 531 l 1
EndSplineSet
Validated: 1
EndChar

StartChar: udieresis
Encoding: 252 252 237
Width: 600
GlyphClass: 2
Flags: W
HStem: -17 117<170.5 316.926> 0 21G<389.742 530> 511 20G<70 228 372 530> 637 160<127.536 241.713 359.059 472.85>
VStem: 70 158<111.912 531> 102 165<663.035 771.264> 333 165<663.035 771.264> 372 158<131.125 531>
LayerCount: 2
Fore
SplineSet
184 637 m 0x34
 139 637 102 672 102 718 c 0
 102 762 139 797 184 797 c 0
 231 797 267 762 267 718 c 0
 267 672 231 637 184 637 c 0x34
416 637 m 0
 371 637 333 672 333 718 c 0
 333 762 371 797 416 797 c 0
 462 797 498 762 498 718 c 0x32
 498 672 462 637 416 637 c 0
228 531 m 1xb9
 228 168 l 2
 228 116 248 100 282 100 c 0xb9
 314 100 350 122 372 158 c 1
 372 531 l 1
 530 531 l 1
 530 0 l 1
 392 0 l 1x79
 385 62 l 1
 349 10 286 -17 222 -17 c 0
 119 -17 70 47 70 148 c 2
 70 531 l 1
 228 531 l 1xb9
EndSplineSet
Validated: 1
EndChar

StartChar: ugrave
Encoding: 249 249 238
Width: 600
GlyphClass: 2
Flags: W
HStem: -17 117<170.5 316.926> 0 21G<389.742 530> 511 20G<70 228 372 530>
VStem: 70 158<111.912 531> 372 158<131.125 531>
LayerCount: 2
Fore
SplineSet
399 622 m 1x38
 163 716 l 1
 224 835 l 1
 442 702 l 1
 399 622 l 1x38
228 531 m 1
 228 168 l 2
 228 116 248 100 282 100 c 0xb8
 314 100 350 122 372 158 c 1
 372 531 l 1
 530 531 l 1
 530 0 l 1
 392 0 l 1x78
 385 62 l 1
 349 10 286 -17 222 -17 c 0xb8
 119 -17 70 47 70 148 c 2
 70 531 l 1
 228 531 l 1
EndSplineSet
Validated: 1
EndChar

StartChar: uhungarumlaut
Encoding: 369 369 239
Width: 600
GlyphClass: 2
Flags: W
HStem: -17 117<170.5 316.926> 0 21G<389.742 530> 511 20G<70 228 372 530>
VStem: 70 158<111.912 531> 372 158<131.125 531>
LayerCount: 2
Fore
SplineSet
160 661 m 1x38
 259 857 l 1
 366 808 l 1
 242 625 l 1
 160 661 l 1x38
323 663 m 1
 423 857 l 1
 529 806 l 1
 404 624 l 1
 323 663 l 1
228 531 m 1
 228 168 l 2
 228 116 248 100 282 100 c 0xb8
 314 100 350 122 372 158 c 1
 372 531 l 1
 530 531 l 1
 530 0 l 1
 392 0 l 1x78
 385 62 l 1
 349 10 286 -17 222 -17 c 0xb8
 119 -17 70 47 70 148 c 2
 70 531 l 1
 228 531 l 1
EndSplineSet
Validated: 1
EndChar

StartChar: umacron
Encoding: 363 363 240
Width: 600
GlyphClass: 2
Flags: W
HStem: -17 117<170.5 316.926> 0 21G<389.742 530> 511 20G<70 228 372 530> 658 109<147 453>
VStem: 70 158<111.912 531> 372 158<131.125 531>
LayerCount: 2
Fore
SplineSet
453 658 m 1x3c
 147 658 l 1
 147 767 l 1
 453 767 l 1
 453 658 l 1x3c
228 531 m 1
 228 168 l 2
 228 116 248 100 282 100 c 0xbc
 314 100 350 122 372 158 c 1
 372 531 l 1
 530 531 l 1
 530 0 l 1
 392 0 l 1x7c
 385 62 l 1
 349 10 286 -17 222 -17 c 0xbc
 119 -17 70 47 70 148 c 2
 70 531 l 1
 228 531 l 1
EndSplineSet
Validated: 1
EndChar

StartChar: uogonek
Encoding: 371 371 241
Width: 600
GlyphClass: 2
Flags: W
HStem: -253 94<423.574 515.435> -17 117<170.5 316.926> 511 20G<70 228 372 530>
VStem: 70 158<111.912 531> 305 110<-149.126 -53.8647> 372 158<131.125 531>
LayerCount: 2
Fore
SplineSet
372 531 m 1xf4
 530 531 l 1
 530 0 l 1xf4
 437 -32 415 -69 415 -110 c 0
 415 -143 438 -159 473 -159 c 0
 494 -159 510 -156 527 -152 c 1
 515 -245 l 1
 497 -250 479 -253 456 -253 c 0
 371 -253 305 -209 305 -130 c 0xf8
 305 -66 339 -26 392 4 c 1
 385 62 l 1
 349 10 286 -17 222 -17 c 0
 119 -17 70 47 70 148 c 2
 70 531 l 1
 228 531 l 1
 228 168 l 2
 228 116 248 100 282 100 c 0
 314 100 350 122 372 158 c 1
 372 531 l 1xf4
EndSplineSet
Validated: 1
EndChar

StartChar: uring
Encoding: 367 367 242
Width: 600
GlyphClass: 2
Flags: W
HStem: -17 117<170.5 316.926> 0 21G<389.742 530> 511 20G<70 228 372 530> 601 82<261.277 337.402> 783 82<261.02 337.662>
VStem: 70 158<111.912 531> 161 94<688.872 777.949> 344 94<688.872 776.452> 372 158<131.125 531>
LayerCount: 2
Fore
SplineSet
299 865 m 0x3b
 385 865 438 804 438 734 c 0
 438 663 385 601 299 601 c 0
 214 601 161 663 161 734 c 0
 161 804 214 865 299 865 c 0x3b
299 783 m 0
 273 783 255 767 255 734 c 0
 255 700 273 683 299 683 c 0
 326 683 344 700 344 734 c 0
 344 767 326 783 299 783 c 0
228 531 m 1xbc80
 228 168 l 2
 228 116 248 100 282 100 c 0xbc80
 314 100 350 122 372 158 c 1
 372 531 l 1
 530 531 l 1
 530 0 l 1
 392 0 l 1x7c80
 385 62 l 1
 349 10 286 -17 222 -17 c 0
 119 -17 70 47 70 148 c 2
 70 531 l 1
 228 531 l 1xbc80
EndSplineSet
Validated: 1
EndChar

StartChar: utilde
Encoding: 361 361 243
Width: 600
GlyphClass: 2
Flags: W
HStem: -17 117<170.5 316.926> 0 21G<389.742 530> 511 20G<70 228 372 530> 635 112<308.671 392.817> 680 112<203.347 288.014>
VStem: 70 158<111.912 531> 372 158<131.125 531>
LayerCount: 2
Fore
SplineSet
356 635 m 0x36
 298 635 275 680 242 680 c 0
 217 680 205 665 189 636 c 1
 110 674 l 1
 135 738 178 792 239 792 c 0x2e
 300 792 321 747 355 747 c 0
 377 747 390 761 407 790 c 1
 486 752 l 1
 460 685 416 635 356 635 c 0x36
228 531 m 1
 228 168 l 2
 228 116 248 100 282 100 c 0xa6
 314 100 350 122 372 158 c 1
 372 531 l 1
 530 531 l 1
 530 0 l 1
 392 0 l 1x66
 385 62 l 1
 349 10 286 -17 222 -17 c 0xa6
 119 -17 70 47 70 148 c 2
 70 531 l 1
 228 531 l 1
EndSplineSet
Validated: 1
EndChar

StartChar: v
Encoding: 118 118 244
Width: 600
GlyphClass: 2
Flags: W
HStem: 0 21G<201.258 400.667> 511 20G<29 205.024 405.732 571>
LayerCount: 2
Fore
SplineSet
571 531 m 1
 394 0 l 1
 208 0 l 1
 29 531 l 1
 200 531 l 1
 303 121 l 1
 411 531 l 1
 571 531 l 1
EndSplineSet
Validated: 1
EndChar

StartChar: w
Encoding: 119 119 245
Width: 600
GlyphClass: 2
Flags: W
HStem: 0 21G<79.0245 255.689 344.423 523.863> 511 20G<3 149.62 455.333 597>
LayerCount: 2
Fore
SplineSet
521 0 m 1
 347 0 l 1
 301 357 l 1
 253 0 l 1
 82 0 l 1
 3 531 l 1
 148 531 l 1
 183 99 l 1
 238 464 l 1
 372 464 l 1
 421 99 l 1
 457 531 l 1
 597 531 l 1
 521 0 l 1
EndSplineSet
Validated: 1
EndChar

StartChar: wacute
Encoding: 7811 7811 246
Width: 600
GlyphClass: 2
Flags: W
HStem: 0 21G<79.0245 255.689 344.423 523.863> 511 20G<3 149.62 455.333 597>
LayerCount: 2
Fore
SplineSet
376 835 m 1
 438 716 l 1
 201 622 l 1
 158 703 l 1
 376 835 l 1
521 0 m 1
 347 0 l 1
 301 357 l 1
 253 0 l 1
 82 0 l 1
 3 531 l 1
 148 531 l 1
 183 99 l 1
 238 464 l 1
 372 464 l 1
 421 99 l 1
 457 531 l 1
 597 531 l 1
 521 0 l 1
EndSplineSet
Validated: 1
EndChar

StartChar: wcircumflex
Encoding: 373 373 247
Width: 600
GlyphClass: 2
Flags: W
HStem: 0 21G<79.0245 255.689 344.423 523.863> 511 20G<3 149.62 455.333 597>
LayerCount: 2
Fore
SplineSet
167 611 m 1
 110 676 l 1
 252 815 l 1
 348 815 l 1
 489 676 l 1
 433 611 l 1
 300 705 l 1
 167 611 l 1
521 0 m 1
 347 0 l 1
 301 357 l 1
 253 0 l 1
 82 0 l 1
 3 531 l 1
 148 531 l 1
 183 99 l 1
 238 464 l 1
 372 464 l 1
 421 99 l 1
 457 531 l 1
 597 531 l 1
 521 0 l 1
EndSplineSet
Validated: 1
EndChar

StartChar: wdieresis
Encoding: 7813 7813 248
Width: 600
GlyphClass: 2
Flags: W
HStem: 0 21G<79.0245 255.689 344.423 523.863> 511 20G<3 149.62 455.333 597> 637 160<127.536 241.713 359.059 472.85>
VStem: 102 165<663.035 771.264> 333 165<663.035 771.264>
LayerCount: 2
Fore
SplineSet
184 637 m 0
 139 637 102 672 102 718 c 0
 102 762 139 797 184 797 c 0
 231 797 267 762 267 718 c 0
 267 672 231 637 184 637 c 0
416 637 m 0
 371 637 333 672 333 718 c 0
 333 762 371 797 416 797 c 0
 462 797 498 762 498 718 c 0
 498 672 462 637 416 637 c 0
521 0 m 1
 347 0 l 1
 301 357 l 1
 253 0 l 1
 82 0 l 1
 3 531 l 1
 148 531 l 1
 183 99 l 1
 238 464 l 1
 372 464 l 1
 421 99 l 1
 457 531 l 1
 597 531 l 1
 521 0 l 1
EndSplineSet
Validated: 1
EndChar

StartChar: wgrave
Encoding: 7809 7809 249
Width: 600
GlyphClass: 2
Flags: W
HStem: 0 21G<79.0245 255.689 344.423 523.863> 511 20G<3 149.62 455.333 597>
LayerCount: 2
Fore
SplineSet
399 622 m 1
 163 716 l 1
 224 835 l 1
 442 702 l 1
 399 622 l 1
521 0 m 1
 347 0 l 1
 301 357 l 1
 253 0 l 1
 82 0 l 1
 3 531 l 1
 148 531 l 1
 183 99 l 1
 238 464 l 1
 372 464 l 1
 421 99 l 1
 457 531 l 1
 597 531 l 1
 521 0 l 1
EndSplineSet
Validated: 1
EndChar

StartChar: x
Encoding: 120 120 250
Width: 600
GlyphClass: 2
Flags: W
HStem: 0 21G<22 203.151 388.447 578> 511 20G<39 226 373.353 551>
LayerCount: 2
Fore
SplineSet
193 0 m 1
 22 0 l 1
 204 279 l 1
 39 531 l 1
 216 531 l 1
 301 361 l 1
 383 531 l 1
 551 531 l 1
 395 285 l 1
 578 0 l 1
 399 0 l 1
 294 199 l 1
 193 0 l 1
EndSplineSet
Validated: 1
EndChar

StartChar: y
Encoding: 121 121 251
Width: 600
GlyphClass: 2
Flags: W
HStem: -223 112<96.875 168.31> 511 20G<28 199.791 404.791 572>
LayerCount: 2
Fore
SplineSet
572 531 m 1
 395 0 l 2
 348 -141 259 -214 98 -223 c 1
 80 -111 l 1
 184 -98 222 -68 251 0 c 1
 196 0 l 1
 28 531 l 1
 195 531 l 1
 298 101 l 1
 410 531 l 1
 572 531 l 1
EndSplineSet
Validated: 1
EndChar

StartChar: yacute
Encoding: 253 253 252
Width: 600
GlyphClass: 2
Flags: W
HStem: -223 112<96.875 168.31> 511 20G<28 199.791 404.791 572>
LayerCount: 2
Fore
SplineSet
376 835 m 1
 438 716 l 1
 201 622 l 1
 158 703 l 1
 376 835 l 1
572 531 m 1
 395 0 l 2
 348 -141 259 -214 98 -223 c 1
 80 -111 l 1
 184 -98 222 -68 251 0 c 1
 196 0 l 1
 28 531 l 1
 195 531 l 1
 298 101 l 1
 410 531 l 1
 572 531 l 1
EndSplineSet
Validated: 1
EndChar

StartChar: ycircumflex
Encoding: 375 375 253
Width: 600
GlyphClass: 2
Flags: W
HStem: -223 112<96.875 168.31> 511 20G<28 199.791 404.791 572>
LayerCount: 2
Fore
SplineSet
167 611 m 1
 110 676 l 1
 252 815 l 1
 348 815 l 1
 489 676 l 1
 433 611 l 1
 300 705 l 1
 167 611 l 1
572 531 m 1
 395 0 l 2
 348 -141 259 -214 98 -223 c 1
 80 -111 l 1
 184 -98 222 -68 251 0 c 1
 196 0 l 1
 28 531 l 1
 195 531 l 1
 298 101 l 1
 410 531 l 1
 572 531 l 1
EndSplineSet
Validated: 1
EndChar

StartChar: ydieresis
Encoding: 255 255 254
Width: 600
GlyphClass: 2
Flags: W
HStem: -223 112<96.875 168.31> 511 20G<28 199.791 404.791 572> 637 160<127.536 241.713 359.059 472.85>
VStem: 102 165<663.035 771.264> 333 165<663.035 771.264>
LayerCount: 2
Fore
SplineSet
184 637 m 0
 139 637 102 672 102 718 c 0
 102 762 139 797 184 797 c 0
 231 797 267 762 267 718 c 0
 267 672 231 637 184 637 c 0
416 637 m 0
 371 637 333 672 333 718 c 0
 333 762 371 797 416 797 c 0
 462 797 498 762 498 718 c 0
 498 672 462 637 416 637 c 0
572 531 m 1
 395 0 l 2
 348 -141 259 -214 98 -223 c 1
 80 -111 l 1
 184 -98 222 -68 251 0 c 1
 196 0 l 1
 28 531 l 1
 195 531 l 1
 298 101 l 1
 410 531 l 1
 572 531 l 1
EndSplineSet
Validated: 1
EndChar

StartChar: ygrave
Encoding: 7923 7923 255
Width: 600
GlyphClass: 2
Flags: W
HStem: -223 112<96.875 168.31> 511 20G<28 199.791 404.791 572>
LayerCount: 2
Fore
SplineSet
399 622 m 1
 163 716 l 1
 224 835 l 1
 442 702 l 1
 399 622 l 1
572 531 m 1
 395 0 l 2
 348 -141 259 -214 98 -223 c 1
 80 -111 l 1
 184 -98 222 -68 251 0 c 1
 196 0 l 1
 28 531 l 1
 195 531 l 1
 298 101 l 1
 410 531 l 1
 572 531 l 1
EndSplineSet
Validated: 1
EndChar

StartChar: z
Encoding: 122 122 256
Width: 600
GlyphClass: 2
Flags: W
HStem: 0 120<259 509> 412 119<94 336>
LayerCount: 2
Fore
SplineSet
259 120 m 1
 524 120 l 1
 509 0 l 1
 72 0 l 1
 72 112 l 1
 336 412 l 1
 94 412 l 1
 94 531 l 1
 519 531 l 1
 519 420 l 1
 259 120 l 1
EndSplineSet
Validated: 1
EndChar

StartChar: zacute
Encoding: 378 378 257
Width: 600
GlyphClass: 2
Flags: W
HStem: 0 120<259 509> 412 119<94 336>
LayerCount: 2
Fore
SplineSet
383 835 m 1
 445 716 l 1
 208 622 l 1
 165 703 l 1
 383 835 l 1
259 120 m 1
 524 120 l 1
 509 0 l 1
 72 0 l 1
 72 112 l 1
 336 412 l 1
 94 412 l 1
 94 531 l 1
 519 531 l 1
 519 420 l 1
 259 120 l 1
EndSplineSet
Validated: 1
EndChar

StartChar: zcaron
Encoding: 382 382 258
Width: 600
GlyphClass: 2
Flags: W
HStem: 0 120<259 509> 412 119<94 336>
LayerCount: 2
Fore
SplineSet
440 815 m 1
 496 751 l 1
 355 611 l 1
 259 611 l 1
 117 751 l 1
 174 815 l 1
 307 721 l 1
 440 815 l 1
259 120 m 1
 524 120 l 1
 509 0 l 1
 72 0 l 1
 72 112 l 1
 336 412 l 1
 94 412 l 1
 94 531 l 1
 519 531 l 1
 519 420 l 1
 259 120 l 1
EndSplineSet
Validated: 1
EndChar

StartChar: zdotaccent
Encoding: 380 380 259
Width: 600
GlyphClass: 2
Flags: W
HStem: 0 120<259 509> 412 119<94 336> 631 178<244.23 369.34>
VStem: 213 187<661.005 778.588>
LayerCount: 2
Fore
SplineSet
307 809 m 0
 362 809 400 770 400 720 c 0
 400 669 362 631 307 631 c 0
 252 631 213 669 213 720 c 0
 213 770 252 809 307 809 c 0
259 120 m 1
 524 120 l 1
 509 0 l 1
 72 0 l 1
 72 112 l 1
 336 412 l 1
 94 412 l 1
 94 531 l 1
 519 531 l 1
 519 420 l 1
 259 120 l 1
EndSplineSet
Validated: 1
EndChar

StartChar: fi
Encoding: 64257 64257 260
Width: 600
GlyphClass: 3
Flags: W
HStem: 0 108<315 376 528 592> 421 110<10 88 239 376> 642 117<256.052 445.714>
VStem: 88 151<0 421 531 625.646> 376 152<108 421>
LayerCount: 2
Fore
SplineSet
592 0 m 1
 315 0 l 1
 315 108 l 1
 376 108 l 1
 376 421 l 1
 239 421 l 1
 239 0 l 1
 88 0 l 1
 88 421 l 1
 10 421 l 1
 10 531 l 1
 88 531 l 1
 88 574 l 2
 88 679 159 759 302 759 c 0
 381 759 438 745 484 725 c 1
 441 622 l 1
 405 636 366 642 327 642 c 0
 264 642 239 621 239 569 c 2
 239 531 l 1
 528 531 l 1
 528 108 l 1
 592 108 l 1
 592 0 l 1
EndSplineSet
Validated: 1
EndChar

StartChar: fl
Encoding: 64258 64258 261
Width: 600
GlyphClass: 3
Flags: W
HStem: -17 125<455.5 579.733> 0 21G<77 229> 421 110<6 77 229 295> 645 114<245.235 350.606>
VStem: 77 152<0 421 531 629.845> 351 152<113.816 643.405>
LayerCount: 2
Fore
SplineSet
607 3 m 1xbc
 580 -8 546 -17 504 -17 c 0xbc
 407 -17 351 37 351 142 c 2
 351 639 l 1
 337 643 321 645 305 645 c 0
 250 645 229 621 229 569 c 2
 229 531 l 1
 312 531 l 1
 295 421 l 1
 229 421 l 1
 229 0 l 1
 77 0 l 1x7c
 77 421 l 1
 6 421 l 1
 6 531 l 1
 77 531 l 1
 77 574 l 2
 77 679 152 759 289 759 c 0
 327 759 363 752 395 742 c 1
 503 758 l 1
 503 156 l 2
 503 119 517 108 540 108 c 0
 552 108 565 112 576 116 c 1
 607 3 l 1xbc
EndSplineSet
Validated: 1
EndChar

StartChar: ordfeminine
Encoding: 170 170 262
Width: 600
GlyphClass: 2
Flags: W
HStem: 0 108<100 514> 304 93<188.493 323.18> 507 83<240.376 354> 661 98<158.33 344.228>
VStem: 84 142<403.062 491.429> 354 128<420.353 507 590 649.076>
LayerCount: 2
Fore
SplineSet
291 759 m 0
 429 759 482 705 482 606 c 2
 482 442 l 2
 482 413 491 401 512 394 c 1
 482 306 l 1
 424 312 390 328 370 364 c 1
 337 325 289 304 236 304 c 0
 145 304 84 361 84 443 c 0
 84 534 162 590 301 590 c 2
 354 590 l 1
 354 602 l 2
 354 649 330 661 271 661 c 0
 246 661 201 654 154 638 c 1
 121 728 l 1
 182 749 245 759 291 759 c 0
354 507 m 1
 322 507 l 2
 252 507 226 488 226 448 c 0
 226 414 243 397 276 397 c 0
 305 397 334 415 354 444 c 1
 354 507 l 1
514 108 m 1
 514 0 l 1
 100 0 l 1
 100 108 l 1
 514 108 l 1
EndSplineSet
Validated: 1
EndChar

StartChar: ordmasculine
Encoding: 186 186 263
Width: 600
GlyphClass: 2
Flags: W
HStem: 0 108<93 507> 304 99<248.352 354.39> 661 98<248.495 351.505>
VStem: 78 139<434.215 628> 383 139<434.43 628.215>
LayerCount: 2
Fore
SplineSet
300 759 m 0
 438 759 522 662 522 532 c 0
 522 397 438 304 300 304 c 0
 161 304 78 396 78 532 c 0
 78 661 162 759 300 759 c 0
300 661 m 0
 248 661 217 624 217 532 c 0
 217 439 248 403 300 403 c 0
 352 403 383 439 383 532 c 0
 383 624 352 661 300 661 c 0
507 108 m 1
 507 0 l 1
 93 0 l 1
 93 108 l 1
 507 108 l 1
EndSplineSet
Validated: 1
EndChar

StartChar: uni207F
Encoding: 8319 8319 264
Width: 600
GlyphClass: 2
Flags: W
HStem: 638 85<281.249 382> 693 20G<151 255.857>
VStem: 151 115<378 627.154> 334 115<378 637.791>
LayerCount: 2
Fore
SplineSet
351 723 m 0xb0
 413 723 449 686 449 620 c 2
 449 378 l 1
 334 378 l 1
 334 593 l 2
 334 625 329 638 313 638 c 0xb0
 297 638 282 625 266 604 c 1
 266 378 l 1
 151 378 l 1
 151 713 l 1
 253 713 l 1x70
 258 678 l 1
 285 713 316 723 351 723 c 0xb0
EndSplineSet
Validated: 1
EndChar

StartChar: uni052C
Encoding: 1324 1324 265
Width: 600
GlyphClass: 2
Flags: W
HStem: 0 122<232 403> 291 115<338 403> 583 110<351 403>
VStem: 18 130<444.038 693> 54 125<-174 -113.1> 403 136<122 290 406 583> 461 125<-174 -113.1>
LayerCount: 2
Fore
SplineSet
539 122 m 1xf4
 586 122 l 1
 586 -174 l 1
 461 -174 l 1
 441 0 l 1
 199 0 l 1
 179 -174 l 1
 54 -174 l 1
 54 122 l 1xea
 99 122 l 1
 132 168 163 219 185 300 c 1
 63 326 18 408 18 536 c 2
 18 693 l 1
 148 693 l 1
 148 538 l 2
 148 473 161 434 207 417 c 1
 210 442 212 469 214 498 c 2
 226 693 l 1
 539 693 l 1
 539 122 l 1xf4
351 583 m 1
 345 492 l 2
 343 462 341 433 338 406 c 1
 403 406 l 1
 403 583 l 1xe4
 351 583 l 1
232 122 m 1
 403 122 l 1
 403 290 l 1
 320 291 l 1
 304 226 278 172 232 122 c 1
EndSplineSet
Validated: 1
EndChar

StartChar: uni052A
Encoding: 1322 1322 266
Width: 600
GlyphClass: 2
Flags: W
HStem: 0 97<93 201> 320 82<294 335 426 450> 606 87<167 201>
VStem: -15 78<-174 -87> 201 93<97 320 402 606> 267 89<-101.5 0> 279 77<-174 -72.5> 335 91<97 320 402 693>
LayerCount: 2
Fore
SplineSet
535 379 m 1xf9
 616 0 l 1
 513 0 l 1
 451 320 l 1
 426 320 l 1
 426 0 l 1xf9
 356 0 l 1xf4
 356 -174 l 1
 279 -174 l 1xf2
 267 0 l 1xf4
 77 0 l 1
 63 -174 l 1
 -15 -174 l 1
 -15 97 l 1
 14 97 l 1
 41 149 55 239 68 474 c 2
 82 693 l 1
 294 693 l 1
 294 402 l 1
 335 402 l 1
 335 693 l 1
 426 693 l 1
 426 402 l 1
 450 402 l 1
 510 693 l 1
 607 693 l 1
 535 379 l 1xf9
201 97 m 1
 201 606 l 1
 167 606 l 1
 161 468 l 2
 152 239 135 166 93 97 c 1
 201 97 l 1
335 320 m 1
 294 320 l 1
 294 97 l 1
 335 97 l 1
 335 320 l 1
EndSplineSet
Validated: 1
EndChar

StartChar: uni052E
Encoding: 1326 1326 267
Width: 600
GlyphClass: 2
Flags: W
HStem: -20 21G<44.963 126> 568 125<280 359>
VStem: 359 164<122 568> 446 125<-174 -113.1>
LayerCount: 2
Fore
SplineSet
523 122 m 1xe0
 571 122 l 1
 571 -174 l 1
 446 -174 l 1xd0
 426 0 l 1
 359 0 l 1
 359 568 l 1
 280 568 l 1
 269 457 l 2
 238 124 195 46 57 -20 c 1
 -8 88 l 1
 59 137 89 179 116 473 c 2
 137 693 l 1
 523 693 l 1
 523 122 l 1xe0
EndSplineSet
Validated: 1
EndChar

StartChar: uni0528
Encoding: 1320 1320 268
Width: 600
GlyphClass: 2
Flags: W
HStem: -227 120<-70.4347 40.5571> 0 21G<384 548> 292 135<216 384> 673 20G<52 216 384 548>
VStem: 52 164<-98.2022 292 427 693> 384 164<0 292 427 693>
LayerCount: 2
Fore
SplineSet
384 693 m 1
 548 693 l 1
 548 0 l 1
 384 0 l 1
 384 292 l 1
 216 292 l 1
 216 -26 l 2
 216 -157 142 -227 15 -227 c 0
 -46 -227 -85 -208 -120 -182 c 1
 -60 -90 l 1
 -41 -99 -26 -107 0 -107 c 0
 33 -107 52 -89 52 -40 c 2
 52 693 l 1
 216 693 l 1
 216 427 l 1
 384 427 l 1
 384 693 l 1
EndSplineSet
Validated: 1
EndChar

StartChar: uni0410
Encoding: 1040 1040 269
Width: 600
GlyphClass: 2
Flags: W
HStem: 0 21G<-11 165.8 431.2 612> 150 118<223 373> 673 20G<194.882 406.118>
LayerCount: 2
Fore
SplineSet
400 150 m 1
 197 150 l 1
 161 0 l 1
 -11 0 l 1
 201 693 l 1
 400 693 l 1
 612 0 l 1
 436 0 l 1
 400 150 l 1
223 268 m 1
 373 268 l 1
 298 575 l 1
 223 268 l 1
EndSplineSet
Validated: 1
EndChar

StartChar: uni0411
Encoding: 1041 1041 270
Width: 600
GlyphClass: 2
Flags: W
HStem: 0 123<221 362.067> 326 117<221 366.53> 568 125<221 477>
VStem: 57 164<123 326 443 568> 400 168<155.862 292.081>
LayerCount: 2
Fore
SplineSet
493 693 m 1
 477 568 l 1
 221 568 l 1
 221 443 l 1
 291 443 l 2
 465 443 568 374 568 228 c 0
 568 76 455 0 299 0 c 2
 57 0 l 1
 57 693 l 1
 493 693 l 1
280 326 m 2
 221 326 l 1
 221 123 l 1
 282 123 l 2
 359 123 400 152 400 227 c 0
 400 294 361 326 280 326 c 2
EndSplineSet
Validated: 1
EndChar

StartChar: uni0412
Encoding: 1042 1042 271
Width: 600
GlyphClass: 2
Flags: W
HStem: 0 120<220 368.002> 306 110<220 353.748> 577 116<220 353.186>
VStem: 56 164<120 306 416 577> 376 165<438.981 553.225> 402 169<148.232 274.68>
LayerCount: 2
Fore
SplineSet
571 203 m 0xf4
 571 43 436 0 286 0 c 2
 56 0 l 1
 56 693 l 1
 276 693 l 2
 418 693 541 651 541 516 c 0xf8
 541 433 482 384 414 367 c 1
 488 355 571 314 571 203 c 0xf4
376 499 m 0
 376 554 343 577 270 577 c 2
 220 577 l 1
 220 416 l 1
 276 416 l 2
 346 416 376 441 376 499 c 0
402 210 m 0xf4
 402 282 357 306 287 306 c 2
 220 306 l 1
 220 120 l 1
 280 120 l 2
 345 120 402 134 402 210 c 0xf4
EndSplineSet
Validated: 1
EndChar

StartChar: uni0413
Encoding: 1043 1043 272
Width: 600
GlyphClass: 2
Flags: W
HStem: 0 21G<90 254> 564 129<254 543>
VStem: 90 164<0 564>
LayerCount: 2
Fore
SplineSet
559 693 m 1
 543 564 l 1
 254 564 l 1
 254 0 l 1
 90 0 l 1
 90 693 l 1
 559 693 l 1
EndSplineSet
Validated: 1
EndChar

StartChar: uni0403
Encoding: 1027 1027 273
Width: 600
GlyphClass: 2
Flags: W
HStem: 0 21G<90 254> 564 129<254 543> 751 21G<223.5 289.429>
VStem: 90 164<0 564>
LayerCount: 2
Fore
SplineSet
411 953 m 1
 470 835 l 1
 233 751 l 1
 195 831 l 1
 411 953 l 1
559 693 m 1
 543 564 l 1
 254 564 l 1
 254 0 l 1
 90 0 l 1
 90 693 l 1
 559 693 l 1
EndSplineSet
Validated: 1
EndChar

StartChar: uni0490
Encoding: 1168 1168 274
Width: 600
GlyphClass: 2
Flags: W
HStem: 0 21G<90 254> 564 129<254 407>
VStem: 90 164<0 564> 407 152<693 848>
LayerCount: 2
Fore
SplineSet
407 848 m 1
 559 848 l 1
 559 693 l 1
 543 564 l 1
 254 564 l 1
 254 0 l 1
 90 0 l 1
 90 693 l 1
 407 693 l 1
 407 848 l 1
EndSplineSet
Validated: 1
EndChar

StartChar: uni0414
Encoding: 1044 1044 275
Width: 600
GlyphClass: 2
Flags: W
HStem: 0 122<158 374> 577 116<276 374>
VStem: -10 126<-174 -113.1> 374 151<122 577> 451 126<-174 -113.45>
LayerCount: 2
Fore
SplineSet
525 122 m 1xf0
 577 122 l 1
 577 -174 l 1
 451 -174 l 1xe8
 431 -1 l 1
 136 0 l 1
 116 -174 l 1
 -10 -174 l 1
 -10 122 l 1
 30 122 l 1
 74 169 96 239 119 475 c 2
 139 693 l 1
 525 693 l 1
 525 122 l 1xf0
374 122 m 1xf0
 374 577 l 1
 276 577 l 1
 269 489 l 2
 250 259 223 176 158 122 c 1
 374 122 l 1xf0
EndSplineSet
Validated: 1
EndChar

StartChar: uni0415
Encoding: 1045 1045 276
Width: 600
GlyphClass: 2
Flags: W
HStem: 0 118<257 546> 295 114<257 497> 576 117<257 529>
VStem: 93 164<118 295 409 576>
LayerCount: 2
Fore
SplineSet
257 576 m 1
 257 409 l 1
 497 409 l 1
 497 295 l 1
 257 295 l 1
 257 118 l 1
 546 118 l 1
 546 0 l 1
 93 0 l 1
 93 693 l 1
 546 693 l 1
 529 576 l 1
 257 576 l 1
EndSplineSet
Validated: 1
EndChar

StartChar: uni0400
Encoding: 1024 1024 277
Width: 600
GlyphClass: 2
Flags: W
HStem: 0 118<257 546> 295 114<257 497> 576 117<257 529> 751 21G<363.333 429.25>
VStem: 93 164<118 295 409 576>
LayerCount: 2
Fore
SplineSet
242 953 m 1
 457 831 l 1
 420 751 l 1
 182 835 l 1
 242 953 l 1
257 576 m 1
 257 409 l 1
 497 409 l 1
 497 295 l 1
 257 295 l 1
 257 118 l 1
 546 118 l 1
 546 0 l 1
 93 0 l 1
 93 693 l 1
 546 693 l 1
 529 576 l 1
 257 576 l 1
EndSplineSet
Validated: 1
EndChar

StartChar: uni0401
Encoding: 1025 1025 278
Width: 600
GlyphClass: 2
Flags: W
HStem: 0 118<257 546> 295 114<257 497> 576 117<257 529> 762 160<147.536 261.713 379.059 492.85>
VStem: 93 164<118 295 409 576> 122 165<788.035 896.264> 353 165<788.035 896.264>
LayerCount: 2
Fore
SplineSet
204 762 m 0xf6
 159 762 122 797 122 843 c 0
 122 887 159 922 204 922 c 0
 251 922 287 887 287 843 c 0
 287 797 251 762 204 762 c 0xf6
436 762 m 0
 391 762 353 797 353 843 c 0
 353 887 391 922 436 922 c 0
 482 922 518 887 518 843 c 0
 518 797 482 762 436 762 c 0
257 576 m 1xfa
 257 409 l 1
 497 409 l 1
 497 295 l 1
 257 295 l 1
 257 118 l 1
 546 118 l 1
 546 0 l 1
 93 0 l 1
 93 693 l 1
 546 693 l 1
 529 576 l 1
 257 576 l 1xfa
EndSplineSet
Validated: 1
EndChar

StartChar: uni0416
Encoding: 1046 1046 279
Width: 600
GlyphClass: 2
Flags: W
HStem: 0 21G<2 146.875 250 350 451.125 598> 320 82<223 250 350 377> 673 20G<12 152.223 250 350 447.777 588>
VStem: 250 100<0 320 402 693>
LayerCount: 2
Fore
SplineSet
250 320 m 1
 220 320 l 1
 142 0 l 1
 2 0 l 1
 110 379 l 1
 12 693 l 1
 147 693 l 1
 223 402 l 1
 250 402 l 1
 250 693 l 1
 350 693 l 1
 350 402 l 1
 377 402 l 1
 453 693 l 1
 588 693 l 1
 490 379 l 1
 598 0 l 1
 456 0 l 1
 378 320 l 1
 350 320 l 1
 350 0 l 1
 250 0 l 1
 250 320 l 1
EndSplineSet
Validated: 1
EndChar

StartChar: uni0417
Encoding: 1047 1047 280
Width: 600
GlyphClass: 2
Flags: W
HStem: -17 120<157.968 352.742> 309 116<169 348.75> 538 21G<84.9639 126> 592 119<159.462 348.081>
VStem: 380 161<455.601 561.784> 398 164<144.433 270.509>
LayerCount: 2
Fore
SplineSet
283 711 m 0xf8
 440 711 541 635 541 526 c 0xf8
 541 441 484 389 384 369 c 1
 492 358 562 300 562 198 c 0
 562 69 457 -17 270 -17 c 0
 157 -17 68 19 7 82 c 1
 91 166 l 1
 140 125 199 103 267 103 c 0
 348 103 398 141 398 205 c 0xf4
 398 276 349 309 266 309 c 2
 150 309 l 1
 169 425 l 1
 265 425 l 2
 335 425 380 454 380 510 c 0
 380 561 339 592 266 592 c 0
 204 592 148 573 104 538 c 1
 25 621 l 1
 92 680 179 711 283 711 c 0xf8
EndSplineSet
Validated: 1
EndChar

StartChar: uni0418
Encoding: 1048 1048 281
Width: 600
GlyphClass: 2
Flags: W
HStem: 0 21G<52 242.885 398 548> 673 20G<52 202 359.982 548>
VStem: 52 150<178.766 693> 398 150<0 516.098>
LayerCount: 2
Fore
SplineSet
52 0 m 1
 52 693 l 1
 202 693 l 1
 202 458 l 2
 202 314 189 227 174 143 c 1
 367 693 l 1
 548 693 l 1
 548 0 l 1
 398 0 l 1
 398 230 l 2
 398 364 410 463 425 549 c 1
 236 0 l 1
 52 0 l 1
EndSplineSet
Validated: 1
EndChar

StartChar: uni0419
Encoding: 1049 1049 282
Width: 600
GlyphClass: 2
Flags: W
HStem: 0 21G<52 242.885 398 548> 673 20G<52 202 359.982 548> 738 109<238.522 361.284>
VStem: 52 150<178.766 693> 398 150<0 516.098>
LayerCount: 2
Fore
SplineSet
300 738 m 0
 190 738 136 814 128 893 c 1
 215 908 l 1
 224 870 254 847 300 847 c 0
 346 847 376 870 385 908 c 1
 472 893 l 1
 464 814 409 738 300 738 c 0
52 0 m 1
 52 693 l 1
 202 693 l 1
 202 458 l 2
 202 314 189 227 174 143 c 1
 367 693 l 1
 548 693 l 1
 548 0 l 1
 398 0 l 1
 398 230 l 2
 398 364 410 463 425 549 c 1
 236 0 l 1
 52 0 l 1
EndSplineSet
Validated: 1
EndChar

StartChar: uni040D
Encoding: 1037 1037 283
Width: 600
GlyphClass: 2
Flags: W
HStem: 0 21G<52 242.885 398 548> 673 20G<52 202 359.982 548> 751 21G<343.333 409.25>
VStem: 52 150<178.766 693> 398 150<0 516.098>
LayerCount: 2
Fore
SplineSet
222 953 m 1
 437 831 l 1
 400 751 l 1
 162 835 l 1
 222 953 l 1
52 0 m 1
 52 693 l 1
 202 693 l 1
 202 458 l 2
 202 314 189 227 174 143 c 1
 367 693 l 1
 548 693 l 1
 548 0 l 1
 398 0 l 1
 398 230 l 2
 398 364 410 463 425 549 c 1
 236 0 l 1
 52 0 l 1
EndSplineSet
Validated: 1
EndChar

StartChar: uni048A
Encoding: 1162 1162 284
Width: 600
GlyphClass: 2
Flags: W
HStem: 0 21G<52 242.885> 673 20G<52 202 359.982 548> 738 109<238.522 361.284>
VStem: 52 150<178.766 693> 398 150<152 516.098>
LayerCount: 2
Fore
SplineSet
300 738 m 0
 190 738 136 814 128 893 c 1
 215 908 l 1
 224 870 254 847 300 847 c 0
 346 847 376 870 385 908 c 1
 472 893 l 1
 464 814 409 738 300 738 c 0
548 152 m 1
 638 152 l 1
 539 -174 l 1
 404 -174 l 1
 443 0 l 1
 398 0 l 1
 398 230 l 2
 398 364 410 463 425 549 c 1
 236 0 l 1
 52 0 l 1
 52 693 l 1
 202 693 l 1
 202 458 l 2
 202 314 189 227 174 143 c 1
 367 693 l 1
 548 693 l 1
 548 152 l 1
EndSplineSet
Validated: 1
EndChar

StartChar: uni041A
Encoding: 1050 1050 285
Width: 600
GlyphClass: 2
Flags: W
HStem: 0 21G<52 216 419.066 608> 302 118<216 277> 673 20G<52 216 418.791 589>
VStem: 52 164<0 302 420 693>
LayerCount: 2
Fore
SplineSet
279 302 m 1
 216 302 l 1
 216 0 l 1
 52 0 l 1
 52 693 l 1
 216 693 l 1
 216 420 l 1
 277 420 l 1
 430 693 l 1
 589 693 l 1
 413 379 l 1
 608 0 l 1
 429 0 l 1
 279 302 l 1
EndSplineSet
Validated: 1
EndChar

StartChar: uni040C
Encoding: 1036 1036 286
Width: 600
GlyphClass: 2
Flags: W
HStem: 0 21G<52 216 419.066 608> 302 118<216 277> 673 20G<52 216 418.791 589> 751 21G<214.5 280.429>
VStem: 52 164<0 302 420 693>
LayerCount: 2
Fore
SplineSet
402 953 m 1
 461 835 l 1
 224 751 l 1
 186 831 l 1
 402 953 l 1
279 302 m 1
 216 302 l 1
 216 0 l 1
 52 0 l 1
 52 693 l 1
 216 693 l 1
 216 420 l 1
 277 420 l 1
 430 693 l 1
 589 693 l 1
 413 379 l 1
 608 0 l 1
 429 0 l 1
 279 302 l 1
EndSplineSet
Validated: 1
EndChar

StartChar: uni041B
Encoding: 1051 1051 287
Width: 600
GlyphClass: 2
Flags: W
HStem: 0 21G<40.1481 121.5 384 548> 568 125<275 384>
VStem: 384 164<0 568>
LayerCount: 2
Fore
SplineSet
548 693 m 1
 548 0 l 1
 384 0 l 1
 384 568 l 1
 275 568 l 1
 265 457 l 2
 234 124 191 46 52 -20 c 1
 -12 88 l 1
 54 137 84 179 112 473 c 2
 132 693 l 1
 548 693 l 1
EndSplineSet
Validated: 1
EndChar

StartChar: uni041C
Encoding: 1052 1052 288
Width: 600
GlyphClass: 2
Flags: W
HStem: 0 21G<17 158.34 438.461 583> 673 20G<54.8745 228.438 371.741 545.126>
VStem: 17 141<0 124.385> 439 144<0 124.385>
LayerCount: 2
Fore
SplineSet
544 693 m 1
 583 0 l 1
 439 0 l 1
 431 297 l 2
 430 319 430 339 430 357 c 0
 430 430 434 480 440 554 c 1
 362 118 l 1
 238 118 l 1
 153 554 l 1
 160 481 164 427 164 347 c 0
 164 331 163 313 163 294 c 2
 158 0 l 1
 17 0 l 1
 56 693 l 1
 225 693 l 1
 302 245 l 1
 375 693 l 1
 544 693 l 1
EndSplineSet
Validated: 1
EndChar

StartChar: uni041D
Encoding: 1053 1053 289
Width: 600
GlyphClass: 2
Flags: W
HStem: 0 21G<52 216 384 548> 292 135<216 384> 673 20G<52 216 384 548>
VStem: 52 164<0 292 427 693> 384 164<0 292 427 693>
LayerCount: 2
Fore
SplineSet
384 0 m 1
 384 292 l 1
 216 292 l 1
 216 0 l 1
 52 0 l 1
 52 693 l 1
 216 693 l 1
 216 427 l 1
 384 427 l 1
 384 693 l 1
 548 693 l 1
 548 0 l 1
 384 0 l 1
EndSplineSet
Validated: 1
EndChar

StartChar: uni041E
Encoding: 1054 1054 290
Width: 600
GlyphClass: 2
Flags: W
HStem: -17 120<243.197 357.463> 591 120<242.977 357.023>
VStem: 23 168<184.175 506.541> 409 168<185.672 509.825>
LayerCount: 2
Fore
SplineSet
577 347 m 0
 577 127 482 -17 300 -17 c 0
 118 -17 23 122 23 347 c 0
 23 567 118 711 300 711 c 0
 482 711 577 572 577 347 c 0
409 347 m 0
 409 517 378 591 300 591 c 0
 222 591 191 517 191 347 c 0
 191 177 223 103 300 103 c 0
 380 103 409 179 409 347 c 0
EndSplineSet
Validated: 1
EndChar

StartChar: uni041F
Encoding: 1055 1055 291
Width: 600
GlyphClass: 2
Flags: W
HStem: 0 21G<52 216 384 548> 567 126<216 384>
VStem: 52 164<0 567> 384 164<0 567>
LayerCount: 2
Fore
SplineSet
384 0 m 1
 384 567 l 1
 216 567 l 1
 216 0 l 1
 52 0 l 1
 52 693 l 1
 548 693 l 1
 548 0 l 1
 384 0 l 1
EndSplineSet
Validated: 1
EndChar

StartChar: uni0420
Encoding: 1056 1056 292
Width: 600
GlyphClass: 2
Flags: W
HStem: 0 21G<62 226> 231 118<226 367.517> 576 117<226 370.059>
VStem: 62 164<0 231 349 576> 408 168<390.359 538.314>
LayerCount: 2
Fore
SplineSet
576 467 m 0
 576 306 465 231 302 231 c 2
 226 231 l 1
 226 0 l 1
 62 0 l 1
 62 693 l 1
 280 693 l 2
 469 693 576 619 576 467 c 0
408 467 m 0
 408 541 366 576 283 576 c 2
 226 576 l 1
 226 349 l 1
 291 349 l 2
 364 349 408 385 408 467 c 0
EndSplineSet
Validated: 1
EndChar

StartChar: uni0421
Encoding: 1057 1057 293
Width: 600
GlyphClass: 2
Flags: W
HStem: -17 127<286.875 455.516> 538 21G<481 516.495> 589 122<288.949 453.566>
VStem: 34 170<212.82 484.897>
LayerCount: 2
Fore
SplineSet
358 711 m 0
 458 711 522 683 580 635 c 1
 500 538 l 1
 462 569 416 589 362 589 c 0
 274 589 204 518 204 348 c 0
 204 181 270 110 365 110 c 0
 434 110 476 141 515 172 c 1
 589 77 l 1
 538 25 463 -17 356 -17 c 0
 168 -17 34 110 34 348 c 0
 34 580 175 711 358 711 c 0
EndSplineSet
Validated: 1
EndChar

StartChar: uni0422
Encoding: 1058 1058 294
Width: 600
GlyphClass: 2
Flags: W
HStem: 0 21G<217 381> 567 126<22 217 381 567>
VStem: 217 164<0 567>
LayerCount: 2
Fore
SplineSet
381 567 m 1
 381 0 l 1
 217 0 l 1
 217 567 l 1
 22 567 l 1
 22 693 l 1
 583 693 l 1
 567 567 l 1
 381 567 l 1
EndSplineSet
Validated: 1
EndChar

StartChar: uni0423
Encoding: 1059 1059 295
Width: 600
GlyphClass: 2
Flags: W
HStem: -17 112<104.688 186.193> 673 20G<-5 172.019 434.75 607>
LayerCount: 2
Fore
SplineSet
607 693 m 1
 431 236 l 2
 363 58 295 -2 106 -17 c 1
 85 95 l 1
 191 105 232 129 263 183 c 1
 210 183 l 1
 -5 693 l 1
 165 693 l 1
 311 277 l 1
 441 693 l 1
 607 693 l 1
EndSplineSet
Validated: 1
EndChar

StartChar: uni040E
Encoding: 1038 1038 296
Width: 600
GlyphClass: 2
Flags: W
HStem: -17 112<104.688 186.193> 673 20G<-5 172.019 434.75 607> 751 110<248.308 371.741>
LayerCount: 2
Fore
SplineSet
310 751 m 0
 200 751 148 820 138 905 c 1
 225 921 l 1
 238 879 264 861 310 861 c 0
 356 861 382 879 395 921 c 1
 482 905 l 1
 473 820 420 751 310 751 c 0
607 693 m 1
 431 236 l 2
 363 58 295 -2 106 -17 c 1
 85 95 l 1
 191 105 232 129 263 183 c 1
 210 183 l 1
 -5 693 l 1
 165 693 l 1
 311 277 l 1
 441 693 l 1
 607 693 l 1
EndSplineSet
Validated: 1
EndChar

StartChar: uni0424
Encoding: 1060 1060 297
Width: 600
GlyphClass: 2
Flags: W
HStem: 38 90<206.783 243 357 393.217> 568 88<206.385 243 357 393.416>
VStem: 4 153<198.477 500.561> 243 114<-39 39.2242 654.708 730> 253 94<128 568> 443 153<200.561 500.561>
LayerCount: 2
Fore
SplineSet
357 730 m 1xf4
 357 656 l 1
 519 645 596 545 596 350 c 0
 596 157 518 48 357 38 c 1
 357 -39 l 1
 243 -39 l 1
 243 38 l 1
 82 48 4 156 4 350 c 0
 4 545 80 645 243 656 c 1
 243 730 l 1
 357 730 l 1xf4
253 568 m 1xec
 182 560 157 501 157 350 c 0
 157 201 178 136 253 128 c 1
 253 568 l 1xec
347 568 m 1
 347 128 l 1
 422 136 443 201 443 350 c 0
 443 501 419 560 347 568 c 1
EndSplineSet
Validated: 1
EndChar

StartChar: uni0425
Encoding: 1061 1061 298
Width: 600
GlyphClass: 2
Flags: W
HStem: 0 21G<4 187.091 410.758 597> 673 20G<19 205.369 397.36 580>
LayerCount: 2
Fore
SplineSet
19 693 m 1
 196 693 l 1
 300 471 l 1
 407 693 l 1
 580 693 l 1
 396 375 l 1
 597 0 l 1
 420 0 l 1
 298 264 l 1
 178 0 l 1
 4 0 l 1
 200 368 l 1
 19 693 l 1
EndSplineSet
Validated: 1
EndChar

StartChar: uni0427
Encoding: 1063 1063 299
Width: 600
GlyphClass: 2
Flags: W
HStem: 0 21G<384 548> 198 121<219.636 344.057> 673 20G<25 189 384 548>
VStem: 25 164<348.765 693> 384 164<0 243 338.999 693>
LayerCount: 2
Fore
SplineSet
384 693 m 1
 548 693 l 1
 548 0 l 1
 384 0 l 1
 384 243 l 1
 346 215 298 198 240 198 c 0
 105 198 25 279 25 434 c 2
 25 693 l 1
 189 693 l 1
 189 439 l 2
 189 352 217 319 286 319 c 0
 333 319 363 336 384 355 c 1
 384 693 l 1
EndSplineSet
Validated: 1
EndChar

StartChar: uni0426
Encoding: 1062 1062 300
Width: 600
GlyphClass: 2
Flags: W
HStem: 0 128<216 384> 673 20G<52 216 384 548>
VStem: 52 164<128 693> 384 164<128 693> 471 125<-174 -113.1>
LayerCount: 2
Fore
SplineSet
548 122 m 1xf0
 596 122 l 1
 596 -174 l 1
 471 -174 l 1xe8
 451 0 l 1
 52 0 l 1
 52 693 l 1
 216 693 l 1
 216 128 l 1
 384 128 l 1
 384 693 l 1
 548 693 l 1
 548 122 l 1xf0
EndSplineSet
Validated: 1
EndChar

StartChar: uni0428
Encoding: 1064 1064 301
Width: 600
GlyphClass: 2
Flags: W
HStem: 0 112<165 243 358 435> 673 20G<35 165 243 358 435 565>
VStem: 35 130<112 693> 243 115<112 693> 435 130<112 693>
LayerCount: 2
Fore
SplineSet
565 693 m 1
 565 0 l 1
 35 0 l 1
 35 693 l 1
 165 693 l 1
 165 112 l 1
 243 112 l 1
 243 693 l 1
 358 693 l 1
 358 112 l 1
 435 112 l 1
 435 693 l 1
 565 693 l 1
EndSplineSet
Validated: 1
EndChar

StartChar: uni0429
Encoding: 1065 1065 302
Width: 600
GlyphClass: 2
Flags: W
HStem: 0 112<165 243 358 435> 673 20G<35 165 243 358 435 565>
VStem: 35 130<112 693> 243 115<112 693> 435 130<122 693> 488 125<-174 -113.1>
LayerCount: 2
Fore
SplineSet
565 122 m 1xf8
 613 122 l 1
 613 -174 l 1
 488 -174 l 1xf4
 468 0 l 1
 35 0 l 1
 35 693 l 1
 165 693 l 1
 165 112 l 1
 243 112 l 1
 243 693 l 1
 358 693 l 1
 358 112 l 1
 435 112 l 1
 435 693 l 1
 565 693 l 1
 565 122 l 1xf8
EndSplineSet
Validated: 1
EndChar

StartChar: uni040F
Encoding: 1039 1039 303
Width: 600
GlyphClass: 2
Flags: W
HStem: 673 20G<52 216 384 548>
VStem: 52 164<128 693> 247 125<-174 -113.1> 384 164<128 693>
LayerCount: 2
Fore
SplineSet
548 693 m 1
 548 0 l 1
 372 0 l 1
 372 -174 l 1
 247 -174 l 1
 227 0 l 1
 52 0 l 1
 52 693 l 1
 216 693 l 1
 216 128 l 1
 384 128 l 1
 384 693 l 1
 548 693 l 1
EndSplineSet
Validated: 1
EndChar

StartChar: uni042C
Encoding: 1068 1068 304
Width: 600
GlyphClass: 2
Flags: W
HStem: 0 120<219 364.978> 343 116<219 366.364> 673 20G<55 219>
VStem: 55 164<120 343 459 693> 407 169<158.753 307.675>
LayerCount: 2
Fore
SplineSet
219 693 m 1
 219 459 l 1
 287 459 l 2
 468 459 576 389 576 236 c 0
 576 76 465 0 298 0 c 2
 55 0 l 1
 55 693 l 1
 219 693 l 1
281 343 m 2
 219 343 l 1
 219 120 l 1
 287 120 l 2
 365 120 407 154 407 235 c 0
 407 309 367 343 281 343 c 2
EndSplineSet
Validated: 1
EndChar

StartChar: uni042A
Encoding: 1066 1066 305
Width: 600
GlyphClass: 2
Flags: W
HStem: 0 117<245 374.732> 346 113<245 376.429> 573 120<-3 91>
VStem: 91 154<117 346 459 573> 420 167<158.758 308.251>
LayerCount: 2
Fore
SplineSet
245 693 m 1
 245 459 l 1
 297 459 l 2
 478 459 587 389 587 236 c 0
 587 73 472 0 309 0 c 2
 91 0 l 1
 91 573 l 1
 -3 573 l 1
 -3 693 l 1
 245 693 l 1
292 346 m 2
 245 346 l 1
 245 117 l 1
 279 117 l 2
 367 117 420 144 420 235 c 0
 420 309 380 346 292 346 c 2
EndSplineSet
Validated: 1
EndChar

StartChar: uni042B
Encoding: 1067 1067 306
Width: 600
GlyphClass: 2
Flags: W
HStem: 0 113<155 239.876> 351 111<155 246.905> 673 20G<21 155 445 579>
VStem: 21 134<113 351 462 693> 279 139<148.2 315.492> 445 134<0 693>
LayerCount: 2
Fore
SplineSet
155 693 m 1
 155 462 l 1
 164 462 l 2
 325 462 418 388 418 237 c 0
 418 72 319 0 166 0 c 2
 21 0 l 1
 21 693 l 1
 155 693 l 1
579 693 m 1
 579 0 l 1
 445 0 l 1
 445 693 l 1
 579 693 l 1
178 351 m 2
 155 351 l 1
 155 113 l 1
 169 113 l 2
 238 113 279 141 279 236 c 0
 279 314 245 351 178 351 c 2
EndSplineSet
Validated: 1
EndChar

StartChar: uni0409
Encoding: 1033 1033 307
Width: 600
GlyphClass: 2
Flags: W
HStem: -20 21G<31.4468 83> 0 106<364 434.006> 356 103<364 435.21> 589 104<182 239>
VStem: 239 125<106 356 459 589> 465 135<140.127 324.101>
LayerCount: 2
Fore
SplineSet
364 693 m 1xbc
 364 459 l 1
 514 459 600 387 600 236 c 0
 600 74 508 0 365 0 c 2
 239 0 l 1x7c
 239 589 l 1
 182 589 l 1
 169 304 l 2
 157 70 122 32 44 -20 c 1
 -15 74 l 1
 14 99 31 135 41 322 c 2
 61 693 l 1
 364 693 l 1xbc
374 356 m 2
 364 356 l 1
 364 106 l 1
 379 106 l 2
 441 106 465 154 465 235 c 0
 465 312 440 356 374 356 c 2
EndSplineSet
Validated: 1
EndChar

StartChar: uni040A
Encoding: 1034 1034 308
Width: 600
GlyphClass: 2
Flags: W
HStem: 0 113<370 435.41> 322 112<157 241 370 443.584> 673 20G<28 157 241 370>
VStem: 28 129<0 322 434 693> 241 129<113 322 434 693> 468 132<142.445 299.691>
LayerCount: 2
Fore
SplineSet
370 693 m 1
 370 434 l 1
 511 433 600 369 600 227 c 0
 600 75 520 0 360 0 c 2
 241 0 l 1
 241 322 l 1
 157 322 l 1
 157 0 l 1
 28 0 l 1
 28 693 l 1
 157 693 l 1
 157 434 l 1
 241 434 l 1
 241 693 l 1
 370 693 l 1
375 325 m 2
 370 325 l 1
 370 113 l 1
 375 113 l 2
 443 115 468 148 468 226 c 0
 468 298 440 324 375 325 c 2
EndSplineSet
Validated: 1
EndChar

StartChar: uni0405
Encoding: 1029 1029 309
Width: 600
GlyphClass: 2
Flags: W
HStem: -17 122<171.215 363.516> 532 21G<456.5 497.303> 590 121<241.845 421.845>
VStem: 48 170<475.873 566.657> 397 171<137.94 243.517>
LayerCount: 2
Fore
SplineSet
568 203 m 0
 568 73 463 -17 286 -17 c 0
 155 -17 70 26 12 83 c 1
 95 175 l 1
 146 130 208 105 282 105 c 0
 351 105 397 136 397 190 c 0
 397 240 368 264 272 293 c 0
 109 343 48 404 48 509 c 0
 48 637 165 711 309 711 c 0
 415 711 497 678 557 621 c 1
 480 532 l 1
 433 571 377 590 321 590 c 0
 259 590 218 567 218 522 c 0
 218 478 249 460 359 426 c 0
 491 386 568 330 568 203 c 0
EndSplineSet
Validated: 1
EndChar

StartChar: uni0404
Encoding: 1028 1028 310
Width: 600
GlyphClass: 2
Flags: W
HStem: -17 124<283.888 462.913> 292 125<201 457> 545 21G<482.5 520.303> 592 119<282.995 460.221>
VStem: 34 167<199.154 292 417 491.204>
LayerCount: 2
Fore
SplineSet
358 711 m 0
 458 711 520 681 580 634 c 1
 503 545 l 1
 462 573 422 592 369 592 c 0
 281 592 211 538 201 417 c 1
 457 417 l 1
 457 292 l 1
 201 292 l 1
 209 165 275 107 365 107 c 0
 433 107 476 132 517 161 c 1
 589 73 l 1
 539 24 464 -17 354 -17 c 0
 164 -17 34 110 34 348 c 0
 34 580 173 711 358 711 c 0
EndSplineSet
Validated: 1
EndChar

StartChar: uni042D
Encoding: 1069 1069 311
Width: 600
GlyphClass: 2
Flags: W
HStem: -17 124<140.921 321.448> 297 115<137 394> 538 21G<80.3256 116.5> 592 119<151.535 327.332>
VStem: 394 166<198.028 297 412 506.812>
LayerCount: 2
Fore
SplineSet
260 711 m 0
 449 711 560 587 560 351 c 0
 560 104 432 -17 243 -17 c 0
 150 -17 71 15 14 71 c 1
 90 160 l 1
 135 127 178 107 241 107 c 0
 330 107 388 160 394 297 c 1
 137 297 l 1
 137 412 l 1
 394 412 l 1
 387 544 335 592 247 592 c 0
 181 592 135 565 98 538 c 1
 22 624 l 1
 85 677 158 711 260 711 c 0
EndSplineSet
Validated: 1
EndChar

StartChar: uni0406
Encoding: 1030 1030 312
Width: 600
GlyphClass: 2
Flags: W
HStem: 0 121<75 218 382 525> 573 120<75 218 382 525>
VStem: 218 164<121 573>
LayerCount: 2
Fore
SplineSet
525 693 m 1
 525 573 l 1
 382 573 l 1
 382 121 l 1
 525 121 l 1
 525 0 l 1
 75 0 l 1
 75 121 l 1
 218 121 l 1
 218 573 l 1
 75 573 l 1
 75 693 l 1
 525 693 l 1
EndSplineSet
Validated: 1
EndChar

StartChar: uni0407
Encoding: 1031 1031 313
Width: 600
GlyphClass: 2
Flags: W
HStem: 0 121<75 218 382 525> 573 120<75 218 382 525> 762 160<127.536 241.713 359.059 472.85>
VStem: 102 165<788.035 896.264> 218 164<121 573> 333 165<788.035 896.264>
LayerCount: 2
Fore
SplineSet
184 762 m 0xf0
 139 762 102 797 102 843 c 0
 102 887 139 922 184 922 c 0
 231 922 267 887 267 843 c 0
 267 797 231 762 184 762 c 0xf0
416 762 m 0
 371 762 333 797 333 843 c 0
 333 887 371 922 416 922 c 0
 462 922 498 887 498 843 c 0xe4
 498 797 462 762 416 762 c 0
525 693 m 1
 525 573 l 1
 382 573 l 1
 382 121 l 1
 525 121 l 1
 525 0 l 1
 75 0 l 1
 75 121 l 1
 218 121 l 1
 218 573 l 1xe8
 75 573 l 1
 75 693 l 1
 525 693 l 1
EndSplineSet
Validated: 1
EndChar

StartChar: uni0408
Encoding: 1032 1032 314
Width: 600
GlyphClass: 2
Flags: W
HStem: -15 122<139.232 311.124> 573 120<151 363>
VStem: 363 164<164.851 573>
LayerCount: 2
Fore
SplineSet
527 693 m 1
 527 249 l 2
 527 88 425 -15 248 -15 c 0
 159 -15 99 9 39 50 c 1
 101 151 l 1
 149 119 186 107 239 107 c 0
 309 107 363 151 363 248 c 2
 363 573 l 1
 151 573 l 1
 151 693 l 1
 527 693 l 1
EndSplineSet
Validated: 1
EndChar

StartChar: uni040B
Encoding: 1035 1035 315
Width: 600
GlyphClass: 2
Flags: W
HStem: 0 21G<131 284 428 582> 353 117<316.143 413.592> 576 117<-8 131 284 423>
VStem: 131 153<0 337.012 426 576> 428 154<0 337.21>
LayerCount: 2
Fore
SplineSet
440 693 m 1
 423 576 l 1
 284 576 l 1
 284 426 l 1
 316 453 354 470 403 470 c 0
 520 470 582 398 582 252 c 2
 582 0 l 1
 428 0 l 1
 428 266 l 2
 428 329 409 353 360 353 c 0
 326 353 303 338 284 320 c 1
 284 0 l 1
 131 0 l 1
 131 576 l 1
 -8 576 l 1
 -8 693 l 1
 440 693 l 1
EndSplineSet
Validated: 1
EndChar

StartChar: uni042E
Encoding: 1070 1070 316
Width: 600
GlyphClass: 2
Flags: W
HStem: -17 108<360.772 427.663> 0 21G<31 156> 303 110<156 202> 603 108<359.289 427.862> 673 20G<31 156>
VStem: 31 125<0 303 413 693> 202 134<129.823 303 413 559.857> 452 136<133.118 563.426>
LayerCount: 2
Fore
SplineSet
394 711 m 0x37
 541 711 588 590 588 347 c 0
 588 107 539 -17 394 -17 c 0xb7
 255 -17 207 95 202 303 c 1
 156 303 l 1
 156 0 l 1
 31 0 l 1
 31 693 l 1
 156 693 l 1x6f
 156 413 l 1
 203 413 l 1
 211 603 263 711 394 711 c 0x37
394 603 m 0
 349 603 336 552 336 348 c 0
 336 145 347 91 394 91 c 0
 440 91 452 144 452 347 c 0
 452 552 440 603 394 603 c 0
EndSplineSet
Validated: 1
EndChar

StartChar: uni042F
Encoding: 1071 1071 317
Width: 600
GlyphClass: 2
Flags: W
HStem: 0 21G<2 188.562 384 548> 251 112<299 384> 578 115<247.468 384>
VStem: 37 169<396.434 541.765> 384 164<0 251 363 578>
LayerCount: 2
Fore
SplineSet
548 693 m 1
 548 0 l 1
 384 0 l 1
 384 251 l 1
 299 251 l 1
 179 0 l 1
 2 0 l 1
 155 281 l 1
 78 316 37 376 37 473 c 0
 37 620 134 693 321 693 c 2
 548 693 l 1
384 578 m 1
 324 578 l 2
 246 578 206 541 206 469 c 0
 206 390 251 363 327 363 c 2
 384 363 l 1
 384 578 l 1
EndSplineSet
Validated: 1
EndChar

StartChar: uni0402
Encoding: 1026 1026 318
Width: 600
GlyphClass: 2
Flags: W
HStem: 0 21G<131 284> 353 117<316.143 413.592> 576 117<-8 131 284 423>
VStem: 131 153<0 337.012 426 576> 428 154<-1.07669 337.21>
LayerCount: 2
Fore
SplineSet
284 576 m 1
 284 426 l 1
 316 453 354 470 403 470 c 0
 520 470 582 398 582 252 c 2
 582 99 l 2
 582 -65 489 -131 373 -170 c 1
 330 -58 l 1
 412 -24 428 18 428 102 c 2
 428 266 l 2
 428 329 409 353 360 353 c 0
 326 353 303 338 284 320 c 1
 284 0 l 1
 131 0 l 1
 131 576 l 1
 -8 576 l 1
 -8 693 l 1
 440 693 l 1
 423 576 l 1
 284 576 l 1
EndSplineSet
Validated: 1
EndChar

StartChar: uni0460
Encoding: 1120 1120 319
Width: 600
GlyphClass: 2
Flags: W
HStem: -20 125<181.451 233.687 365.613 417.901> 673 20G<66.5 217 383 533>
VStem: 11 148<129.081 522.877> 239 122<106.6 399> 441 148<131.066 522.684>
CounterMasks: 1 38
LayerCount: 2
Fore
SplineSet
514 693 m 1
 552 593 589 491 589 304 c 0
 589 83 509 -20 412 -20 c 0
 340 -20 315 17 299 75 c 1
 280 16 247 -20 191 -20 c 0
 87 -20 11 83 11 304 c 0
 11 491 48 593 85 693 c 1
 217 693 l 1
 192 584 159 486 159 306 c 0
 159 157 178 105 209 105 c 0
 226 105 239 122 239 160 c 2
 239 399 l 1
 361 399 l 1
 361 160 l 2
 361 123 370 105 392 105 c 0
 421 105 441 156 441 306 c 0
 441 485 410 584 383 693 c 1
 514 693 l 1
EndSplineSet
Validated: 1
EndChar

StartChar: uni0462
Encoding: 1122 1122 320
Width: 600
GlyphClass: 2
Flags: W
HStem: 0 120<290 381.621> 327 117<290 382.625> 519 95<10 126 290 413> 673 20G<126 290>
VStem: 126 164<120 327 444 519 614 693> 419 168<156.47 292.933>
LayerCount: 2
Fore
SplineSet
318 444 m 2
 479 444 587 373 587 230 c 0
 587 76 476 0 328 0 c 2
 126 0 l 1
 126 519 l 1
 10 519 l 1
 10 614 l 1
 126 614 l 1
 126 693 l 1
 290 693 l 1
 290 614 l 1
 413 614 l 1
 413 519 l 1
 290 519 l 1
 290 444 l 1
 318 444 l 2
318 120 m 2
 376 120 419 154 419 229 c 0
 419 294 378 327 312 327 c 2
 290 327 l 1
 290 120 l 1
 318 120 l 2
EndSplineSet
Validated: 1
EndChar

StartChar: uni0464
Encoding: 1124 1124 321
Width: 600
GlyphClass: 2
Flags: W
HStem: -17 114<427.62 570.931> 0 21G<22 177> 297 115<177 223.613 379 536> 599 112<428.009 566.031> 676 20G<22 177>
VStem: 22 357<160 297 412 540> 22 155<0 293 413 696>
LayerCount: 2
Fore
SplineSet
563 114 m 1xb4
 608 19 l 1
 570 -4 524 -17 472 -17 c 0xb4
 316 -17 235 90 223 293 c 1
 177 293 l 1
 177 0 l 1
 22 0 l 1
 22 696 l 1
 177 696 l 1
 177 413 l 1x6a
 224 413 l 1
 240 604 328 711 485 711 c 0
 534 711 571 700 607 678 c 1
 557 583 l 1
 534 594 508 599 487 599 c 0
 416 599 382 540 379 412 c 1
 536 412 l 1
 536 297 l 1
 379 297 l 1
 380 160 410 97 485 97 c 0
 513 97 539 102 563 114 c 1xb4
EndSplineSet
Validated: 1
EndChar

StartChar: uni0466
Encoding: 1126 1126 322
Width: 600
GlyphClass: 2
Flags: W
HStem: 0 21G<-11 146.246 240 360 450.754 612> 673 20G<194.882 406.118>
VStem: 240 120<-1 244>
LayerCount: 2
Fore
SplineSet
456 0 m 1
 392 244 l 1
 360 244 l 1
 360 -1 l 1
 240 -1 l 1
 240 244 l 1
 205 244 l 1
 141 0 l 1
 -11 0 l 1
 201 693 l 1
 400 693 l 1
 612 0 l 1
 456 0 l 1
234 357 m 1
 363 357 l 1
 298 604 l 1
 234 357 l 1
EndSplineSet
Validated: 1
EndChar

StartChar: uni0468
Encoding: 1128 1128 323
Width: 600
GlyphClass: 2
Flags: W
HStem: 0 21G<1 127 141 267.788 331 432 494.212 625> 264 93<127 196> 673 20G<1 127 279.893 487.098>
VStem: 1 126<-2 264 357 693> 331 101<-1 264>
LayerCount: 2
Fore
SplineSet
498 0 m 1
 448 264 l 1
 432 264 l 1
 432 -1 l 1
 331 -1 l 1
 331 264 l 1
 314 264 l 1
 264 0 l 1
 141 0 l 1
 196 264 l 1
 127 264 l 1
 127 -2 l 1
 1 -2 l 1
 1 693 l 1
 127 693 l 1
 127 357 l 1
 215 357 l 1
 284 693 l 1
 483 693 l 1
 625 0 l 1
 498 0 l 1
332 357 m 1
 431 357 l 1
 381 619 l 1
 332 357 l 1
EndSplineSet
Validated: 1
EndChar

StartChar: uni046A
Encoding: 1130 1130 324
Width: 600
GlyphClass: 2
Flags: W
HStem: 0 21G<3 137.839 238 362 460.161 597> 601 92<198 396>
VStem: 238 124<0 310>
LayerCount: 2
Fore
SplineSet
481 401 m 1
 597 0 l 1
 465 0 l 1
 390 310 l 1
 362 310 l 1
 362 0 l 1
 238 0 l 1
 238 310 l 1
 208 310 l 1
 133 0 l 1
 3 0 l 1
 115 401 l 1
 183 401 l 1
 67 604 l 1
 67 693 l 1
 526 693 l 1
 526 604 l 1
 412 401 l 1
 481 401 l 1
198 601 m 1
 299 401 l 1
 396 601 l 1
 198 601 l 1
EndSplineSet
Validated: 1
EndChar

StartChar: uni046C
Encoding: 1132 1132 325
Width: 600
GlyphClass: 2
Flags: W
HStem: 0 21G<5 131 156 277.742 328 440 489.323 613> 310 91<131 198> 606 87<304 460>
VStem: 5 126<-2 310 401 693> 328 112<0 310>
LayerCount: 2
Fore
SplineSet
556 401 m 1
 613 0 l 1
 491 0 l 1
 465 310 l 1
 440 310 l 1
 440 0 l 1
 328 0 l 1
 328 310 l 1
 303 310 l 1
 276 0 l 1
 156 0 l 1
 198 310 l 1
 131 310 l 1
 131 -2 l 1
 5 -2 l 1
 5 693 l 1
 131 693 l 1
 131 401 l 1
 277 401 l 1
 188 606 l 1
 188 693 l 1
 574 693 l 1
 574 606 l 1
 488 401 l 1
 556 401 l 1
304 606 m 1
 384 401 l 1
 460 606 l 1
 304 606 l 1
EndSplineSet
Validated: 1
EndChar

StartChar: uni046E
Encoding: 1134 1134 326
Width: 600
GlyphClass: 2
Flags: W
HStem: -226 21G<185 258.915> 570 123<61 328> 751 21G<212.154 351.692>
VStem: 67 161<-99.336 -38.8864> 372 167<152.431 261.32>
LayerCount: 2
Fore
SplineSet
330 751 m 1
 234 751 l 1
 92 881 l 1
 149 946 l 1
 282 861 l 1
 415 946 l 1
 471 881 l 1
 330 751 l 1
319 387 m 1
 473 383 539 321 539 196 c 0
 539 58 426 21 323 -11 c 0
 242 -35 228 -46 228 -66 c 0
 228 -92 257 -106 303 -132 c 1
 247 -226 l 1
 123 -176 67 -117 67 -50 c 0
 67 22 107 58 226 95 c 0
 318 124 372 142 372 207 c 0
 372 260 338 287 268 287 c 2
 143 287 l 1
 143 377 l 1
 328 570 l 1
 61 570 l 1
 61 693 l 1
 503 693 l 1
 503 575 l 1
 318 387 l 1
 319 387 l 1
EndSplineSet
Validated: 1
EndChar

StartChar: uni0470
Encoding: 1136 1136 327
Width: 600
GlyphClass: 2
Flags: W
HStem: 0 21G<228 372> 183 105<187.988 228 372 411.781> 673 20G<11 150 239 363 450 589>
VStem: 11 139<321.903 693> 228 144<0 186.252> 239 124<289 693> 450 139<325.046 693>
LayerCount: 2
Fore
SplineSet
228 0 m 1xfa
 228 183 l 1xfa
 78 204 11 289 11 423 c 2
 11 693 l 1
 150 693 l 1
 150 419 l 2
 150 341 164 302 239 288 c 1
 239 693 l 1
 363 693 l 1
 363 289 l 1xf6
 434 304 450 342 450 419 c 2
 450 693 l 1
 589 693 l 1
 589 423 l 2
 589 293 521 206 372 184 c 1
 372 0 l 1
 228 0 l 1xfa
EndSplineSet
Validated: 1
EndChar

StartChar: uni0472
Encoding: 1138 1138 328
Width: 600
GlyphClass: 2
Flags: W
HStem: -17 120<241.094 359.242> 301 101<186 413> 591 120<240.735 359.244>
VStem: 23 163<186.9 301 402 504.951> 414 163<189.049 301 402 507.1>
LayerCount: 2
Fore
SplineSet
577 347 m 0
 577 127 482 -17 300 -17 c 0
 118 -17 23 122 23 347 c 0
 23 567 118 711 300 711 c 0
 482 711 577 572 577 347 c 0
300 591 m 0
 227 591 193 532 186 402 c 1
 413 402 l 1
 407 532 373 591 300 591 c 0
300 103 m 0
 377 103 409 167 414 301 c 1
 186 301 l 1
 190 166 225 103 300 103 c 0
EndSplineSet
Validated: 1
EndChar

StartChar: uni0474
Encoding: 1140 1140 329
Width: 600
GlyphClass: 2
Flags: W
HStem: 0 21G<178.007 392.106> 592 121<488 578.875> 673 20G<10 186.697>
LayerCount: 2
Fore
SplineSet
577 590 m 1xc0
 573 591 567 592 561 592 c 0xc0
 545 592 536 585 531 564 c 2
 387 0 l 1
 183 0 l 1
 10 693 l 1
 183 693 l 1xa0
 288 125 l 1
 373 573 l 2
 393 676 444 713 532 713 c 0
 561 713 585 709 598 704 c 1
 577 590 l 1xc0
EndSplineSet
Validated: 1
EndChar

StartChar: uni0476
Encoding: 1142 1142 330
Width: 600
GlyphClass: 2
Flags: W
HStem: 0 21G<178.007 392.106> 592 121<488 578.875> 673 20G<10 186.697>
LayerCount: 2
Fore
SplineSet
265 825 m 1x80
 184 786 l 1
 59 968 l 1
 165 1019 l 1
 265 825 l 1x80
428 823 m 1
 346 787 l 1
 222 970 l 1
 329 1019 l 1
 428 823 l 1
577 590 m 1
 573 591 567 592 561 592 c 0xc0
 545 592 536 585 531 564 c 2
 387 0 l 1
 183 0 l 1
 10 693 l 1
 183 693 l 1xa0
 288 125 l 1
 373 573 l 2
 393 676 444 713 532 713 c 0xc0
 561 713 585 709 598 704 c 1
 577 590 l 1
EndSplineSet
Validated: 1
EndChar

